<?xml version="1.0" encoding="UTF-8"?>
<svg xmlns="http://www.w3.org/2000/svg" xmlns:xlink="http://www.w3.org/1999/xlink" width="361.15pt" height="117.895pt" viewBox="0 0 361.15 117.895" version="1.2">
<defs>
<g>
<symbol overflow="visible" id="glyph0-0">
<path style="stroke:none;" d=""/>
</symbol>
<symbol overflow="visible" id="glyph0-1">
<path style="stroke:none;" d="M 5.15625 -4.453125 C 5.15625 -5.90625 3.40625 -5.9375 2.328125 -5.9375 C 2.234375 -5.953125 1.03125 -5.953125 0.34375 -5.96875 L 0.34375 -5.65625 C 1.109375 -5.59375 1.078125 -5.5 1.078125 -4.65625 L 1.078125 -1.296875 C 1.078125 -0.421875 1.09375 -0.375 0.328125 -0.3125 L 0.328125 0.015625 C 1.265625 -0.015625 2.203125 -0.015625 3.140625 0.015625 L 3.140625 -0.3125 C 2.3125 -0.359375 2.28125 -0.34375 2.28125 -1.296875 L 2.28125 -5.34375 C 2.28125 -5.515625 2.4375 -5.546875 2.75 -5.546875 C 3.453125 -5.546875 3.890625 -5.203125 3.890625 -4.328125 C 3.890625 -3.484375 3.53125 -3.015625 2.71875 -3.046875 C 2.375 -3.078125 2.3125 -2.5625 3.25 -2.609375 C 4.296875 -2.671875 5.15625 -3.34375 5.15625 -4.453125 Z M 5.15625 -4.453125 "/>
</symbol>
<symbol overflow="visible" id="glyph0-2">
<path style="stroke:none;" d="M 4.4375 -2.09375 C 4.4375 -3.28125 3.6875 -4.140625 2.40625 -4.140625 C 1.1875 -4.140625 0.234375 -3.359375 0.234375 -1.9375 C 0.234375 -0.765625 0.953125 0.125 2.28125 0.125 C 3.515625 0.125 4.4375 -0.640625 4.4375 -2.09375 Z M 3.203125 -1.8125 C 3.203125 -0.625 2.890625 -0.28125 2.421875 -0.28125 C 1.8125 -0.28125 1.453125 -1.015625 1.453125 -2.234375 C 1.453125 -3.265625 1.78125 -3.734375 2.28125 -3.734375 C 2.890625 -3.734375 3.203125 -3.078125 3.203125 -1.8125 Z M 3.203125 -1.8125 "/>
</symbol>
<symbol overflow="visible" id="glyph0-3">
<path style="stroke:none;" d="M 2.625 0.015625 L 2.625 -0.296875 C 2.125 -0.34375 2 -0.28125 2 -0.890625 L 2 -6.328125 L 1.96875 -6.40625 C 1.390625 -6.28125 0.859375 -6.125 0.265625 -6.046875 L 0.265625 -5.765625 C 0.828125 -5.71875 0.90625 -5.8125 0.90625 -5.140625 L 0.90625 -0.890625 C 0.90625 -0.28125 0.796875 -0.34375 0.28125 -0.296875 L 0.28125 0.015625 C 1.0625 0 1.859375 -0.015625 2.625 0.015625 Z M 2.625 0.015625 "/>
</symbol>
<symbol overflow="visible" id="glyph0-4">
<path style="stroke:none;" d="M 4.203125 -0.203125 L 4.15625 -0.5 C 3.734375 -0.375 3.609375 -0.59375 3.609375 -0.984375 C 3.609375 -0.984375 3.609375 -2.921875 3.609375 -2.9375 C 3.609375 -3.765625 3.03125 -4.140625 2.265625 -4.140625 C 1.609375 -4.0625 1 -3.8125 0.5625 -2.96875 L 0.953125 -2.734375 C 1.34375 -3.203125 1.390625 -3.546875 1.9375 -3.546875 C 2.640625 -3.546875 2.53125 -3.046875 2.546875 -2.53125 C 2.546875 -2.53125 1.65625 -2.1875 1.4375 -2.125 C 0.640625 -1.875 0.328125 -1.578125 0.328125 -0.96875 C 0.328125 -0.359375 0.71875 0.125 1.40625 0.125 C 1.765625 0.125 2.25 -0.34375 2.546875 -0.53125 C 2.59375 -0.359375 2.65625 0.078125 2.921875 0.0625 C 3.328125 0.046875 4.203125 -0.203125 4.203125 -0.203125 Z M 2.546875 -0.921875 C 2.359375 -0.71875 2.109375 -0.59375 1.90625 -0.59375 C 1.671875 -0.59375 1.421875 -0.8125 1.421875 -1.203125 C 1.421875 -1.828125 2.0625 -1.90625 2.546875 -2.15625 Z M 2.546875 -0.921875 "/>
</symbol>
<symbol overflow="visible" id="glyph0-5">
<path style="stroke:none;" d="M 3.53125 -3.78125 C 3.375 -4.03125 3.28125 -4.140625 3.046875 -4.140625 C 2.640625 -4.140625 2.34375 -3.828125 1.953125 -3.234375 C 1.9375 -3.234375 1.921875 -4.125 1.953125 -4.0625 L 1.921875 -4.140625 C 1.359375 -4.015625 0.828125 -3.84375 0.265625 -3.78125 L 0.265625 -3.5 C 0.8125 -3.4375 0.875 -3.53125 0.875 -2.859375 L 0.875 -0.890625 C 0.875 -0.28125 0.75 -0.34375 0.25 -0.296875 L 0.25 0.015625 C 1.078125 0 1.890625 -0.015625 2.71875 0.015625 L 2.71875 -0.296875 C 2.203125 -0.34375 1.953125 -0.234375 1.953125 -0.890625 L 1.953125 -2.65625 C 1.953125 -3.015625 2.3125 -3.171875 2.5625 -3.171875 C 2.75 -3.171875 2.859375 -2.984375 3 -2.8125 L 3.171875 -2.828125 Z M 3.53125 -3.78125 "/>
</symbol>
<symbol overflow="visible" id="glyph0-6">
<path style="stroke:none;" d="M 2.03125 -5.546875 C 2.03125 -5.921875 1.75 -6.21875 1.375 -6.21875 C 1.015625 -6.21875 0.703125 -5.921875 0.703125 -5.5625 C 0.703125 -5.1875 1.015625 -4.890625 1.375 -4.890625 C 1.734375 -4.890625 2.03125 -5.1875 2.03125 -5.546875 Z M 2.59375 0.015625 L 2.59375 -0.296875 C 2.09375 -0.34375 1.96875 -0.28125 1.96875 -0.890625 L 1.96875 -4.0625 L 1.921875 -4.140625 C 1.359375 -4.015625 0.84375 -3.859375 0.265625 -3.78125 L 0.265625 -3.5 C 0.828125 -3.4375 0.875 -3.53125 0.875 -2.859375 L 0.875 -0.890625 C 0.875 -0.28125 0.765625 -0.34375 0.25 -0.296875 L 0.25 0.015625 C 1.03125 0 1.8125 -0.015625 2.59375 0.015625 Z M 2.59375 0.015625 "/>
</symbol>
<symbol overflow="visible" id="glyph0-7">
<path style="stroke:none;" d="M 4.046875 -1.25 L 3.703125 -1.3125 L 3.578125 -0.859375 C 3.46875 -0.5 3.234375 -0.4375 2.71875 -0.4375 L 1.640625 -0.4375 L 3.875 -3.8125 L 3.828125 -4.03125 C 2.921875 -3.96875 1.453125 -4.03125 0.578125 -4.09375 C 0.53125 -3.90625 0.453125 -3.015625 0.390625 -2.84375 L 0.71875 -2.796875 C 0.90625 -3.390625 0.9375 -3.59375 1.625 -3.59375 L 2.46875 -3.59375 L 0.171875 -0.046875 C 0.171875 -0.046875 0.234375 0.015625 0.25 0.015625 C 1.421875 -0.015625 2.59375 0 3.765625 0.015625 C 3.765625 0 3.796875 -0.03125 3.796875 -0.03125 C 3.859375 -0.390625 3.9375 -0.828125 4.046875 -1.25 Z M 4.046875 -1.25 "/>
</symbol>
<symbol overflow="visible" id="glyph0-8">
<path style="stroke:none;" d="M 2.921875 -0.453125 L 2.8125 -0.6875 C 2.640625 -0.578125 2.53125 -0.546875 2.375 -0.546875 C 2.09375 -0.546875 1.84375 -0.6875 1.859375 -1.25 L 1.875 -3.34375 L 2.78125 -3.34375 L 2.796875 -3.84375 L 1.875 -3.84375 C 1.875 -4.078125 1.859375 -5.125 1.90625 -5.34375 L 1.765625 -5.421875 L 1.25 -5.1875 C 0.9375 -5 0.765625 -4.609375 0.765625 -4.265625 L 0.765625 -3.84375 L 0.171875 -3.84375 L 0.1875 -3.34375 L 0.765625 -3.34375 L 0.765625 -1 C 0.765625 -0.203125 1.125 0.125 1.859375 0.125 C 2.296875 0.125 2.5625 -0.1875 2.921875 -0.453125 Z M 2.921875 -0.453125 "/>
</symbol>
<symbol overflow="visible" id="glyph0-9">
<path style="stroke:none;" d="M 5.078125 0.015625 L 5.078125 -0.296875 C 4.609375 -0.34375 4.515625 -0.28125 4.515625 -0.890625 L 4.515625 -2.703125 C 4.515625 -3.546875 4.171875 -4.140625 3.265625 -4.140625 C 2.6875 -4.140625 2.359375 -3.765625 1.921875 -3.453125 L 1.921875 -4.078125 L 1.890625 -4.140625 C 1.140625 -3.921875 0.734375 -3.828125 0.234375 -3.78125 L 0.234375 -3.5 C 0.78125 -3.4375 0.828125 -3.546875 0.828125 -2.875 L 0.828125 -0.890625 C 0.828125 -0.265625 0.703125 -0.34375 0.203125 -0.296875 L 0.203125 0.015625 C 0.953125 0 1.703125 -0.015625 2.46875 0.015625 L 2.46875 -0.296875 C 2 -0.359375 1.921875 -0.296875 1.921875 -0.890625 L 1.921875 -2.9375 C 2.046875 -3.203125 2.375 -3.40625 2.6875 -3.40625 C 3.15625 -3.40625 3.421875 -3.15625 3.421875 -2.53125 L 3.421875 -0.9375 C 3.421875 -0.671875 3.40625 -0.28125 3.171875 -0.25 L 3.171875 0.015625 C 3.8125 -0.015625 4.453125 -0.015625 5.078125 0.015625 Z M 5.078125 0.015625 "/>
</symbol>
<symbol overflow="visible" id="glyph0-10">
<path style="stroke:none;" d="M 5.0625 0.015625 L 5.0625 -0.296875 C 4.578125 -0.34375 4.46875 -0.28125 4.46875 -0.890625 L 4.46875 -2.625 C 4.46875 -3.421875 4.25 -4.015625 3.390625 -4.09375 C 2.890625 -4.15625 2.21875 -3.828125 1.875 -3.484375 L 1.875 -6.328125 L 1.765625 -6.515625 C 1.1875 -6.234375 0.75 -6.140625 0.171875 -6.046875 L 0.171875 -5.765625 C 0.71875 -5.734375 0.78125 -5.796875 0.78125 -5.140625 L 0.78125 -0.890625 C 0.78125 -0.265625 0.65625 -0.34375 0.15625 -0.296875 L 0.15625 0.015625 C 0.90625 0 1.65625 -0.015625 2.40625 0.015625 L 2.40625 -0.296875 C 1.9375 -0.359375 1.875 -0.296875 1.875 -0.890625 L 1.875 -2.96875 C 1.984375 -3.21875 2.296875 -3.421875 2.625 -3.421875 C 3.109375 -3.421875 3.390625 -3.15625 3.390625 -2.5 L 3.390625 -0.9375 C 3.390625 -0.671875 3.359375 -0.28125 3.15625 -0.25 L 3.15625 0.015625 C 3.78125 -0.015625 4.421875 -0.015625 5.0625 0.015625 Z M 5.0625 0.015625 "/>
</symbol>
<symbol overflow="visible" id="glyph0-11">
<path style="stroke:none;" d="M 2.796875 2.109375 C 2.0625 1 1.875 -1.125 1.875 -2.421875 C 1.875 -3.703125 2.09375 -5.890625 2.796875 -6.96875 C 1.5 -5.984375 0.90625 -4.046875 0.90625 -2.421875 C 0.90625 -0.796875 1.484375 1.140625 2.796875 2.109375 Z M 2.796875 2.109375 "/>
</symbol>
<symbol overflow="visible" id="glyph0-12">
<path style="stroke:none;" d="M 5.015625 -0.109375 L 5.015625 -0.40625 C 4.46875 -0.4375 4.375 -0.34375 4.375 -0.9375 L 4.375 -6.328125 L 4.34375 -6.40625 C 3.71875 -6.265625 3.28125 -6.140625 2.625 -6.046875 L 2.625 -5.765625 C 3.203125 -5.734375 3.28125 -5.8125 3.28125 -5.140625 L 3.28125 -4 C 3.078125 -4.03125 2.875 -4.140625 2.640625 -4.140625 C 1.4375 -4.140625 0.328125 -3.125 0.328125 -1.890625 C 0.328125 -0.59375 1.1875 0.125 2.09375 0.125 C 2.5625 0.125 2.96875 -0.328125 3.28125 -0.5625 L 3.28125 0.078125 C 3.890625 0 4.40625 -0.09375 5.015625 -0.109375 Z M 3.28125 -1.09375 C 3.1875 -0.8125 2.875 -0.625 2.546875 -0.625 C 2.03125 -0.625 1.515625 -1.15625 1.515625 -2.1875 C 1.515625 -3.34375 2.03125 -3.65625 2.4375 -3.65625 C 2.765625 -3.65625 3.078125 -3.484375 3.28125 -3.140625 Z M 3.28125 -1.09375 "/>
</symbol>
<symbol overflow="visible" id="glyph0-13">
<path style="stroke:none;" d="M 5.0625 -0.09375 L 5.0625 -0.40625 C 4.546875 -0.421875 4.453125 -0.359375 4.453125 -0.9375 L 4.453125 -4.03125 L 4.40625 -4.109375 C 3.84375 -4 3.328125 -3.890625 2.765625 -3.84375 L 2.765625 -3.546875 C 3.296875 -3.484375 3.359375 -3.5625 3.359375 -2.984375 L 3.359375 -1.1875 C 3.234375 -0.859375 2.90625 -0.625 2.546875 -0.625 C 2.125 -0.625 1.890625 -0.875 1.890625 -1.5625 L 1.890625 -4.03125 L 1.859375 -4.109375 C 1.328125 -4 0.78125 -3.890625 0.234375 -3.84375 L 0.234375 -3.546875 C 0.765625 -3.484375 0.8125 -3.546875 0.8125 -2.984375 L 0.8125 -1.171875 C 0.8125 -0.375 1.25 0.125 2.0625 0.125 C 2.6875 0.125 2.921875 -0.296875 3.359375 -0.625 L 3.34375 -0.015625 L 3.375 0.0625 C 3.9375 0.015625 4.5 -0.078125 5.0625 -0.09375 Z M 5.0625 -0.09375 "/>
</symbol>
<symbol overflow="visible" id="glyph0-14">
<path style="stroke:none;" d="M 2.71875 -2.421875 C 2.71875 -4.046875 2.125 -5.984375 0.828125 -6.96875 C 1.546875 -5.890625 1.75 -3.703125 1.75 -2.421875 C 1.75 -1.125 1.5625 1 0.828125 2.109375 C 2.140625 1.140625 2.71875 -0.796875 2.71875 -2.421875 Z M 2.71875 -2.421875 "/>
</symbol>
<symbol overflow="visible" id="glyph0-15">
<path style="stroke:none;" d="M 5.59375 -5.625 L 4.34375 -6 C 3.03125 -5.90625 3.109375 -5.90625 2.84375 -5.90625 C 1.8125 -5.875 1.375 -5.875 0.265625 -5.921875 L 0.109375 -4.4375 L 0.53125 -4.4375 C 0.71875 -5.265625 0.609375 -5.53125 1.484375 -5.484375 C 2.109375 -5.46875 2.25 -5.546875 2.25 -4.921875 L 2.25 -1.296875 C 2.25 -0.390625 2.25 -0.359375 1.453125 -0.3125 L 1.453125 0.015625 C 2.40625 -0.015625 3.34375 -0.015625 4.28125 0.015625 L 4.28125 -0.3125 C 3.484375 -0.359375 3.453125 -0.390625 3.453125 -1.296875 L 3.453125 -5.4375 L 4.515625 -5.4375 C 4.8125 -5.40625 5 -5.078125 5.125 -4.4375 L 5.515625 -4.4375 Z M 5.59375 -5.625 "/>
</symbol>
<symbol overflow="visible" id="glyph0-16">
<path style="stroke:none;" d="M 7.546875 0.015625 L 7.546875 -0.296875 C 7.0625 -0.34375 6.96875 -0.28125 6.96875 -0.890625 L 6.96875 -2.703125 C 6.96875 -3.671875 6.59375 -4.140625 5.734375 -4.140625 C 5.171875 -4.140625 4.8125 -3.75 4.375 -3.4375 C 4.203125 -3.890625 3.828125 -4.140625 3.25 -4.140625 C 2.71875 -4.140625 2.34375 -3.75 1.921875 -3.453125 L 1.921875 -4.078125 L 1.890625 -4.140625 C 1.140625 -3.921875 0.734375 -3.828125 0.234375 -3.78125 L 0.234375 -3.5 C 0.78125 -3.4375 0.828125 -3.546875 0.828125 -2.875 L 0.828125 -0.890625 C 0.828125 -0.265625 0.703125 -0.34375 0.203125 -0.296875 L 0.203125 0.015625 C 0.9375 0 1.671875 -0.015625 2.421875 0.015625 L 2.421875 -0.296875 C 1.953125 -0.359375 1.921875 -0.34375 1.921875 -0.890625 L 1.921875 -2.9375 C 2.0625 -3.203125 2.375 -3.40625 2.671875 -3.40625 C 3.09375 -3.40625 3.359375 -3.140625 3.359375 -2.53125 L 3.359375 -0.890625 C 3.359375 -0.296875 3.328125 -0.40625 3.125 -0.3125 L 3.125 0 C 3.84375 -0.015625 4.28125 -0.015625 5 0.015625 L 5 -0.296875 C 4.53125 -0.359375 4.453125 -0.296875 4.453125 -0.890625 L 4.4375 -2.9375 C 4.609375 -3.21875 4.90625 -3.40625 5.1875 -3.40625 C 5.609375 -3.40625 5.875 -3.140625 5.875 -2.53125 L 5.875 -0.921875 C 5.875 -0.65625 5.859375 -0.28125 5.640625 -0.25 L 5.640625 0.015625 C 6.28125 0 6.90625 -0.015625 7.546875 0.015625 Z M 7.546875 0.015625 "/>
</symbol>
<symbol overflow="visible" id="glyph0-17">
<path style="stroke:none;" d="M 3.9375 -2.4375 L 3.9375 -2.625 C 3.9375 -3.625 3.234375 -4.140625 2.390625 -4.140625 C 1.953125 -4.140625 1.515625 -3.9375 1.171875 -3.6875 C 0.640625 -3.28125 0.328125 -2.71875 0.328125 -1.90625 C 0.328125 -0.6875 1.03125 0.125 2.3125 0.125 C 2.6875 0.125 3.265625 0 3.640625 -0.359375 C 3.65625 -0.390625 3.875 -0.765625 3.875 -0.765625 L 3.765625 -0.921875 C 3.765625 -0.921875 3.109375 -0.59375 2.75 -0.59375 C 1.859375 -0.59375 1.453125 -1.28125 1.4375 -2.078125 C 1.921875 -2.09375 2.625 -1.875 3.359375 -2.125 Z M 2.921875 -2.84375 C 2.921875 -2.546875 2.546875 -2.546875 2.453125 -2.53125 C 2.03125 -2.453125 1.953125 -2.421875 1.4375 -2.515625 C 1.484375 -3.265625 1.75 -3.6875 2.171875 -3.6875 C 2.59375 -3.6875 2.921875 -3.46875 2.921875 -2.84375 Z M 2.921875 -2.84375 "/>
</symbol>
<symbol overflow="visible" id="glyph0-18">
<path style="stroke:none;" d="M 4.90625 -2.34375 C 4.90625 -3.34375 4.1875 -4.140625 3.203125 -4.140625 C 2.71875 -4.140625 2.34375 -3.828125 1.953125 -3.578125 L 1.953125 -6.34375 L 1.921875 -6.40625 C 1.34375 -6.28125 0.8125 -6.125 0.21875 -6.046875 L 0.21875 -5.765625 C 0.78125 -5.734375 0.828125 -5.8125 0.828125 -5.140625 L 0.828125 -0.375 L 0.921875 -0.25 C 1.53125 -0.078125 1.75 0.125 2.4375 0.125 C 3.71875 0.125 4.90625 -1.078125 4.90625 -2.34375 Z M 3.75 -1.953125 C 3.75 -0.9375 3.3125 -0.359375 2.734375 -0.359375 C 2.46875 -0.359375 1.953125 -0.640625 1.953125 -0.953125 L 1.953125 -3.171875 C 2.109375 -3.34375 2.359375 -3.421875 2.578125 -3.421875 C 3.265625 -3.421875 3.75 -2.9375 3.75 -1.953125 Z M 3.75 -1.953125 "/>
</symbol>
<symbol overflow="visible" id="glyph1-0">
<path style="stroke:none;" d=""/>
</symbol>
<symbol overflow="visible" id="glyph1-1">
<path style="stroke:none;" d="M 1.203125 1.71875 L 1.203125 -6.5625 L 0.6875 -6.5625 L 0.6875 1.71875 Z M 1.203125 1.71875 "/>
</symbol>
<symbol overflow="visible" id="glyph1-2">
<path style="stroke:none;" d="M 2.953125 -2.25 L 0.921875 -6.390625 L 0.46875 -6.390625 L 2.296875 -2.25 L 0.46875 1.890625 L 0.921875 1.890625 Z M 2.953125 -2.25 "/>
</symbol>
<symbol overflow="visible" id="glyph2-0">
<path style="stroke:none;" d=""/>
</symbol>
<symbol overflow="visible" id="glyph2-1">
<path style="stroke:none;" d="M 4.375 -3.03125 C 4.375 -4.21875 4.078125 -5.9375 2.5625 -5.9375 C 0.953125 -5.9375 0.609375 -4.125 0.609375 -2.84375 C 0.609375 -1.640625 0.890625 0.140625 2.453125 0.140625 C 4.078125 0.140625 4.375 -1.796875 4.375 -3.03125 Z M 3.609375 -2.8125 C 3.609375 -2.09375 3.59375 -0.15625 2.515625 -0.15625 C 1.375 -0.15625 1.375 -2.25 1.375 -3.015625 C 1.375 -3.75 1.390625 -5.640625 2.484375 -5.640625 C 3.609375 -5.640625 3.609375 -3.546875 3.609375 -2.8125 Z M 3.609375 -2.8125 "/>
</symbol>
<symbol overflow="visible" id="glyph2-2">
<path style="stroke:none;" d="M 5.28125 -2.984375 L 5.28125 -3.4375 L 0.578125 -3.4375 L 0.578125 -2.984375 Z M 5.28125 -1.03125 L 5.28125 -1.484375 L 0.578125 -1.484375 L 0.578125 -1.03125 Z M 5.28125 -1.03125 "/>
</symbol>
<symbol overflow="visible" id="glyph2-3">
<path style="stroke:none;" d="M 3.671875 0.015625 L 3.671875 -0.21875 C 3.109375 -0.265625 2.71875 -0.15625 2.71875 -0.828125 L 2.71875 -5.875 L 2.65625 -5.953125 C 1.578125 -5.484375 1.921875 -5.625 0.875 -5.203125 L 0.96875 -5 C 1.1875 -5 1.640625 -5.265625 1.875 -5.265625 C 2 -5.265625 2 -5.015625 2 -4.9375 L 2 -0.828125 C 2 -0.140625 1.578125 -0.265625 1.03125 -0.21875 L 1.03125 0.015625 C 1.90625 -0.015625 2.796875 -0.015625 3.671875 0.015625 Z M 3.671875 0.015625 "/>
</symbol>
<symbol overflow="visible" id="glyph2-4">
<path style="stroke:none;" d="M 3.78125 -2.625 C 3.78125 -3.453125 3.140625 -4.09375 2.3125 -4.09375 C 1.9375 -4.09375 1.578125 -3.953125 1.265625 -3.765625 C 0.578125 -3.328125 0.296875 -2.671875 0.296875 -1.875 C 0.296875 -0.703125 1 0.140625 2.203125 0.140625 C 2.59375 0.140625 3.1875 0 3.53125 -0.4375 L 3.71875 -0.703125 L 3.59375 -0.8125 C 3.265625 -0.5625 2.96875 -0.390625 2.546875 -0.390625 C 1.5 -0.390625 1.046875 -1.21875 1.03125 -2.171875 C 1.03125 -2.171875 2.203125 -2.109375 3.015625 -2.203125 L 3.765625 -2.4375 Z M 3.046875 -2.890625 C 3.046875 -2.65625 2.953125 -2.484375 2.703125 -2.46875 C 2.15625 -2.421875 1.078125 -2.5 1.078125 -2.5 C 1.09375 -3.125 1.4375 -3.796875 2.140625 -3.796875 C 2.5625 -3.796875 3.046875 -3.296875 3.046875 -2.890625 Z M 3.046875 -2.890625 "/>
</symbol>
<symbol overflow="visible" id="glyph2-5">
<path style="stroke:none;" d="M 4.03125 -0.15625 L 4 -0.390625 C 3.625 -0.296875 3.390625 -0.390625 3.390625 -0.84375 L 3.390625 -2.671875 C 3.390625 -3.53125 3.109375 -4.09375 2.15625 -4.09375 C 1.34375 -4.09375 0.78125 -3.671875 0.53125 -3.015625 L 0.84375 -2.828125 C 1.140625 -3.234375 1.3125 -3.65625 1.703125 -3.671875 C 2.484375 -3.703125 2.703125 -3.21875 2.6875 -2.515625 L 1.515625 -2.125 C 0.875 -1.90625 0.3125 -1.6875 0.3125 -0.953125 C 0.3125 -0.3125 0.78125 0.109375 1.421875 0.109375 C 1.90625 0.109375 2.6875 -0.609375 2.6875 -0.609375 C 2.6875 -0.609375 2.65625 0.0625 2.90625 0.0625 C 3.5625 -0.09375 3.34375 -0.03125 4.03125 -0.15625 Z M 2.6875 -0.921875 C 2.484375 -0.6875 2.03125 -0.390625 1.703125 -0.390625 C 1.328125 -0.390625 1.078125 -0.75 1.078125 -1.09375 C 1.0625 -1.734375 2.6875 -2.234375 2.6875 -2.234375 Z M 2.6875 -0.921875 "/>
</symbol>
<symbol overflow="visible" id="glyph2-6">
<path style="stroke:none;" d="M 3.328125 -3.75 C 3.328125 -3.9375 2.96875 -4.09375 2.8125 -4.09375 C 2.328125 -4.09375 1.859375 -3.578125 1.640625 -3.15625 L 1.640625 -4.046875 L 1.609375 -4.09375 C 0.859375 -3.875 1.109375 -3.953125 0.265625 -3.75 L 0.265625 -3.53125 C 0.859375 -3.46875 0.921875 -3.59375 0.921875 -2.90625 L 0.921875 -0.859375 C 0.921875 -0.203125 0.828125 -0.28125 0.234375 -0.21875 L 0.234375 0.015625 C 0.984375 0 1.71875 0 2.46875 0.015625 L 2.46875 -0.21875 C 1.828125 -0.265625 1.640625 -0.15625 1.640625 -0.859375 L 1.640625 -2.5625 C 1.640625 -2.890625 2.015625 -3.390625 2.390625 -3.390625 C 2.59375 -3.390625 2.84375 -3.203125 2.84375 -3.109375 L 2.96875 -3.078125 Z M 3.328125 -3.75 "/>
</symbol>
<symbol overflow="visible" id="glyph2-7">
<path style="stroke:none;" d="M 2.375 0.015625 L 2.375 -0.21875 C 1.78125 -0.28125 1.6875 -0.203125 1.6875 -0.859375 L 1.6875 -6.34375 L 1.640625 -6.421875 C 0.859375 -6.21875 1.125 -6.28125 0.28125 -6.109375 L 0.28125 -5.890625 C 0.734375 -5.859375 0.953125 -5.96875 0.953125 -5.421875 L 0.953125 -0.859375 C 0.953125 -0.203125 0.859375 -0.28125 0.265625 -0.21875 L 0.265625 0.015625 C 0.96875 -0.015625 1.671875 -0.015625 2.375 0.015625 Z M 2.375 0.015625 "/>
</symbol>
<symbol overflow="visible" id="glyph2-8">
<path style="stroke:none;" d="M 4.5625 -3.78125 L 4.5625 -4.015625 C 4 -4 3.46875 -4 2.921875 -4.015625 L 2.921875 -3.78125 C 3.078125 -3.765625 3.46875 -3.78125 3.46875 -3.546875 C 3.46875 -3.296875 2.453125 -0.90625 2.453125 -0.90625 L 1.5 -3.453125 C 1.375 -3.78125 1.765625 -3.765625 2.015625 -3.78125 L 2.015625 -4.015625 C 1.359375 -4 0.71875 -4 0.0625 -4.015625 L 0.0625 -3.78125 C 0.546875 -3.734375 0.59375 -3.6875 0.765625 -3.234375 L 1.75 -0.6875 C 1.84375 -0.4375 1.953125 -0.171875 2 0.09375 C 1.546875 1.328125 1.53125 0.984375 0.6875 1.5625 C 0.296875 1.828125 0.453125 2.328125 0.90625 2.328125 C 1.375 2.328125 2.046875 0.78125 2.1875 0.453125 L 3.671875 -2.90625 C 3.90625 -3.40625 3.96875 -3.703125 4.5625 -3.78125 Z M 4.5625 -3.78125 "/>
</symbol>
<symbol overflow="visible" id="glyph2-9">
<path style="stroke:none;" d="M 2.75 -0.40625 L 2.640625 -0.578125 C 2.484375 -0.5 2.296875 -0.40625 2.109375 -0.40625 C 1.6875 -0.40625 1.578125 -0.75 1.578125 -1.125 L 1.578125 -3.46875 L 2.640625 -3.46875 L 2.71875 -3.8125 L 1.59375 -3.8125 L 1.59375 -5.1875 L 1.578125 -5.296875 L 1.140625 -5.125 C 1.140625 -5.125 0.875 -4.96875 0.875 -4.484375 L 0.875 -3.8125 L 0.203125 -3.8125 L 0.1875 -3.46875 L 0.859375 -3.46875 L 0.859375 -0.90625 C 0.859375 -0.265625 1.125 0.109375 1.796875 0.109375 C 2.1875 0.109375 2.546875 -0.140625 2.75 -0.40625 Z M 2.75 -0.40625 "/>
</symbol>
<symbol overflow="visible" id="glyph2-10">
<path style="stroke:none;" d="M 1.859375 -0.640625 C 1.859375 -0.875 1.609375 -1.171875 1.359375 -1.171875 C 1.203125 -1.171875 0.890625 -0.984375 0.984375 -0.8125 C 1.328125 -0.140625 0.5 0.875 0.28125 1.125 L 0.390625 1.265625 C 1.03125 1.03125 1.859375 0.015625 1.859375 -0.640625 Z M 1.859375 -0.640625 "/>
</symbol>
<symbol overflow="visible" id="glyph2-11">
<path style="stroke:none;" d="M 3.234375 -6.21875 C 3.125 -6.328125 2.859375 -6.4375 2.6875 -6.4375 C 1.984375 -6.4375 1.46875 -5.9375 1.140625 -5.375 C 0.90625 -4.96875 0.9375 -4.34375 0.9375 -3.890625 L 0.328125 -3.875 L 0.34375 -3.484375 L 0.9375 -3.5 L 0.9375 -0.859375 C 0.9375 -0.203125 0.84375 -0.28125 0.265625 -0.21875 L 0.265625 0.015625 C 0.984375 -0.015625 1.71875 -0.015625 2.4375 0.015625 L 2.4375 -0.21875 C 1.828125 -0.28125 1.671875 -0.171875 1.671875 -0.859375 L 1.671875 -3.5 L 2.75 -3.5 L 2.8125 -3.875 L 1.671875 -3.890625 C 1.671875 -4.34375 1.5 -5.921875 2.296875 -5.921875 C 2.71875 -5.921875 2.9375 -5.5625 3.109375 -5.609375 C 3.234375 -5.71875 3.390625 -6.09375 3.234375 -6.21875 Z M 3.234375 -6.21875 "/>
</symbol>
<symbol overflow="visible" id="glyph2-12">
<path style="stroke:none;" d="M 4.921875 -0.09375 L 4.921875 -0.328125 C 4.921875 -0.328125 4.203125 -0.125 4.203125 -0.890625 L 4.203125 -6.34375 L 4.15625 -6.421875 C 3.375 -6.21875 3.640625 -6.28125 2.78125 -6.109375 L 2.78125 -5.890625 C 2.78125 -5.890625 3.484375 -6.109375 3.484375 -5.421875 L 3.484375 -3.90625 C 3.484375 -3.90625 2.96875 -4.09375 2.6875 -4.09375 C 1.484375 -4.09375 0.328125 -3.140625 0.328125 -1.875 C 0.328125 -0.75 1.03125 0.109375 2.1875 0.109375 C 3.234375 0.09375 3.5 -0.625 3.5 -0.625 L 3.46875 0.078125 C 4.34375 -0.046875 4.078125 -0.015625 4.921875 -0.09375 Z M 3.484375 -1.34375 C 3.484375 -0.84375 2.890625 -0.40625 2.40625 -0.40625 C 1.515625 -0.40625 1.125 -1.359375 1.125 -2.125 C 1.125 -2.921875 1.484375 -3.71875 2.375 -3.71875 C 2.578125 -3.71875 3.484375 -3.5 3.484375 -3.21875 Z M 3.484375 -1.34375 "/>
</symbol>
<symbol overflow="visible" id="glyph2-13">
<path style="stroke:none;" d="M 4.8125 -2.40625 C 4.8125 -3.34375 4.0625 -4.09375 3.109375 -4.09375 C 2.53125 -4.09375 2.09375 -3.8125 1.6875 -3.375 L 1.6875 -4.09375 L 1.640625 -4.140625 C 0.78125 -3.890625 1.046875 -3.953125 0.265625 -3.765625 L 0.265625 -3.5625 C 0.875 -3.53125 0.953125 -3.609375 0.953125 -2.9375 L 0.953125 1.421875 C 0.953125 2.0625 0.859375 2 0.265625 2.046875 L 0.265625 2.28125 C 1 2.265625 1.71875 2.265625 2.453125 2.28125 L 2.453125 2.046875 C 1.828125 2 1.6875 2.109375 1.6875 1.421875 L 1.6875 -0.09375 C 1.890625 0.03125 2.1875 0.109375 2.4375 0.109375 C 4.3125 0.09375 4.8125 -0.8125 4.8125 -2.40625 Z M 4.046875 -1.984375 C 4.046875 -1.21875 3.59375 -0.328125 2.734375 -0.328125 C 2.3125 -0.328125 1.96875 -0.46875 1.6875 -0.78125 L 1.6875 -2.953125 C 1.828125 -3.328125 2.34375 -3.5625 2.71875 -3.5625 C 3.640625 -3.5625 4.046875 -2.828125 4.046875 -1.984375 Z M 4.046875 -1.984375 "/>
</symbol>
<symbol overflow="visible" id="glyph2-14">
<path style="stroke:none;" d="M 4.953125 -0.09375 L 4.953125 -0.328125 C 4.390625 -0.359375 4.28125 -0.265625 4.28125 -0.875 L 4.28125 -4.03125 L 4.25 -4.078125 C 3.453125 -3.90625 3.703125 -3.96875 2.84375 -3.828125 L 2.84375 -3.59375 C 3.40625 -3.5625 3.53125 -3.65625 3.53125 -3.03125 L 3.53125 -1.5625 C 3.53125 -1.125 2.96875 -0.4375 2.4375 -0.4375 C 1.75 -0.421875 1.59375 -0.890625 1.59375 -1.484375 L 1.59375 -4.03125 L 1.5625 -4.078125 C 0.75 -3.90625 1 -3.953125 0.21875 -3.828125 L 0.21875 -3.59375 C 0.765625 -3.5625 0.875 -3.625 0.875 -3.03125 L 0.875 -1.28125 C 0.875 -0.4375 1.109375 0.09375 2.0625 0.09375 C 2.71875 0.09375 3.21875 -0.171875 3.53125 -0.703125 L 3.53125 0.03125 L 3.59375 0.046875 C 4.40625 -0.0625 4.15625 -0.03125 4.953125 -0.09375 Z M 4.953125 -0.09375 "/>
</symbol>
<symbol overflow="visible" id="glyph2-15">
<path style="stroke:none;" d="M 3.21875 -1.234375 C 3.21875 -2.65625 1.015625 -2.109375 1.015625 -3.15625 C 1.015625 -3.59375 1.328125 -3.8125 1.734375 -3.8125 C 2.3125 -3.8125 2.609375 -3.484375 2.71875 -2.953125 L 2.953125 -2.96875 L 2.875 -3.90625 C 2.5625 -4.03125 2.25 -4.09375 1.921875 -4.09375 C 1.15625 -4.09375 0.40625 -3.703125 0.40625 -2.859375 C 0.40625 -1.5 2.546875 -2.015625 2.546875 -0.90625 C 2.546875 -0.421875 2.140625 -0.15625 1.6875 -0.15625 C 0.65625 -0.15625 0.8125 -0.890625 0.625 -1.171875 L 0.453125 -1.265625 L 0.296875 -0.625 C 0.59375 -0.015625 0.75 0.140625 1.5 0.140625 C 2.3125 0.140625 3.21875 -0.296875 3.21875 -1.234375 Z M 3.21875 -1.234375 "/>
</symbol>
<symbol overflow="visible" id="glyph2-16">
<path style="stroke:none;" d="M 6.71875 -3.75 L 6.71875 -3.96875 C 6.15625 -3.953125 5.59375 -3.953125 5.046875 -3.96875 L 5.046875 -3.75 C 5.25 -3.71875 5.65625 -3.765625 5.65625 -3.46875 C 5.65625 -3.046875 4.828125 -0.921875 4.828125 -0.921875 L 3.640625 -4 L 3.4375 -4 C 3.4375 -4 2.1875 -0.953125 2.203125 -0.953125 L 2.1875 -0.953125 C 2.1875 -0.953125 1.421875 -3.203125 1.421875 -3.5 C 1.421875 -3.75 1.859375 -3.71875 2.015625 -3.75 L 2.015625 -3.96875 C 1.359375 -3.953125 0.703125 -3.953125 0.046875 -3.96875 L 0.046875 -3.75 C 0.625 -3.6875 0.609375 -3.5625 0.78125 -3.015625 L 1.78125 0.09375 L 2.109375 0.09375 L 3.328125 -2.828125 L 4.484375 0.09375 L 4.8125 0.09375 L 5.96875 -3.015625 C 6.171875 -3.484375 6.1875 -3.671875 6.71875 -3.75 Z M 6.71875 -3.75 "/>
</symbol>
<symbol overflow="visible" id="glyph2-17">
<path style="stroke:none;" d="M 4.859375 0.015625 L 4.859375 -0.234375 C 4.28125 -0.28125 4.21875 -0.234375 4.21875 -0.859375 L 4.21875 -2.671875 C 4.21875 -3.578125 3.78125 -4.09375 2.859375 -4.09375 C 1.75 -4.09375 1.515625 -3.375 1.515625 -3.375 L 1.515625 -6.34375 L 1.484375 -6.421875 C 1.03125 -6.28125 0.578125 -6.1875 0.109375 -6.109375 L 0.109375 -5.890625 C 0.578125 -5.859375 0.796875 -5.984375 0.796875 -5.421875 L 0.796875 -0.859375 C 0.796875 -0.21875 0.71875 -0.28125 0.125 -0.21875 L 0.125 0.015625 C 0.8125 -0.015625 1.5 -0.015625 2.1875 0.015625 L 2.1875 -0.21875 C 1.59375 -0.28125 1.515625 -0.21875 1.515625 -0.859375 L 1.515625 -2.953125 C 1.515625 -3.296875 2.28125 -3.578125 2.546875 -3.578125 C 3.21875 -3.578125 3.484375 -3.09375 3.484375 -2.484375 L 3.484375 -0.9375 C 3.484375 -0.71875 3.484375 -0.203125 3.1875 -0.171875 L 3.1875 0.015625 C 3.75 -0.015625 4.3125 -0.015625 4.859375 0.015625 Z M 4.859375 0.015625 "/>
</symbol>
<symbol overflow="visible" id="glyph2-18">
<path style="stroke:none;" d="M 4.359375 -2.0625 C 4.359375 -3.234375 3.5 -4.09375 2.328125 -4.09375 C 1.078125 -4.09375 0.234375 -3.109375 0.234375 -1.890625 C 0.234375 -0.75 1.03125 0.140625 2.203125 0.140625 C 3.46875 0.140625 4.359375 -0.828125 4.359375 -2.0625 Z M 3.53125 -1.796875 C 3.53125 -1.09375 3.3125 -0.140625 2.421875 -0.140625 C 1.390625 -0.140625 1.0625 -1.375 1.0625 -2.21875 C 1.0625 -2.9375 1.328125 -3.8125 2.1875 -3.8125 C 3.1875 -3.8125 3.53125 -2.59375 3.53125 -1.796875 Z M 3.53125 -1.796875 "/>
</symbol>
<symbol overflow="visible" id="glyph2-19">
<path style="stroke:none;" d="M 4.90625 0.015625 L 4.90625 -0.21875 C 4.328125 -0.28125 4.28125 -0.234375 4.28125 -0.859375 L 4.28125 -2.71875 C 4.28125 -3.578125 3.84375 -4.09375 2.96875 -4.09375 C 2.375 -4.09375 1.953125 -3.78125 1.578125 -3.359375 L 1.578125 -4.0625 L 1.546875 -4.109375 C 0.640625 -3.84375 0.90625 -3.90625 0.1875 -3.75 L 0.1875 -3.53125 C 0.78125 -3.484375 0.859375 -3.578125 0.859375 -2.90625 L 0.859375 -0.859375 C 0.859375 -0.203125 0.765625 -0.28125 0.15625 -0.21875 L 0.15625 0.015625 C 0.84375 -0.015625 1.546875 -0.015625 2.234375 0.015625 L 2.234375 -0.21875 C 1.65625 -0.28125 1.578125 -0.21875 1.578125 -0.859375 L 1.578125 -2.953125 C 1.734375 -3.3125 2.25 -3.578125 2.640625 -3.578125 C 3.28125 -3.578125 3.546875 -3.109375 3.546875 -2.53125 L 3.546875 -0.9375 C 3.546875 -0.703125 3.53125 -0.203125 3.234375 -0.171875 L 3.234375 0.015625 C 3.78125 -0.015625 4.34375 -0.015625 4.90625 0.015625 Z M 4.90625 0.015625 "/>
</symbol>
<symbol overflow="visible" id="glyph2-20">
<path style="stroke:none;" d="M 1.75 -5.625 C 1.75 -5.890625 1.53125 -6.140625 1.265625 -6.140625 C 1 -6.140625 0.78125 -5.890625 0.78125 -5.625 C 0.78125 -5.375 1.015625 -5.140625 1.265625 -5.140625 C 1.53125 -5.140625 1.75 -5.375 1.75 -5.625 Z M 2.34375 0.015625 L 2.34375 -0.21875 C 1.75 -0.28125 1.65625 -0.203125 1.65625 -0.859375 L 1.65625 -4.046875 L 1.609375 -4.109375 L 0.265625 -3.75 L 0.265625 -3.53125 C 0.859375 -3.46875 0.9375 -3.59375 0.9375 -2.90625 L 0.9375 -0.859375 C 0.9375 -0.203125 0.84375 -0.28125 0.234375 -0.21875 L 0.234375 0.015625 C 0.9375 -0.015625 1.640625 -0.015625 2.34375 0.015625 Z M 2.34375 0.015625 "/>
</symbol>
<symbol overflow="visible" id="glyph2-21">
<path style="stroke:none;" d="M 4.4375 -3.875 L 3.203125 -3.8125 C 2.90625 -4.015625 2.59375 -4.09375 2.234375 -4.09375 C 1.359375 -4.09375 0.46875 -3.515625 0.46875 -2.5625 C 0.46875 -1.953125 0.875 -1.5 1.46875 -1.390625 C 1.46875 -1.390625 0.78125 -0.96875 0.609375 -0.671875 C 0.609375 -0.09375 1.3125 0 1.3125 0 C 1.3125 0 0.296875 0.484375 0.296875 1.109375 C 0.296875 2 1.3125 2.34375 2.046875 2.34375 C 3.453125 2.34375 4.328125 1.640625 4.328125 0.5 C 4.328125 -0.171875 3.828125 -0.5625 3.1875 -0.5625 L 1.984375 -0.5625 C 1.75 -0.5625 1.359375 -0.578125 1.359375 -0.875 C 1.359375 -1.0625 1.78125 -1.328125 1.78125 -1.328125 C 3.015625 -1.328125 3.703125 -1.78125 3.703125 -2.796875 C 3.703125 -3.03125 3.515625 -3.421875 3.515625 -3.421875 L 4.171875 -3.40625 Z M 2.96875 -2.59375 C 2.96875 -2.09375 2.703125 -1.59375 2.140625 -1.59375 C 1.5 -1.59375 1.21875 -2.203125 1.21875 -2.765625 C 1.21875 -3.28125 1.453125 -3.828125 2.046875 -3.828125 C 2.703125 -3.828125 2.96875 -3.171875 2.96875 -2.59375 Z M 3.6875 0.859375 C 3.6875 1.640625 2.921875 2 2.234375 2 C 1.625 2 0.984375 1.671875 0.984375 0.96875 C 0.984375 0.1875 1.6875 0.046875 2.3125 0.046875 C 2.921875 0.046875 3.6875 0.0625 3.6875 0.859375 Z M 3.6875 0.859375 "/>
</symbol>
<symbol overflow="visible" id="glyph2-22">
<path style="stroke:none;" d="M 3.671875 -0.640625 L 3.578125 -0.765625 C 3.234375 -0.515625 2.984375 -0.390625 2.5625 -0.390625 C 1.5625 -0.390625 1.046875 -1.296875 1.046875 -2.21875 C 1.046875 -2.953125 1.390625 -3.671875 2.21875 -3.671875 C 2.46875 -3.671875 2.921875 -3.640625 3.03125 -3.375 L 3.203125 -3.015625 L 3.390625 -2.96875 L 3.59375 -3.71875 C 3.59375 -3.953125 2.8125 -4.09375 2.640625 -4.09375 C 1.421875 -4.09375 0.296875 -3.078125 0.296875 -1.828125 C 0.296875 -0.703125 1.109375 0.140625 2.25 0.140625 C 2.625 0.140625 3.21875 -0.03125 3.46875 -0.34375 Z M 3.671875 -0.640625 "/>
</symbol>
<symbol overflow="visible" id="glyph3-0">
<path style="stroke:none;" d=""/>
</symbol>
<symbol overflow="visible" id="glyph3-1">
<path style="stroke:none;" d="M 4.03125 -1.21875 L 3.8125 -1.234375 C 3.703125 -1.015625 3.609375 -0.578125 3.40625 -0.421875 C 3.25 -0.3125 2.875 -0.265625 2.390625 -0.265625 C 2.125 -0.265625 1.453125 -0.28125 1.5 -0.71875 C 1.609375 -1.890625 1.90625 -3.046875 2.125 -4.21875 C 2.234375 -4.828125 2.359375 -4.84375 2.90625 -4.875 L 2.9375 -5.0625 C 2.4375 -5.046875 1.46875 -5.0625 0.984375 -5.0625 L 0.953125 -4.875 C 1.59375 -4.828125 1.59375 -4.828125 1.5 -4.109375 C 1.359375 -2.984375 1.109375 -1.875 0.90625 -0.75 C 0.828125 -0.265625 0.734375 -0.21875 0.265625 -0.171875 L 0.21875 0 C 0.9375 0 2.171875 0 3.09375 0 L 3.765625 -0.1875 C 3.8125 -0.40625 3.9375 -0.859375 4.03125 -1.21875 Z M 4.03125 -1.21875 "/>
</symbol>
<symbol overflow="visible" id="glyph3-2">
<path style="stroke:none;" d="M 3.421875 -0.640625 L 3.34375 -0.796875 C 3.25 -0.703125 2.921875 -0.4375 2.78125 -0.4375 C 2.71875 -0.4375 2.703125 -0.515625 2.71875 -0.6875 C 2.796875 -1.46875 3.140625 -2.59375 3.328125 -3.40625 L 3.265625 -3.453125 L 2.953125 -3.328125 C 2.71875 -3.40625 2.625 -3.453125 2.453125 -3.453125 C 1.75 -3.453125 1.359375 -3.1875 1 -2.703125 C 0.59375 -2.15625 0.34375 -1.28125 0.34375 -0.59375 C 0.34375 -0.109375 0.53125 0.078125 0.6875 0.078125 C 0.828125 0.078125 1.125 -0.125 1.328125 -0.296875 C 1.671875 -0.59375 2 -0.9375 2.359375 -1.421875 L 2.375 -1.4375 C 2.328125 -1.265625 1.828125 0.078125 2.3125 0.078125 C 2.453125 0.078125 2.921875 -0.1875 3.421875 -0.640625 Z M 2.703125 -3.046875 C 2.703125 -2.703125 2.515625 -2.15625 2.4375 -1.9375 C 2.328125 -1.6875 2.109375 -1.484375 1.96875 -1.28125 C 1.59375 -0.8125 1.21875 -0.4375 1.046875 -0.4375 C 0.921875 -0.4375 0.84375 -0.5625 0.84375 -0.8125 C 0.84375 -1.171875 1.015625 -1.90625 1.25 -2.4375 C 1.359375 -2.6875 1.734375 -3.15625 2.125 -3.15625 C 2.34375 -3.15625 2.46875 -3.125 2.703125 -3.046875 Z M 2.703125 -3.046875 "/>
</symbol>
<symbol overflow="visible" id="glyph3-3">
<path style="stroke:none;" d="M 3.4375 -2.765625 C 3.4375 -3.046875 3.421875 -3.5 3.0625 -3.5 C 2.546875 -3.5 1.6875 -2.796875 1.359375 -2.390625 L 1.984375 -5.25 L 1.921875 -5.453125 C 1.6875 -5.359375 1.28125 -5.21875 0.71875 -5.125 L 0.703125 -4.984375 C 1.109375 -4.984375 1.375 -5.109375 1.296875 -4.625 L 0.546875 -0.78125 C 0.4375 -0.25 0.703125 0.0625 1.453125 0.0625 C 1.828125 0.0625 1.96875 0 2.34375 -0.265625 C 3.03125 -0.75 3.4375 -1.796875 3.4375 -2.765625 Z M 2.90625 -2.53125 C 2.90625 -1.84375 2.5625 -1.078125 2.28125 -0.6875 C 2.078125 -0.421875 1.875 -0.234375 1.578125 -0.234375 C 1.234375 -0.234375 1.046875 -0.4375 1.09375 -0.90625 C 1.15625 -1.484375 1.28125 -2.046875 1.6875 -2.484375 C 1.921875 -2.765625 2.34375 -3.078125 2.609375 -3.078125 C 2.796875 -3.078125 2.90625 -2.921875 2.90625 -2.53125 Z M 2.90625 -2.53125 "/>
</symbol>
<symbol overflow="visible" id="glyph4-0">
<path style="stroke:none;" d=""/>
</symbol>
<symbol overflow="visible" id="glyph4-1">
<path style="stroke:none;" d="M 7.328125 -6 C 6.578125 -6 5.8125 -6 5.0625 -6 L 5.015625 -5.78125 C 5.78125 -5.734375 5.828125 -5.71875 5.671875 -4.875 L 5.40625 -3.34375 L 2.234375 -3.34375 L 2.546875 -5 C 2.6875 -5.71875 2.8125 -5.734375 3.46875 -5.78125 L 3.5 -6 C 2.734375 -6 1.96875 -6 1.203125 -6 L 1.15625 -5.78125 C 2 -5.71875 1.953125 -5.625 1.796875 -4.765625 C 1.796875 -4.765625 1.8125 -4.796875 1.15625 -1.203125 C 1 -0.328125 1.015625 -0.28125 0.21875 -0.21875 L 0.171875 0.015625 C 0.953125 0 1.703125 0 2.484375 0.015625 L 2.515625 -0.21875 C 1.796875 -0.265625 1.703125 -0.25 1.84375 -1.0625 L 2.1875 -2.96875 L 5.34375 -2.96875 L 5.015625 -1.203125 C 4.859375 -0.359375 4.90625 -0.28125 4.03125 -0.21875 L 4 0.015625 C 4.796875 0 5.5625 0 6.359375 0.015625 L 6.40625 -0.21875 C 5.671875 -0.265625 5.546875 -0.21875 5.6875 -1.0625 C 5.6875 -1.0625 5.609375 -0.625 6.40625 -5 C 6.53125 -5.703125 6.65625 -5.734375 7.296875 -5.78125 Z M 7.328125 -6 "/>
</symbol>
<symbol overflow="visible" id="glyph4-2">
<path style="stroke:none;" d="M 6.828125 -5.984375 C 6.203125 -5.96875 5.546875 -5.96875 4.921875 -5.984375 L 4.890625 -5.78125 C 5.078125 -5.765625 5.59375 -5.765625 5.59375 -5.5 C 5.59375 -5.40625 5.5 -5.21875 5.4375 -5.125 L 3.078125 -0.9375 C 3.078125 -0.9375 2.34375 -3.9375 2.34375 -5.46875 C 2.34375 -5.828125 2.8125 -5.765625 3.046875 -5.78125 L 3.078125 -5.984375 C 2.359375 -5.96875 1.625 -5.96875 0.90625 -5.984375 L 0.890625 -5.78125 C 1.484375 -5.703125 1.5625 -5.71875 1.671875 -5.078125 L 2.53125 0.0625 L 2.875 0.0625 L 5.96875 -5.140625 C 6.203125 -5.546875 6.3125 -5.734375 6.796875 -5.78125 Z M 6.828125 -5.984375 "/>
</symbol>
<symbol overflow="visible" id="glyph4-3">
<path style="stroke:none;" d="M 4.0625 -0.75 L 3.96875 -0.9375 C 3.84375 -0.84375 3.46875 -0.515625 3.296875 -0.515625 C 3.21875 -0.515625 3.203125 -0.609375 3.21875 -0.8125 C 3.328125 -1.75 3.734375 -3.078125 3.9375 -4.03125 L 3.875 -4.09375 L 3.5 -3.953125 C 3.21875 -4.03125 3.109375 -4.09375 2.921875 -4.09375 C 2.0625 -4.09375 1.609375 -3.78125 1.1875 -3.203125 C 0.703125 -2.5625 0.40625 -1.515625 0.40625 -0.703125 C 0.40625 -0.125 0.640625 0.09375 0.8125 0.09375 C 0.984375 0.09375 1.328125 -0.140625 1.578125 -0.359375 C 1.984375 -0.703125 2.359375 -1.125 2.796875 -1.6875 L 2.8125 -1.703125 C 2.765625 -1.5 2.171875 0.09375 2.734375 0.09375 C 2.90625 0.09375 3.46875 -0.21875 4.0625 -0.75 Z M 3.203125 -3.609375 C 3.203125 -3.203125 2.984375 -2.546875 2.890625 -2.296875 C 2.75 -2 2.5 -1.75 2.328125 -1.515625 C 1.890625 -0.953125 1.453125 -0.515625 1.25 -0.515625 C 1.09375 -0.515625 1 -0.65625 1 -0.953125 C 1 -1.390625 1.203125 -2.265625 1.484375 -2.890625 C 1.625 -3.203125 2.046875 -3.75 2.515625 -3.75 C 2.78125 -3.75 2.9375 -3.703125 3.203125 -3.609375 Z M 3.203125 -3.609375 "/>
</symbol>
<symbol overflow="visible" id="glyph4-4">
<path style="stroke:none;" d="M 4.078125 -3.28125 C 4.078125 -3.609375 4.0625 -4.15625 3.625 -4.15625 C 3.015625 -4.15625 2 -3.328125 1.609375 -2.828125 L 2.359375 -6.234375 L 2.28125 -6.46875 C 2 -6.359375 1.515625 -6.203125 0.84375 -6.09375 L 0.828125 -5.921875 C 1.328125 -5.921875 1.640625 -6.046875 1.53125 -5.484375 L 0.640625 -0.921875 C 0.515625 -0.296875 0.828125 0.078125 1.71875 0.078125 C 2.171875 0.078125 2.34375 0 2.78125 -0.328125 C 3.59375 -0.890625 4.078125 -2.125 4.078125 -3.28125 Z M 3.453125 -3.015625 C 3.453125 -2.1875 3.03125 -1.265625 2.71875 -0.828125 C 2.46875 -0.5 2.234375 -0.28125 1.875 -0.28125 C 1.46875 -0.28125 1.234375 -0.53125 1.296875 -1.078125 C 1.375 -1.765625 1.515625 -2.421875 2 -2.953125 C 2.28125 -3.28125 2.78125 -3.640625 3.09375 -3.640625 C 3.328125 -3.640625 3.453125 -3.46875 3.453125 -3.015625 Z M 3.453125 -3.015625 "/>
</symbol>
</g>
<clipPath id="clip1">
  <path d="M 323 25 L 360.300781 25 L 360.300781 67 L 323 67 Z M 323 25 "/>
</clipPath>
</defs>
<g id="surface1">
<path style=" stroke:none;fill-rule:nonzero;fill:rgb(96.076965%,96.862793%,97.254944%);fill-opacity:1;" d="M 1.988281 92.414062 L 1.988281 5.054688 C 1.988281 3.40625 3.324219 2.074219 4.96875 2.074219 L 106.472656 2.074219 C 108.117188 2.074219 109.453125 3.40625 109.453125 5.054688 L 109.453125 92.414062 C 109.453125 94.0625 108.117188 95.398438 106.472656 95.398438 L 4.96875 95.398438 C 3.324219 95.398438 1.988281 94.0625 1.988281 92.414062 Z M 1.988281 92.414062 "/>
<g style="fill:rgb(27.450562%,27.450562%,27.450562%);fill-opacity:1;">
  <use xlink:href="#glyph0-1" x="30.66383" y="15.108679"/>
</g>
<g style="fill:rgb(27.450562%,27.450562%,27.450562%);fill-opacity:1;">
  <use xlink:href="#glyph0-2" x="35.780557" y="15.108679"/>
  <use xlink:href="#glyph0-3" x="40.566306" y="15.108679"/>
  <use xlink:href="#glyph0-4" x="43.741897" y="15.108679"/>
  <use xlink:href="#glyph0-5" x="48.304013" y="15.108679"/>
  <use xlink:href="#glyph0-6" x="52.096832" y="15.108679"/>
  <use xlink:href="#glyph0-7" x="55.138243" y="15.108679"/>
  <use xlink:href="#glyph0-4" x="59.601961" y="15.108679"/>
</g>
<g style="fill:rgb(27.450562%,27.450562%,27.450562%);fill-opacity:1;">
  <use xlink:href="#glyph0-8" x="64.10146" y="15.108679"/>
  <use xlink:href="#glyph0-6" x="67.429121" y="15.108679"/>
  <use xlink:href="#glyph0-2" x="70.470532" y="15.108679"/>
  <use xlink:href="#glyph0-9" x="75.256282" y="15.108679"/>
</g>
<path style="fill:none;stroke-width:1.59404;stroke-linecap:round;stroke-linejoin:round;stroke:rgb(69.018555%,20.783997%,41.96167%);stroke-opacity:1;stroke-miterlimit:10;" d="M 11.339086 28.348022 L 88.739577 28.348022 " transform="matrix(0.997652,0,0,-0.997652,1.98832,55.804896)"/>
<path style="fill-rule:nonzero;fill:rgb(69.018555%,20.783997%,41.96167%);fill-opacity:1;stroke-width:1.33937;stroke-linecap:round;stroke-linejoin:miter;stroke:rgb(69.018555%,20.783997%,41.96167%);stroke-opacity:1;stroke-miterlimit:10;" d="M 6.029566 0.00122194 L 2.161107 1.473429 L 3.46495 0.00122194 L 2.161107 -1.470985 Z M 6.029566 0.00122194 " transform="matrix(0.997652,0,0,-0.997652,87.394748,27.524657)"/>
<path style="fill-rule:nonzero;fill:rgb(95.661926%,88.909912%,91.874695%);fill-opacity:1;stroke-width:0.49814;stroke-linecap:round;stroke-linejoin:round;stroke:rgb(69.018555%,20.783997%,41.96167%);stroke-opacity:1;stroke-miterlimit:10;" d="M 60.094191 28.348022 C 60.094191 31.789697 57.30248 34.581408 53.856889 34.581408 C 50.415214 34.581408 47.623503 31.789697 47.623503 28.348022 C 47.623503 24.902431 50.415214 22.11072 53.856889 22.11072 C 57.30248 22.11072 60.094191 24.902431 60.094191 28.348022 Z M 60.094191 28.348022 " transform="matrix(0.997652,0,0,-0.997652,1.98832,55.804896)"/>
<path style="fill:none;stroke-width:1.29515;stroke-linecap:round;stroke-linejoin:round;stroke:rgb(69.018555%,20.783997%,41.96167%);stroke-opacity:1;stroke-miterlimit:10;" d="M 52.212403 28.348022 L 55.505291 28.348022 " transform="matrix(0.997652,0,0,-0.997652,1.98832,55.804896)"/>
<path style="fill-rule:nonzero;fill:rgb(69.018555%,20.783997%,41.96167%);fill-opacity:1;stroke-width:0.76535;stroke-linecap:round;stroke-linejoin:miter;stroke:rgb(69.018555%,20.783997%,41.96167%);stroke-opacity:1;stroke-miterlimit:10;" d="M 3.44436 -0.00122194 L 1.23605 0.840598 L 1.979984 -0.00122194 L 1.23605 -0.843042 Z M 3.44436 -0.00122194 " transform="matrix(-0.997652,0,0,0.997652,55.862053,27.524657)"/>
<path style="fill-rule:nonzero;fill:rgb(69.018555%,20.783997%,41.96167%);fill-opacity:1;stroke-width:0.76535;stroke-linecap:round;stroke-linejoin:miter;stroke:rgb(69.018555%,20.783997%,41.96167%);stroke-opacity:1;stroke-miterlimit:10;" d="M 3.444564 0.00122194 L 1.236253 0.843042 L 1.980188 0.00122194 L 1.236253 -0.840598 Z M 3.444564 0.00122194 " transform="matrix(0.997652,0,0,-0.997652,55.579149,27.524657)"/>
<g style="fill:rgb(27.450562%,27.450562%,27.450562%);fill-opacity:1;">
  <use xlink:href="#glyph1-1" x="36.801385" y="44.015644"/>
</g>
<g style="fill:rgb(27.450562%,27.450562%,27.450562%);fill-opacity:1;">
  <use xlink:href="#glyph2-1" x="38.688942" y="44.015644"/>
</g>
<g style="fill:rgb(27.450562%,27.450562%,27.450562%);fill-opacity:1;">
  <use xlink:href="#glyph1-2" x="43.564467" y="44.015644"/>
</g>
<g style="fill:rgb(27.450562%,27.450562%,27.450562%);fill-opacity:1;">
  <use xlink:href="#glyph3-1" x="46.981425" y="45.849328"/>
</g>
<g style="fill:rgb(27.450562%,27.450562%,27.450562%);fill-opacity:1;">
  <use xlink:href="#glyph2-2" x="53.756479" y="44.015644"/>
</g>
<g style="fill:rgb(27.450562%,27.450562%,27.450562%);fill-opacity:1;">
  <use xlink:href="#glyph1-1" x="61.604009" y="44.015644"/>
</g>
<g style="fill:rgb(27.450562%,27.450562%,27.450562%);fill-opacity:1;">
  <use xlink:href="#glyph4-1" x="63.491567" y="44.015644"/>
</g>
<g style="fill:rgb(27.450562%,27.450562%,27.450562%);fill-opacity:1;">
  <use xlink:href="#glyph1-2" x="71.220376" y="44.015644"/>
</g>
<path style="fill:none;stroke-width:1.59404;stroke-linecap:round;stroke-linejoin:round;stroke:rgb(69.018555%,20.783997%,41.96167%);stroke-opacity:1;stroke-miterlimit:10;" d="M 11.339086 -7.086744 L 88.739577 -7.086744 " transform="matrix(0.997652,0,0,-0.997652,1.98832,55.804896)"/>
<path style="fill-rule:nonzero;fill:rgb(69.018555%,20.783997%,41.96167%);fill-opacity:1;stroke-width:1.33937;stroke-linecap:round;stroke-linejoin:miter;stroke:rgb(69.018555%,20.783997%,41.96167%);stroke-opacity:1;stroke-miterlimit:10;" d="M 6.029566 -0.0000537353 L 2.161107 1.472153 L 3.46495 -0.0000537353 L 2.161107 -1.472261 Z M 6.029566 -0.0000537353 " transform="matrix(0.997652,0,0,-0.997652,87.394748,62.874946)"/>
<path style="fill-rule:nonzero;fill:rgb(95.661926%,88.909912%,91.874695%);fill-opacity:1;stroke-width:0.49814;stroke-linecap:round;stroke-linejoin:round;stroke:rgb(69.018555%,20.783997%,41.96167%);stroke-opacity:1;stroke-miterlimit:10;" d="M 60.094191 -7.086744 C 60.094191 -3.641153 57.30248 -0.849442 53.856889 -0.849442 C 50.415214 -0.849442 47.623503 -3.641153 47.623503 -7.086744 C 47.623503 -10.532334 50.415214 -13.324046 53.856889 -13.324046 C 57.30248 -13.324046 60.094191 -10.532334 60.094191 -7.086744 Z M 60.094191 -7.086744 " transform="matrix(0.997652,0,0,-0.997652,1.98832,55.804896)"/>
<path style="fill:none;stroke-width:1.29515;stroke-linecap:round;stroke-linejoin:round;stroke:rgb(69.018555%,20.783997%,41.96167%);stroke-opacity:1;stroke-miterlimit:10;" d="M 53.856889 -8.735146 L 53.856889 -5.438342 " transform="matrix(0.997652,0,0,-0.997652,1.98832,55.804896)"/>
<path style="fill-rule:nonzero;fill:rgb(69.018555%,20.783997%,41.96167%);fill-opacity:1;stroke-width:0.76535;stroke-linecap:round;stroke-linejoin:miter;stroke:rgb(69.018555%,20.783997%,41.96167%);stroke-opacity:1;stroke-miterlimit:10;" d="M 3.446478 -0.00186076 L 1.234253 0.83996 L 1.982102 -0.00186076 L 1.234253 -0.839766 Z M 3.446478 -0.00186076 " transform="matrix(0,0.997652,0.997652,0,55.720606,62.733489)"/>
<path style="fill-rule:nonzero;fill:rgb(69.018555%,20.783997%,41.96167%);fill-opacity:1;stroke-width:0.76535;stroke-linecap:round;stroke-linejoin:miter;stroke:rgb(69.018555%,20.783997%,41.96167%);stroke-opacity:1;stroke-miterlimit:10;" d="M 3.446361 0.00186076 L 1.234135 0.839766 L 1.981985 0.00186076 L 1.234135 -0.83996 Z M 3.446361 0.00186076 " transform="matrix(0,-0.997652,-0.997652,0,55.720606,63.016393)"/>
<g style="fill:rgb(27.450562%,27.450562%,27.450562%);fill-opacity:1;">
  <use xlink:href="#glyph1-1" x="37.00291" y="82.193788"/>
</g>
<g style="fill:rgb(27.450562%,27.450562%,27.450562%);fill-opacity:1;">
  <use xlink:href="#glyph2-3" x="38.890468" y="82.193788"/>
</g>
<g style="fill:rgb(27.450562%,27.450562%,27.450562%);fill-opacity:1;">
  <use xlink:href="#glyph1-2" x="43.765993" y="82.193788"/>
</g>
<g style="fill:rgb(27.450562%,27.450562%,27.450562%);fill-opacity:1;">
  <use xlink:href="#glyph3-1" x="47.182951" y="84.027472"/>
</g>
<g style="fill:rgb(27.450562%,27.450562%,27.450562%);fill-opacity:1;">
  <use xlink:href="#glyph2-2" x="53.958005" y="82.193788"/>
</g>
<g style="fill:rgb(27.450562%,27.450562%,27.450562%);fill-opacity:1;">
  <use xlink:href="#glyph1-1" x="61.805535" y="82.193788"/>
</g>
<g style="fill:rgb(27.450562%,27.450562%,27.450562%);fill-opacity:1;">
  <use xlink:href="#glyph4-2" x="63.692095" y="82.193788"/>
</g>
<g style="fill:rgb(27.450562%,27.450562%,27.450562%);fill-opacity:1;">
  <use xlink:href="#glyph1-2" x="71.018851" y="82.193788"/>
</g>
<path style=" stroke:none;fill-rule:nonzero;fill:rgb(96.076965%,96.862793%,97.254944%);fill-opacity:1;" d="M 126.421875 92.414062 L 126.421875 5.054688 C 126.421875 3.40625 127.757812 2.074219 129.402344 2.074219 L 230.90625 2.074219 C 232.550781 2.074219 233.886719 3.40625 233.886719 5.054688 L 233.886719 92.414062 C 233.886719 94.0625 232.550781 95.398438 230.90625 95.398438 L 129.402344 95.398438 C 127.757812 95.398438 126.421875 94.0625 126.421875 92.414062 Z M 126.421875 92.414062 "/>
<g style="fill:rgb(27.450562%,27.450562%,27.450562%);fill-opacity:1;">
  <use xlink:href="#glyph0-1" x="148.538401" y="14.310557"/>
</g>
<g style="fill:rgb(27.450562%,27.450562%,27.450562%);fill-opacity:1;">
  <use xlink:href="#glyph0-4" x="153.619346" y="14.310557"/>
</g>
<g style="fill:rgb(27.450562%,27.450562%,27.450562%);fill-opacity:1;">
  <use xlink:href="#glyph0-8" x="158.118846" y="14.310557"/>
  <use xlink:href="#glyph0-10" x="161.446507" y="14.310557"/>
</g>
<g style="fill:rgb(27.450562%,27.450562%,27.450562%);fill-opacity:1;">
  <use xlink:href="#glyph0-11" x="169.085816" y="14.310557"/>
  <use xlink:href="#glyph0-12" x="172.807071" y="14.310557"/>
</g>
<g style="fill:rgb(27.450562%,27.450562%,27.450562%);fill-opacity:1;">
  <use xlink:href="#glyph0-13" x="178.147431" y="14.310557"/>
  <use xlink:href="#glyph0-4" x="183.630916" y="14.310557"/>
  <use xlink:href="#glyph0-3" x="188.193033" y="14.310557"/>
</g>
<g style="fill:rgb(27.450562%,27.450562%,27.450562%);fill-opacity:1;">
  <use xlink:href="#glyph0-5" x="193.506557" y="14.310557"/>
</g>
<g style="fill:rgb(27.450562%,27.450562%,27.450562%);fill-opacity:1;">
  <use xlink:href="#glyph0-4" x="197.263594" y="14.310557"/>
  <use xlink:href="#glyph0-6" x="201.82571" y="14.310557"/>
  <use xlink:href="#glyph0-3" x="204.867121" y="14.310557"/>
  <use xlink:href="#glyph0-14" x="208.042712" y="14.310557"/>
</g>
<path style="fill-rule:nonzero;fill:rgb(81.176758%,87.057495%,88.627625%);fill-opacity:1;stroke-width:0.49814;stroke-linecap:round;stroke-linejoin:round;stroke:rgb(38.822937%,57.939148%,63.038635%);stroke-opacity:1;stroke-miterlimit:10;" d="M 136.065546 23.931401 L 136.065546 24.260299 C 136.065546 25.027726 136.688101 25.654197 137.459444 25.654197 L 216.876389 25.654197 C 217.647731 25.654197 218.270287 25.027726 218.270287 24.260299 L 218.270287 23.931401 C 218.270287 23.160059 217.647731 22.537503 216.876389 22.537503 L 137.459444 22.537503 C 136.688101 22.537503 136.065546 23.160059 136.065546 23.931401 Z M 136.065546 23.931401 " transform="matrix(0.997652,0,0,-0.997652,1.98832,55.804896)"/>
<path style="fill-rule:nonzero;fill:rgb(81.176758%,87.057495%,88.627625%);fill-opacity:1;stroke-width:0.49814;stroke-linecap:round;stroke-linejoin:round;stroke:rgb(38.822937%,57.939148%,63.038635%);stroke-opacity:1;stroke-miterlimit:10;" d="M 136.065546 -7.251192 L 136.065546 -6.922295 C 136.065546 -6.150953 136.688101 -5.528397 137.459444 -5.528397 L 216.876389 -5.528397 C 217.647731 -5.528397 218.270287 -6.150953 218.270287 -6.922295 L 218.270287 -7.251192 C 218.270287 -8.022535 217.647731 -8.64509 216.876389 -8.64509 L 137.459444 -8.64509 C 136.688101 -8.64509 136.065546 -8.022535 136.065546 -7.251192 Z M 136.065546 -7.251192 " transform="matrix(0.997652,0,0,-0.997652,1.98832,55.804896)"/>
<g style="fill:rgb(27.450562%,27.450562%,27.450562%);fill-opacity:1;">
  <use xlink:href="#glyph4-3" x="130.453965" y="33.780732"/>
</g>
<g style="fill:rgb(27.450562%,27.450562%,27.450562%);fill-opacity:1;">
  <use xlink:href="#glyph4-4" x="130.32826" y="66.047789"/>
</g>
<path style=" stroke:none;fill-rule:nonzero;fill:rgb(93.183899%,82.572937%,87.229919%);fill-opacity:1;" d="M 158.378906 29.761719 L 159.132812 29.726562 L 159.886719 29.644531 L 160.640625 29.488281 L 161.394531 29.199219 L 162.148438 28.726562 L 162.902344 28.015625 L 163.65625 27.050781 L 164.410156 25.878906 L 165.164062 24.636719 L 165.917969 23.511719 L 166.671875 22.714844 L 167.425781 22.433594 L 168.179688 22.714844 L 168.933594 23.5 L 169.6875 24.625 L 170.441406 25.871094 L 171.195312 27.042969 L 171.949219 28.007812 L 172.699219 28.722656 L 173.453125 29.199219 L 174.207031 29.484375 L 174.960938 29.644531 L 175.714844 29.726562 L 176.46875 29.761719 Z M 158.378906 29.761719 "/>
<path style="fill:none;stroke-width:0.99628;stroke-linecap:round;stroke-linejoin:round;stroke:rgb(69.018555%,20.783997%,41.96167%);stroke-opacity:1;stroke-miterlimit:10;" d="M 156.758666 26.104473 L 157.514346 26.139712 L 158.270027 26.221936 L 159.025708 26.378554 L 159.781388 26.668297 L 160.537069 27.142065 L 161.29275 27.854676 L 162.04843 28.821791 L 162.804111 29.996424 L 163.559791 31.241535 L 164.315472 32.369183 L 165.071153 33.167933 L 165.826833 33.449845 L 166.582514 33.167933 L 167.338195 32.380929 L 168.093875 31.253281 L 168.849556 30.004255 L 169.605237 28.829622 L 170.360917 27.862507 L 171.112682 27.145981 L 171.868363 26.668297 L 172.624044 26.382469 L 173.379724 26.221936 L 174.135405 26.139712 L 174.891086 26.104473 " transform="matrix(0.997652,0,0,-0.997652,1.98832,55.804896)"/>
<path style="fill:none;stroke-width:0.49814;stroke-linecap:round;stroke-linejoin:round;stroke:rgb(81.411743%,52.468872%,65.174866%);stroke-opacity:1;stroke-miterlimit:10;" d="M 156.758666 26.077065 L 174.898916 26.077065 " transform="matrix(0.997652,0,0,-0.997652,1.98832,55.804896)"/>
<path style=" stroke:none;fill-rule:nonzero;fill:rgb(97.953796%,94.770813%,96.168518%);fill-opacity:1;" d="M 183.832031 60.871094 L 184.585938 60.832031 L 185.335938 60.753906 L 186.089844 60.597656 L 186.84375 60.308594 L 187.597656 59.835938 L 188.351562 59.125 L 189.105469 58.160156 L 189.859375 56.988281 L 190.613281 55.746094 L 191.367188 54.617188 L 192.121094 53.824219 L 192.875 53.542969 L 193.628906 53.824219 L 194.382812 54.609375 L 195.136719 55.730469 L 195.890625 56.980469 L 196.644531 58.148438 L 197.398438 59.113281 L 198.152344 59.828125 L 198.90625 60.304688 L 199.660156 60.59375 L 200.414062 60.753906 L 201.167969 60.832031 L 201.921875 60.871094 Z M 183.832031 60.871094 "/>
<path style="fill:none;stroke-width:0.99628;stroke-linecap:round;stroke-linejoin:round;stroke:rgb(90.705872%,76.235962%,82.58667%);stroke-opacity:1;stroke-miterlimit:10;" d="M 182.271697 -5.078121 L 183.027378 -5.038967 L 183.779143 -4.960658 L 184.534823 -4.80404 L 185.290504 -4.514297 L 186.046185 -4.040529 L 186.801865 -3.327918 L 187.557546 -2.360803 L 188.313227 -1.18617 L 189.068907 0.0589411 L 189.824588 1.190504 L 190.580269 1.985339 L 191.335949 2.267251 L 192.09163 1.985339 L 192.84731 1.198335 L 193.602991 0.0746028 L 194.358672 -1.178339 L 195.114352 -2.349057 L 195.870033 -3.316171 L 196.625714 -4.032698 L 197.381394 -4.510382 L 198.137075 -4.800125 L 198.892756 -4.960658 L 199.648436 -5.038967 L 200.404117 -5.078121 " transform="matrix(0.997652,0,0,-0.997652,1.98832,55.804896)"/>
<path style="fill:none;stroke-width:0.49814;stroke-linecap:round;stroke-linejoin:round;stroke:rgb(94.422913%,85.740662%,89.550781%);stroke-opacity:1;stroke-miterlimit:10;" d="M 182.271697 -5.101614 L 200.411948 -5.101614 " transform="matrix(0.997652,0,0,-0.997652,1.98832,55.804896)"/>
<g style="fill:rgb(27.450562%,27.450562%,27.450562%);fill-opacity:1;">
  <use xlink:href="#glyph1-1" x="153.273257" y="78.067499"/>
</g>
<g style="fill:rgb(27.450562%,27.450562%,27.450562%);fill-opacity:1;">
  <use xlink:href="#glyph2-1" x="155.160815" y="78.067499"/>
</g>
<g style="fill:rgb(27.450562%,27.450562%,27.450562%);fill-opacity:1;">
  <use xlink:href="#glyph1-2" x="160.03634" y="78.067499"/>
</g>
<g style="fill:rgb(27.450562%,27.450562%,27.450562%);fill-opacity:1;">
  <use xlink:href="#glyph3-1" x="163.453298" y="79.901184"/>
</g>
<g style="fill:rgb(27.450562%,27.450562%,27.450562%);fill-opacity:1;">
  <use xlink:href="#glyph2-2" x="170.228352" y="78.067499"/>
</g>
<g style="fill:rgb(27.450562%,27.450562%,27.450562%);fill-opacity:1;">
  <use xlink:href="#glyph1-1" x="178.075882" y="78.067499"/>
</g>
<g style="fill:rgb(27.450562%,27.450562%,27.450562%);fill-opacity:1;">
  <use xlink:href="#glyph2-3" x="179.963439" y="78.067499"/>
</g>
<g style="fill:rgb(27.450562%,27.450562%,27.450562%);fill-opacity:1;">
  <use xlink:href="#glyph1-2" x="184.837967" y="78.067499"/>
</g>
<g style="fill:rgb(27.450562%,27.450562%,27.450562%);fill-opacity:1;">
  <use xlink:href="#glyph3-2" x="188.254925" y="79.901184"/>
</g>
<g style="fill:rgb(27.450562%,27.450562%,27.450562%);fill-opacity:1;">
  <use xlink:href="#glyph1-1" x="192.44606" y="78.067499"/>
</g>
<g style="fill:rgb(27.450562%,27.450562%,27.450562%);fill-opacity:1;">
  <use xlink:href="#glyph2-1" x="194.333618" y="78.067499"/>
</g>
<g style="fill:rgb(27.450562%,27.450562%,27.450562%);fill-opacity:1;">
  <use xlink:href="#glyph1-2" x="199.209143" y="78.067499"/>
</g>
<g style="fill:rgb(27.450562%,27.450562%,27.450562%);fill-opacity:1;">
  <use xlink:href="#glyph3-3" x="202.626101" y="80.047838"/>
</g>
<g style="fill:rgb(27.450562%,27.450562%,27.450562%);fill-opacity:1;">
  <use xlink:href="#glyph1-1" x="153.273257" y="88.999769"/>
</g>
<g style="fill:rgb(27.450562%,27.450562%,27.450562%);fill-opacity:1;">
  <use xlink:href="#glyph2-3" x="155.160815" y="88.999769"/>
</g>
<g style="fill:rgb(27.450562%,27.450562%,27.450562%);fill-opacity:1;">
  <use xlink:href="#glyph1-2" x="160.03634" y="88.999769"/>
</g>
<g style="fill:rgb(27.450562%,27.450562%,27.450562%);fill-opacity:1;">
  <use xlink:href="#glyph3-1" x="163.453298" y="90.834451"/>
</g>
<g style="fill:rgb(27.450562%,27.450562%,27.450562%);fill-opacity:1;">
  <use xlink:href="#glyph2-2" x="170.228352" y="88.999769"/>
</g>
<g style="fill:rgb(27.450562%,27.450562%,27.450562%);fill-opacity:1;">
  <use xlink:href="#glyph1-1" x="178.075882" y="88.999769"/>
</g>
<g style="fill:rgb(27.450562%,27.450562%,27.450562%);fill-opacity:1;">
  <use xlink:href="#glyph2-1" x="179.963439" y="88.999769"/>
</g>
<g style="fill:rgb(27.450562%,27.450562%,27.450562%);fill-opacity:1;">
  <use xlink:href="#glyph1-2" x="184.837967" y="88.999769"/>
</g>
<g style="fill:rgb(27.450562%,27.450562%,27.450562%);fill-opacity:1;">
  <use xlink:href="#glyph3-2" x="188.254925" y="90.834451"/>
</g>
<g style="fill:rgb(27.450562%,27.450562%,27.450562%);fill-opacity:1;">
  <use xlink:href="#glyph1-1" x="192.44606" y="88.999769"/>
</g>
<g style="fill:rgb(27.450562%,27.450562%,27.450562%);fill-opacity:1;">
  <use xlink:href="#glyph2-3" x="194.333618" y="88.999769"/>
</g>
<g style="fill:rgb(27.450562%,27.450562%,27.450562%);fill-opacity:1;">
  <use xlink:href="#glyph1-2" x="199.209143" y="88.999769"/>
</g>
<g style="fill:rgb(27.450562%,27.450562%,27.450562%);fill-opacity:1;">
  <use xlink:href="#glyph3-3" x="202.626101" y="90.981106"/>
</g>
<path style=" stroke:none;fill-rule:nonzero;fill:rgb(96.076965%,96.862793%,97.254944%);fill-opacity:1;" d="M 250.855469 92.414062 L 250.855469 5.054688 C 250.855469 3.40625 252.191406 2.074219 253.835938 2.074219 L 355.335938 2.074219 C 356.984375 2.074219 358.320312 3.40625 358.320312 5.054688 L 358.320312 92.414062 C 358.320312 94.0625 356.984375 95.398438 355.335938 95.398438 L 253.835938 95.398438 C 252.191406 95.398438 250.855469 94.0625 250.855469 92.414062 Z M 250.855469 92.414062 "/>
<g style="fill:rgb(27.450562%,27.450562%,27.450562%);fill-opacity:1;">
  <use xlink:href="#glyph0-15" x="285.88215" y="15.108679"/>
</g>
<g style="fill:rgb(27.450562%,27.450562%,27.450562%);fill-opacity:1;">
  <use xlink:href="#glyph0-6" x="291.687667" y="15.108679"/>
  <use xlink:href="#glyph0-16" x="294.729078" y="15.108679"/>
  <use xlink:href="#glyph0-17" x="302.708309" y="15.108679"/>
</g>
<g style="fill:rgb(27.450562%,27.450562%,27.450562%);fill-opacity:1;">
  <use xlink:href="#glyph0-18" x="309.301014" y="15.108679"/>
  <use xlink:href="#glyph0-6" x="314.721882" y="15.108679"/>
  <use xlink:href="#glyph0-9" x="317.763293" y="15.108679"/>
</g>
<path style="fill:none;stroke-width:1.59404;stroke-linecap:round;stroke-linejoin:round;stroke:rgb(69.018555%,20.783997%,41.96167%);stroke-opacity:1;stroke-miterlimit:10;" d="M 259.374615 9.921944 L 342.440753 9.921944 " transform="matrix(0.997652,0,0,-0.997652,1.98832,55.804896)"/>
<path style=" stroke:none;fill-rule:nonzero;fill:rgb(69.018555%,20.783997%,41.96167%);fill-opacity:1;" d="M 346.519531 45.90625 L 342.660156 44.4375 L 343.960938 45.90625 L 342.660156 47.375 Z M 346.519531 45.90625 "/>
<g clip-path="url(#clip1)" clip-rule="nonzero">
<path style="fill:none;stroke-width:1.33937;stroke-linecap:round;stroke-linejoin:miter;stroke:rgb(69.018555%,20.783997%,41.96167%);stroke-opacity:1;stroke-miterlimit:10;" d="M 6.030817 0.000393791 L 2.162359 1.472601 L 3.466201 0.000393791 L 2.162359 -1.471813 Z M 6.030817 0.000393791 " transform="matrix(0.997652,0,0,-0.997652,340.502875,45.906643)"/>
</g>
<path style="fill:none;stroke-width:0.3985;stroke-linecap:round;stroke-linejoin:round;stroke:rgb(74.607849%,74.607849%,74.607849%);stroke-opacity:1;stroke-dasharray:2.98883,2.98883;stroke-miterlimit:10;" d="M 310.396762 0.57578 L 310.396762 22.102889 C 310.396762 23.203129 311.289483 24.09585 312.389723 24.09585 L 331.082051 24.09585 C 332.182291 24.09585 333.075012 23.203129 333.075012 22.102889 L 333.075012 0.57578 C 333.075012 -0.52446 332.182291 -1.417181 331.082051 -1.417181 L 312.389723 -1.417181 C 311.289483 -1.417181 310.396762 -0.52446 310.396762 0.57578 Z M 310.396762 0.57578 " transform="matrix(0.997652,0,0,-0.997652,1.98832,55.804896)"/>
<path style="fill:none;stroke-width:0.3985;stroke-linecap:round;stroke-linejoin:round;stroke:rgb(74.607849%,74.607849%,74.607849%);stroke-opacity:1;stroke-dasharray:2.98883,2.98883;stroke-miterlimit:10;" d="M 273.548521 0.57578 L 273.548521 22.102889 C 273.548521 23.203129 274.437327 24.09585 275.537566 24.09585 L 294.229895 24.09585 C 295.330134 24.09585 296.222856 23.203129 296.222856 22.102889 L 296.222856 0.57578 C 296.222856 -0.52446 295.330134 -1.417181 294.229895 -1.417181 L 275.537566 -1.417181 C 274.437327 -1.417181 273.548521 -0.52446 273.548521 0.57578 Z M 273.548521 0.57578 " transform="matrix(0.997652,0,0,-0.997652,1.98832,55.804896)"/>
<path style=" stroke:none;fill-rule:nonzero;fill:rgb(93.183899%,82.572937%,87.229919%);fill-opacity:1;" d="M 313.917969 43.902344 L 314.671875 43.867188 L 315.425781 43.785156 L 316.179688 43.628906 L 316.933594 43.339844 L 317.6875 42.867188 L 318.441406 42.15625 L 319.195312 41.191406 L 319.949219 40.019531 L 320.703125 38.777344 L 321.457031 37.652344 L 322.210938 36.855469 L 322.964844 36.574219 L 323.71875 36.855469 L 324.472656 37.640625 L 325.226562 38.761719 L 325.980469 40.011719 L 326.734375 41.179688 L 327.488281 42.148438 L 328.242188 42.863281 L 328.996094 43.339844 L 329.75 43.625 L 330.503906 43.785156 L 331.257812 43.863281 L 332.011719 43.902344 Z M 313.917969 43.902344 "/>
<path style="fill:none;stroke-width:0.99628;stroke-linecap:round;stroke-linejoin:round;stroke:rgb(69.018555%,20.783997%,41.96167%);stroke-opacity:1;stroke-miterlimit:10;" d="M 312.663804 11.930566 L 313.419484 11.965805 L 314.175165 12.04803 L 314.930846 12.204647 L 315.686526 12.49439 L 316.442207 12.968159 L 317.197888 13.68077 L 317.953568 14.647884 L 318.709249 15.822517 L 319.46493 17.067629 L 320.22061 18.195276 L 320.976291 18.994027 L 321.731971 19.275939 L 322.487652 18.994027 L 323.243333 18.207023 L 323.999013 17.08329 L 324.754694 15.830348 L 325.510375 14.659631 L 326.266055 13.688601 L 327.021736 12.972074 L 327.777417 12.49439 L 328.533097 12.208563 L 329.288778 12.04803 L 330.044458 11.969721 L 330.800139 11.930566 " transform="matrix(0.997652,0,0,-0.997652,1.98832,55.804896)"/>
<path style="fill:none;stroke-width:0.49814;stroke-linecap:round;stroke-linejoin:round;stroke:rgb(81.411743%,52.468872%,65.174866%);stroke-opacity:1;stroke-miterlimit:10;" d="M 312.663804 11.907074 L 330.80797 11.907074 " transform="matrix(0.997652,0,0,-0.997652,1.98832,55.804896)"/>
<path style=" stroke:none;fill-rule:nonzero;fill:rgb(97.953796%,94.770813%,96.168518%);fill-opacity:1;" d="M 277.15625 43.902344 L 277.910156 43.867188 L 278.664062 43.785156 L 279.417969 43.628906 L 280.171875 43.339844 L 280.925781 42.867188 L 281.679688 42.15625 L 282.433594 41.191406 L 283.1875 40.019531 L 283.941406 38.777344 L 284.695312 37.652344 L 285.449219 36.855469 L 286.203125 36.574219 L 286.957031 36.855469 L 287.710938 37.640625 L 288.464844 38.761719 L 289.21875 40.011719 L 289.972656 41.179688 L 290.726562 42.148438 L 291.476562 42.863281 L 292.230469 43.339844 L 292.984375 43.625 L 293.738281 43.785156 L 294.492188 43.863281 L 295.246094 43.902344 Z M 277.15625 43.902344 "/>
<path style="fill:none;stroke-width:0.99628;stroke-linecap:round;stroke-linejoin:round;stroke:rgb(90.705872%,76.235962%,82.58667%);stroke-opacity:1;stroke-miterlimit:10;" d="M 275.815563 11.930566 L 276.571244 11.965805 L 277.326924 12.04803 L 278.082605 12.204647 L 278.838285 12.49439 L 279.593966 12.968159 L 280.349647 13.68077 L 281.105327 14.647884 L 281.861008 15.822517 L 282.616689 17.067629 L 283.372369 18.195276 L 284.12805 18.994027 L 284.883731 19.275939 L 285.639411 18.994027 L 286.395092 18.207023 L 287.150772 17.08329 L 287.906453 15.830348 L 288.662134 14.659631 L 289.417814 13.688601 L 290.16958 12.972074 L 290.92526 12.49439 L 291.680941 12.208563 L 292.436622 12.04803 L 293.192302 11.969721 L 293.947983 11.930566 " transform="matrix(0.997652,0,0,-0.997652,1.98832,55.804896)"/>
<path style="fill:none;stroke-width:0.49814;stroke-linecap:round;stroke-linejoin:round;stroke:rgb(94.422913%,85.740662%,89.550781%);stroke-opacity:1;stroke-miterlimit:10;" d="M 275.815563 11.907074 L 293.955814 11.907074 " transform="matrix(0.997652,0,0,-0.997652,1.98832,55.804896)"/>
<g style="fill:rgb(27.450562%,27.450562%,27.450562%);fill-opacity:1;">
  <use xlink:href="#glyph2-4" x="313.160947" y="66.916744"/>
  <use xlink:href="#glyph2-5" x="317.401031" y="66.916744"/>
  <use xlink:href="#glyph2-6" x="321.811077" y="66.916744"/>
</g>
<g style="fill:rgb(27.450562%,27.450562%,27.450562%);fill-opacity:1;">
  <use xlink:href="#glyph2-7" x="325.3087" y="66.916744"/>
</g>
<g style="fill:rgb(27.450562%,27.450562%,27.450562%);fill-opacity:1;">
  <use xlink:href="#glyph2-8" x="328.06386" y="66.916744"/>
</g>
<g style="fill:rgb(27.450562%,27.450562%,27.450562%);fill-opacity:1;">
  <use xlink:href="#glyph2-7" x="278.919537" y="67.963281"/>
  <use xlink:href="#glyph2-5" x="281.74626" y="67.963281"/>
</g>
<g style="fill:rgb(27.450562%,27.450562%,27.450562%);fill-opacity:1;">
  <use xlink:href="#glyph2-9" x="286.093689" y="67.963281"/>
  <use xlink:href="#glyph2-4" x="289.242444" y="67.963281"/>
</g>
<g style="fill:rgb(27.450562%,27.450562%,27.450562%);fill-opacity:1;">
  <use xlink:href="#glyph1-1" x="259.303705" y="83.443846"/>
</g>
<g style="fill:rgb(27.450562%,27.450562%,27.450562%);fill-opacity:1;">
  <use xlink:href="#glyph2-1" x="261.191262" y="83.443846"/>
</g>
<g style="fill:rgb(27.450562%,27.450562%,27.450562%);fill-opacity:1;">
  <use xlink:href="#glyph1-2" x="266.06579" y="83.443846"/>
</g>
<g style="fill:rgb(27.450562%,27.450562%,27.450562%);fill-opacity:1;">
  <use xlink:href="#glyph3-1" x="269.482747" y="85.27753"/>
</g>
<g style="fill:rgb(27.450562%,27.450562%,27.450562%);fill-opacity:1;">
  <use xlink:href="#glyph2-2" x="276.258799" y="83.443846"/>
</g>
<g style="fill:rgb(27.450562%,27.450562%,27.450562%);fill-opacity:1;">
  <use xlink:href="#glyph2-4" x="284.399046" y="83.443846"/>
  <use xlink:href="#glyph2-5" x="288.639131" y="83.443846"/>
  <use xlink:href="#glyph2-6" x="293.049177" y="83.443846"/>
</g>
<g style="fill:rgb(27.450562%,27.450562%,27.450562%);fill-opacity:1;">
  <use xlink:href="#glyph2-7" x="296.546799" y="83.443846"/>
</g>
<g style="fill:rgb(27.450562%,27.450562%,27.450562%);fill-opacity:1;">
  <use xlink:href="#glyph2-8" x="299.30196" y="83.443846"/>
</g>
<g style="fill:rgb(27.450562%,27.450562%,27.450562%);fill-opacity:1;">
  <use xlink:href="#glyph2-10" x="303.112669" y="83.443846"/>
</g>
<g style="fill:rgb(27.450562%,27.450562%,27.450562%);fill-opacity:1;">
  <use xlink:href="#glyph1-1" x="310.202909" y="83.443846"/>
</g>
<g style="fill:rgb(27.450562%,27.450562%,27.450562%);fill-opacity:1;">
  <use xlink:href="#glyph2-3" x="312.090466" y="83.443846"/>
</g>
<g style="fill:rgb(27.450562%,27.450562%,27.450562%);fill-opacity:1;">
  <use xlink:href="#glyph1-2" x="316.965991" y="83.443846"/>
</g>
<g style="fill:rgb(27.450562%,27.450562%,27.450562%);fill-opacity:1;">
  <use xlink:href="#glyph3-1" x="320.382949" y="85.27753"/>
</g>
<g style="fill:rgb(27.450562%,27.450562%,27.450562%);fill-opacity:1;">
  <use xlink:href="#glyph2-2" x="327.158003" y="83.443846"/>
</g>
<g style="fill:rgb(27.450562%,27.450562%,27.450562%);fill-opacity:1;">
  <use xlink:href="#glyph2-7" x="335.29825" y="83.443846"/>
  <use xlink:href="#glyph2-5" x="338.124973" y="83.443846"/>
</g>
<g style="fill:rgb(27.450562%,27.450562%,27.450562%);fill-opacity:1;">
  <use xlink:href="#glyph2-9" x="342.472402" y="83.443846"/>
  <use xlink:href="#glyph2-4" x="345.621157" y="83.443846"/>
</g>
<g style="fill:rgb(27.450562%,27.450562%,27.450562%);fill-opacity:1;">
  <use xlink:href="#glyph2-11" x="48.534769" y="110.184908"/>
</g>
<g style="fill:rgb(27.450562%,27.450562%,27.450562%);fill-opacity:1;">
  <use xlink:href="#glyph2-5" x="51.647742" y="110.184908"/>
  <use xlink:href="#glyph2-12" x="56.057788" y="110.184908"/>
  <use xlink:href="#glyph2-4" x="61.371312" y="110.184908"/>
  <use xlink:href="#glyph2-12" x="65.611397" y="110.184908"/>
</g>
<g style="fill:rgb(27.450562%,27.450562%,27.450562%);fill-opacity:1;">
  <use xlink:href="#glyph2-13" x="73.205979" y="110.184908"/>
  <use xlink:href="#glyph2-14" x="78.564229" y="110.184908"/>
  <use xlink:href="#glyph2-7" x="83.895644" y="110.184908"/>
  <use xlink:href="#glyph2-15" x="86.722367" y="110.184908"/>
  <use xlink:href="#glyph2-4" x="90.425732" y="110.184908"/>
</g>
<g style="fill:rgb(27.450562%,27.450562%,27.450562%);fill-opacity:1;">
  <use xlink:href="#glyph2-2" x="96.93793" y="110.184908"/>
</g>
<g style="fill:rgb(27.450562%,27.450562%,27.450562%);fill-opacity:1;">
  <use xlink:href="#glyph2-16" x="105.078177" y="110.184908"/>
  <use xlink:href="#glyph2-17" x="112.064477" y="110.184908"/>
  <use xlink:href="#glyph2-4" x="117.270657" y="110.184908"/>
  <use xlink:href="#glyph2-6" x="121.510741" y="110.184908"/>
  <use xlink:href="#glyph2-4" x="125.142544" y="110.184908"/>
</g>
<g style="fill:rgb(27.450562%,27.450562%,27.450562%);fill-opacity:1;">
  <use xlink:href="#glyph2-9" x="131.663687" y="110.184908"/>
  <use xlink:href="#glyph2-17" x="134.812442" y="110.184908"/>
  <use xlink:href="#glyph2-4" x="140.018621" y="110.184908"/>
</g>
<g style="fill:rgb(27.450562%,27.450562%,27.450562%);fill-opacity:1;">
  <use xlink:href="#glyph2-13" x="146.539764" y="110.184908"/>
  <use xlink:href="#glyph2-17" x="151.898015" y="110.184908"/>
  <use xlink:href="#glyph2-18" x="157.104195" y="110.184908"/>
  <use xlink:href="#glyph2-9" x="161.809436" y="110.184908"/>
  <use xlink:href="#glyph2-18" x="164.958191" y="110.184908"/>
  <use xlink:href="#glyph2-19" x="169.663433" y="110.184908"/>
</g>
<g style="fill:rgb(27.450562%,27.450562%,27.450562%);fill-opacity:1;">
  <use xlink:href="#glyph2-16" x="177.213288" y="110.184908"/>
</g>
<g style="fill:rgb(27.450562%,27.450562%,27.450562%);fill-opacity:1;">
  <use xlink:href="#glyph2-18" x="184.145916" y="110.184908"/>
  <use xlink:href="#glyph2-14" x="188.851158" y="110.184908"/>
  <use xlink:href="#glyph2-7" x="194.182572" y="110.184908"/>
</g>
<g style="fill:rgb(27.450562%,27.450562%,27.450562%);fill-opacity:1;">
  <use xlink:href="#glyph2-12" x="196.910897" y="110.184908"/>
</g>
<g style="fill:rgb(27.450562%,27.450562%,27.450562%);fill-opacity:1;">
  <use xlink:href="#glyph2-15" x="204.496534" y="110.184908"/>
  <use xlink:href="#glyph2-20" x="208.199899" y="110.184908"/>
  <use xlink:href="#glyph2-9" x="210.910333" y="110.184908"/>
</g>
<g style="fill:rgb(27.450562%,27.450562%,27.450562%);fill-opacity:1;">
  <use xlink:href="#glyph2-20" x="216.340146" y="110.184908"/>
  <use xlink:href="#glyph2-19" x="219.05058" y="110.184908"/>
</g>
<g style="fill:rgb(27.450562%,27.450562%,27.450562%);fill-opacity:1;">
  <use xlink:href="#glyph2-9" x="226.600435" y="110.184908"/>
  <use xlink:href="#glyph2-17" x="229.74919" y="110.184908"/>
  <use xlink:href="#glyph2-4" x="234.95537" y="110.184908"/>
</g>
<g style="fill:rgb(27.450562%,27.450562%,27.450562%);fill-opacity:1;">
  <use xlink:href="#glyph2-18" x="241.476513" y="110.184908"/>
  <use xlink:href="#glyph2-9" x="246.181755" y="110.184908"/>
  <use xlink:href="#glyph2-17" x="249.330509" y="110.184908"/>
  <use xlink:href="#glyph2-4" x="254.536689" y="110.184908"/>
  <use xlink:href="#glyph2-6" x="258.776774" y="110.184908"/>
</g>
<g style="fill:rgb(27.450562%,27.450562%,27.450562%);fill-opacity:1;">
  <use xlink:href="#glyph2-7" x="264.689635" y="110.184908"/>
</g>
<g style="fill:rgb(27.450562%,27.450562%,27.450562%);fill-opacity:1;">
  <use xlink:href="#glyph2-18" x="267.426905" y="110.184908"/>
  <use xlink:href="#glyph2-21" x="272.132146" y="110.184908"/>
  <use xlink:href="#glyph2-20" x="276.882115" y="110.184908"/>
  <use xlink:href="#glyph2-22" x="279.592548" y="110.184908"/>
  <use xlink:href="#glyph2-5" x="283.662672" y="110.184908"/>
  <use xlink:href="#glyph2-7" x="288.072718" y="110.184908"/>
</g>
<g style="fill:rgb(27.450562%,27.450562%,27.450562%);fill-opacity:1;">
  <use xlink:href="#glyph2-15" x="293.171554" y="110.184908"/>
  <use xlink:href="#glyph2-9" x="296.874919" y="110.184908"/>
  <use xlink:href="#glyph2-5" x="300.023674" y="110.184908"/>
</g>
<g style="fill:rgb(27.450562%,27.450562%,27.450562%);fill-opacity:1;">
  <use xlink:href="#glyph2-9" x="304.380048" y="110.184908"/>
  <use xlink:href="#glyph2-4" x="307.528803" y="110.184908"/>
</g>
</g>
</svg>
