<?xml version="1.0" encoding="UTF-8"?>
<svg xmlns="http://www.w3.org/2000/svg" xmlns:xlink="http://www.w3.org/1999/xlink" width="317.657pt" height="176.148pt" viewBox="0 0 317.657 176.148" version="1.2">
<defs>
<g>
<symbol overflow="visible" id="glyph0-0">
<path style="stroke:none;" d=""/>
</symbol>
<symbol overflow="visible" id="glyph0-1">
<path style="stroke:none;" d="M 6.25 0.015625 L 6.25 -0.21875 C 5.578125 -0.28125 5.546875 -0.515625 5.296875 -1.125 L 3.328125 -6.09375 L 3.078125 -6.046875 L 0.953125 -0.90625 C 0.71875 -0.359375 0.640625 -0.28125 0.078125 -0.21875 L 0.078125 0.015625 C 0.734375 -0.015625 1.390625 -0.015625 2.046875 0.015625 L 2.046875 -0.21875 C 1.84375 -0.234375 1.34375 -0.203125 1.34375 -0.515625 C 1.34375 -0.8125 1.75 -1.796875 1.875 -2.125 L 4.078125 -2.125 C 4.1875 -1.859375 4.671875 -0.671875 4.671875 -0.46875 C 4.671875 -0.21875 4.15625 -0.234375 3.984375 -0.21875 L 3.984375 0.015625 C 4.75 -0.015625 5.5 -0.015625 6.25 0.015625 Z M 3.9375 -2.46875 L 2.015625 -2.46875 L 2.96875 -4.890625 L 2.984375 -4.890625 Z M 3.9375 -2.46875 "/>
</symbol>
<symbol overflow="visible" id="glyph0-2">
<path style="stroke:none;" d="M 2.375 0.015625 L 2.375 -0.21875 C 1.78125 -0.28125 1.671875 -0.203125 1.671875 -0.859375 L 1.671875 -6.3125 L 1.625 -6.40625 C 0.859375 -6.203125 1.109375 -6.265625 0.28125 -6.078125 L 0.28125 -5.875 C 0.734375 -5.84375 0.953125 -5.953125 0.953125 -5.390625 L 0.953125 -0.859375 C 0.953125 -0.203125 0.859375 -0.28125 0.265625 -0.21875 L 0.265625 0.015625 C 0.96875 -0.015625 1.671875 -0.015625 2.375 0.015625 Z M 2.375 0.015625 "/>
</symbol>
<symbol overflow="visible" id="glyph0-3">
<path style="stroke:none;" d="M 1.75 -5.609375 C 1.75 -5.875 1.53125 -6.109375 1.265625 -6.109375 C 1 -6.109375 0.78125 -5.875 0.78125 -5.609375 C 0.78125 -5.359375 1.015625 -5.125 1.265625 -5.125 C 1.53125 -5.125 1.75 -5.359375 1.75 -5.609375 Z M 2.34375 0.015625 L 2.34375 -0.21875 C 1.734375 -0.28125 1.65625 -0.203125 1.65625 -0.859375 L 1.65625 -4.03125 L 1.609375 -4.09375 L 0.265625 -3.734375 L 0.265625 -3.53125 C 0.859375 -3.46875 0.921875 -3.578125 0.921875 -2.890625 L 0.921875 -0.859375 C 0.921875 -0.203125 0.84375 -0.28125 0.234375 -0.21875 L 0.234375 0.015625 C 0.9375 -0.015625 1.640625 -0.015625 2.34375 0.015625 Z M 2.34375 0.015625 "/>
</symbol>
<symbol overflow="visible" id="glyph0-4">
<path style="stroke:none;" d="M 3.65625 -0.640625 L 3.5625 -0.765625 C 3.234375 -0.515625 2.96875 -0.390625 2.5625 -0.390625 C 1.546875 -0.390625 1.046875 -1.296875 1.046875 -2.203125 C 1.046875 -2.9375 1.390625 -3.65625 2.203125 -3.65625 C 2.453125 -3.65625 2.90625 -3.625 3.015625 -3.359375 L 3.1875 -3 L 3.375 -2.96875 L 3.59375 -3.71875 C 3.59375 -3.9375 2.8125 -4.09375 2.625 -4.09375 C 1.40625 -4.09375 0.296875 -3.0625 0.296875 -1.828125 C 0.296875 -0.703125 1.109375 0.140625 2.234375 0.140625 C 2.625 0.140625 3.203125 -0.03125 3.453125 -0.34375 Z M 3.65625 -0.640625 "/>
</symbol>
<symbol overflow="visible" id="glyph0-5">
<path style="stroke:none;" d="M 3.765625 -2.609375 C 3.765625 -3.4375 3.125 -4.09375 2.296875 -4.09375 C 1.921875 -4.09375 1.5625 -3.9375 1.265625 -3.75 C 0.578125 -3.3125 0.296875 -2.65625 0.296875 -1.859375 C 0.296875 -0.703125 0.984375 0.140625 2.1875 0.140625 C 2.578125 0.140625 3.171875 0 3.53125 -0.421875 L 3.703125 -0.703125 L 3.59375 -0.796875 C 3.25 -0.5625 2.96875 -0.390625 2.546875 -0.390625 C 1.484375 -0.390625 1.046875 -1.21875 1.03125 -2.15625 C 1.03125 -2.15625 2.1875 -2.09375 3 -2.1875 L 3.75 -2.421875 Z M 3.03125 -2.875 C 3.03125 -2.640625 2.9375 -2.484375 2.6875 -2.46875 C 2.140625 -2.421875 1.078125 -2.5 1.078125 -2.5 C 1.09375 -3.109375 1.421875 -3.78125 2.125 -3.78125 C 2.546875 -3.78125 3.03125 -3.296875 3.03125 -2.875 Z M 3.03125 -2.875 "/>
</symbol>
<symbol overflow="visible" id="glyph0-6">
<path style="stroke:none;" d="M 5.015625 -1.875 C 5.015625 -2.734375 4.109375 -3.296875 3.3125 -3.359375 C 4 -3.5 4.671875 -3.96875 4.671875 -4.734375 C 4.671875 -5.734375 3.84375 -5.984375 3 -5.984375 C 2.09375 -5.984375 1.203125 -5.96875 0.296875 -5.984375 L 0.296875 -5.75 C 1.09375 -5.6875 1.078125 -5.59375 1.078125 -4.796875 L 1.078125 -1.078125 C 1.078125 -0.5 1.078125 -0.265625 0.453125 -0.203125 L 0.453125 0.015625 C 1.09375 -0.015625 1.71875 0.015625 2.359375 0.015625 C 3.59375 0.015625 5.015625 -0.390625 5.015625 -1.875 Z M 3.84375 -4.578125 C 3.84375 -3.40625 2.734375 -3.359375 1.859375 -3.421875 L 1.859375 -5.5 C 1.859375 -5.703125 2.390625 -5.6875 2.515625 -5.6875 C 3.28125 -5.6875 3.84375 -5.421875 3.84375 -4.578125 Z M 4.21875 -1.734375 C 4.21875 -0.78125 3.59375 -0.3125 2.6875 -0.3125 C 2.375 -0.3125 1.953125 -0.34375 1.953125 -0.75 L 1.953125 -3.125 C 2.984375 -3.1875 4.21875 -3.109375 4.21875 -1.734375 Z M 4.21875 -1.734375 "/>
</symbol>
<symbol overflow="visible" id="glyph0-7">
<path style="stroke:none;" d="M 4.34375 -2.0625 C 4.34375 -3.234375 3.484375 -4.09375 2.3125 -4.09375 C 1.078125 -4.09375 0.234375 -3.09375 0.234375 -1.875 C 0.234375 -0.734375 1.03125 0.140625 2.1875 0.140625 C 3.453125 0.140625 4.34375 -0.828125 4.34375 -2.0625 Z M 3.53125 -1.796875 C 3.53125 -1.09375 3.296875 -0.140625 2.421875 -0.140625 C 1.390625 -0.140625 1.046875 -1.375 1.046875 -2.203125 C 1.046875 -2.921875 1.328125 -3.796875 2.1875 -3.796875 C 3.171875 -3.796875 3.53125 -2.59375 3.53125 -1.796875 Z M 3.53125 -1.796875 "/>
</symbol>
<symbol overflow="visible" id="glyph0-8">
<path style="stroke:none;" d="M 4.53125 -2.28125 C 4.53125 -3.234375 3.859375 -4.09375 2.859375 -4.09375 C 2.359375 -4.09375 1.875 -3.703125 1.484375 -3.453125 L 1.484375 -6.328125 L 1.453125 -6.40625 C 0.59375 -6.1875 0.84375 -6.25 0.09375 -6.078125 L 0.09375 -5.875 C 0.09375 -5.875 0.765625 -6.03125 0.765625 -5.390625 L 0.765625 -1.5625 L 0.71875 -0.34375 L 0.796875 -0.25 C 0.796875 -0.25 1.25 0.109375 2.234375 0.109375 C 4.078125 0.109375 4.53125 -1.078125 4.53125 -2.28125 Z M 3.75 -1.96875 C 3.75 -1.15625 3.40625 -0.265625 2.453125 -0.265625 C 2.15625 -0.265625 1.484375 -0.5 1.484375 -0.859375 L 1.484375 -3.0625 C 1.484375 -3.265625 2.1875 -3.578125 2.40625 -3.578125 C 3.34375 -3.578125 3.75 -2.8125 3.75 -1.96875 Z M 3.75 -1.96875 "/>
</symbol>
<symbol overflow="visible" id="glyph0-9">
<path style="stroke:none;" d="M 3.3125 -3.734375 C 3.3125 -3.921875 2.953125 -4.078125 2.8125 -4.078125 C 2.3125 -4.078125 1.84375 -3.5625 1.640625 -3.15625 L 1.640625 -4.03125 L 1.609375 -4.09375 C 0.859375 -3.859375 1.109375 -3.9375 0.265625 -3.734375 L 0.265625 -3.53125 C 0.859375 -3.46875 0.921875 -3.578125 0.921875 -2.890625 L 0.921875 -0.859375 C 0.921875 -0.203125 0.828125 -0.28125 0.234375 -0.21875 L 0.234375 0.015625 C 0.984375 0 1.71875 0 2.453125 0.015625 L 2.453125 -0.21875 C 1.828125 -0.265625 1.640625 -0.15625 1.640625 -0.859375 L 1.640625 -2.5625 C 1.640625 -2.875 2.015625 -3.375 2.375 -3.375 C 2.59375 -3.375 2.84375 -3.1875 2.84375 -3.09375 L 2.96875 -3.0625 Z M 3.3125 -3.734375 "/>
</symbol>
<symbol overflow="visible" id="glyph0-10">
<path style="stroke:none;" d="M 4.796875 -2.390625 C 4.796875 -3.34375 4.046875 -4.09375 3.09375 -4.09375 C 2.53125 -4.09375 2.09375 -3.796875 1.671875 -3.359375 L 1.671875 -4.078125 L 1.625 -4.125 C 0.78125 -3.875 1.046875 -3.9375 0.265625 -3.75 L 0.265625 -3.546875 C 0.875 -3.515625 0.953125 -3.59375 0.953125 -2.921875 L 0.953125 1.40625 C 0.953125 2.0625 0.859375 1.984375 0.265625 2.046875 L 0.265625 2.28125 C 0.984375 2.25 1.71875 2.25 2.4375 2.28125 L 2.4375 2.046875 C 1.828125 2 1.671875 2.09375 1.671875 1.40625 L 1.671875 -0.09375 C 1.890625 0.03125 2.1875 0.109375 2.4375 0.109375 C 4.296875 0.09375 4.796875 -0.796875 4.796875 -2.390625 Z M 4.03125 -1.984375 C 4.03125 -1.21875 3.59375 -0.328125 2.71875 -0.328125 C 2.3125 -0.328125 1.96875 -0.46875 1.671875 -0.78125 L 1.671875 -2.9375 C 1.8125 -3.3125 2.34375 -3.546875 2.71875 -3.546875 C 3.625 -3.546875 4.03125 -2.8125 4.03125 -1.984375 Z M 4.03125 -1.984375 "/>
</symbol>
<symbol overflow="visible" id="glyph0-11">
<path style="stroke:none;" d="M 4.03125 -0.15625 L 3.984375 -0.390625 C 3.609375 -0.296875 3.375 -0.390625 3.375 -0.84375 L 3.375 -2.65625 C 3.375 -3.53125 3.09375 -4.078125 2.140625 -4.09375 C 1.34375 -4.09375 0.78125 -3.65625 0.53125 -3 L 0.84375 -2.8125 C 1.140625 -3.234375 1.3125 -3.65625 1.703125 -3.65625 C 2.484375 -3.6875 2.6875 -3.203125 2.671875 -2.5 L 1.515625 -2.109375 C 0.859375 -1.90625 0.3125 -1.6875 0.3125 -0.953125 C 0.3125 -0.3125 0.78125 0.109375 1.40625 0.109375 C 1.90625 0.109375 2.671875 -0.609375 2.671875 -0.609375 C 2.671875 -0.609375 2.65625 0.0625 2.90625 0.0625 C 3.546875 -0.09375 3.34375 -0.03125 4.03125 -0.15625 Z M 2.671875 -0.921875 C 2.46875 -0.6875 2.03125 -0.390625 1.703125 -0.390625 C 1.328125 -0.390625 1.078125 -0.734375 1.078125 -1.09375 C 1.046875 -1.734375 2.671875 -2.21875 2.671875 -2.21875 Z M 2.671875 -0.921875 "/>
</symbol>
<symbol overflow="visible" id="glyph0-12">
<path style="stroke:none;" d="M 2.734375 -0.40625 L 2.625 -0.578125 C 2.46875 -0.484375 2.296875 -0.40625 2.109375 -0.40625 C 1.671875 -0.40625 1.578125 -0.75 1.578125 -1.125 L 1.578125 -3.453125 L 2.625 -3.453125 L 2.703125 -3.796875 L 1.59375 -3.796875 L 1.59375 -5.171875 L 1.5625 -5.28125 L 1.140625 -5.109375 C 1.140625 -5.109375 0.859375 -4.953125 0.859375 -4.46875 L 0.859375 -3.796875 L 0.203125 -3.796875 L 0.1875 -3.453125 L 0.859375 -3.453125 L 0.859375 -0.90625 C 0.859375 -0.265625 1.109375 0.109375 1.78125 0.109375 C 2.171875 0.109375 2.53125 -0.140625 2.734375 -0.40625 Z M 2.734375 -0.40625 "/>
</symbol>
<symbol overflow="visible" id="glyph0-13">
<path style="stroke:none;" d="M 4.890625 0.015625 L 4.890625 -0.21875 C 4.3125 -0.28125 4.265625 -0.234375 4.265625 -0.859375 L 4.265625 -2.71875 C 4.265625 -3.5625 3.828125 -4.09375 2.953125 -4.09375 C 2.375 -4.09375 1.9375 -3.78125 1.578125 -3.359375 L 1.578125 -4.046875 L 1.53125 -4.09375 C 0.640625 -3.84375 0.90625 -3.90625 0.1875 -3.734375 L 0.1875 -3.53125 C 0.78125 -3.46875 0.859375 -3.5625 0.859375 -2.890625 L 0.859375 -0.859375 C 0.859375 -0.203125 0.765625 -0.28125 0.15625 -0.21875 L 0.15625 0.015625 C 0.84375 -0.015625 1.546875 -0.015625 2.234375 0.015625 L 2.234375 -0.21875 C 1.65625 -0.28125 1.578125 -0.21875 1.578125 -0.859375 L 1.578125 -2.9375 C 1.734375 -3.296875 2.25 -3.5625 2.625 -3.5625 C 3.28125 -3.5625 3.546875 -3.109375 3.546875 -2.515625 L 3.546875 -0.921875 C 3.546875 -0.703125 3.53125 -0.203125 3.21875 -0.171875 L 3.21875 0.015625 C 3.78125 -0.015625 4.34375 -0.015625 4.890625 0.015625 Z M 4.890625 0.015625 "/>
</symbol>
<symbol overflow="visible" id="glyph0-14">
<path style="stroke:none;" d="M 4.890625 -0.09375 L 4.890625 -0.328125 C 4.890625 -0.328125 4.1875 -0.125 4.1875 -0.890625 L 4.1875 -6.3125 L 4.15625 -6.40625 C 3.359375 -6.203125 3.625 -6.265625 2.765625 -6.078125 L 2.765625 -5.875 C 2.765625 -5.875 3.46875 -6.078125 3.46875 -5.390625 L 3.46875 -3.90625 C 3.46875 -3.90625 2.953125 -4.09375 2.6875 -4.09375 C 1.46875 -4.09375 0.328125 -3.125 0.328125 -1.859375 C 0.328125 -0.75 1.03125 0.109375 2.1875 0.109375 C 3.21875 0.09375 3.484375 -0.609375 3.484375 -0.609375 L 3.46875 0.078125 C 4.328125 -0.046875 4.0625 -0.015625 4.890625 -0.09375 Z M 3.46875 -1.34375 C 3.46875 -0.84375 2.875 -0.40625 2.40625 -0.40625 C 1.5 -0.40625 1.109375 -1.359375 1.109375 -2.125 C 1.109375 -2.921875 1.46875 -3.71875 2.375 -3.71875 C 2.5625 -3.71875 3.46875 -3.484375 3.46875 -3.203125 Z M 3.46875 -1.34375 "/>
</symbol>
<symbol overflow="visible" id="glyph0-15">
<path style="stroke:none;" d="M 3.203125 -1.21875 C 3.203125 -2.65625 1.015625 -2.09375 1.015625 -3.15625 C 1.015625 -3.578125 1.328125 -3.796875 1.734375 -3.796875 C 2.296875 -3.796875 2.59375 -3.46875 2.703125 -2.9375 L 2.9375 -2.96875 L 2.859375 -3.90625 C 2.546875 -4.015625 2.234375 -4.09375 1.90625 -4.09375 C 1.15625 -4.09375 0.40625 -3.6875 0.40625 -2.859375 C 0.40625 -1.484375 2.546875 -2.015625 2.546875 -0.90625 C 2.546875 -0.421875 2.125 -0.15625 1.6875 -0.15625 C 0.65625 -0.15625 0.796875 -0.890625 0.625 -1.171875 L 0.453125 -1.265625 L 0.296875 -0.609375 C 0.59375 -0.015625 0.75 0.140625 1.484375 0.140625 C 2.296875 0.140625 3.203125 -0.296875 3.203125 -1.21875 Z M 3.203125 -1.21875 "/>
</symbol>
<symbol overflow="visible" id="glyph0-16">
<path style="stroke:none;" d="M 2.5625 2.1875 C 1.734375 0.96875 1.3125 -0.78125 1.3125 -2.265625 C 1.3125 -3.75 1.71875 -5.40625 2.5625 -6.625 C 1.265625 -5.59375 0.65625 -3.9375 0.65625 -2.265625 C 0.65625 -0.578125 1.265625 1.125 2.5625 2.1875 Z M 2.5625 2.1875 "/>
</symbol>
<symbol overflow="visible" id="glyph0-17">
<path style="stroke:none;" d="M 6.6875 -3.734375 L 6.6875 -3.953125 C 6.140625 -3.9375 5.578125 -3.9375 5.015625 -3.953125 L 5.015625 -3.734375 C 5.234375 -3.71875 5.640625 -3.75 5.640625 -3.453125 C 5.640625 -3.03125 4.8125 -0.921875 4.8125 -0.921875 L 3.625 -3.984375 L 3.421875 -3.984375 C 3.421875 -3.984375 2.1875 -0.953125 2.1875 -0.953125 L 2.171875 -0.953125 C 2.171875 -0.953125 1.40625 -3.1875 1.40625 -3.484375 C 1.40625 -3.734375 1.859375 -3.71875 2.015625 -3.734375 L 2.015625 -3.953125 C 1.359375 -3.9375 0.703125 -3.9375 0.046875 -3.953125 L 0.046875 -3.734375 C 0.609375 -3.671875 0.609375 -3.546875 0.78125 -3 L 1.78125 0.09375 L 2.109375 0.09375 L 3.3125 -2.8125 L 4.46875 0.09375 L 4.796875 0.09375 L 5.953125 -3 C 6.140625 -3.484375 6.171875 -3.65625 6.6875 -3.734375 Z M 6.6875 -3.734375 "/>
</symbol>
<symbol overflow="visible" id="glyph0-18">
<path style="stroke:none;" d="M 4.84375 0.015625 L 4.84375 -0.234375 C 4.265625 -0.28125 4.203125 -0.234375 4.203125 -0.859375 L 4.203125 -2.671875 C 4.203125 -3.5625 3.765625 -4.09375 2.84375 -4.09375 C 1.734375 -4.09375 1.515625 -3.359375 1.515625 -3.359375 L 1.515625 -6.3125 L 1.484375 -6.40625 C 1.03125 -6.265625 0.578125 -6.171875 0.109375 -6.078125 L 0.109375 -5.875 C 0.578125 -5.828125 0.796875 -5.953125 0.796875 -5.390625 L 0.796875 -0.859375 C 0.796875 -0.21875 0.71875 -0.28125 0.125 -0.21875 L 0.125 0.015625 C 0.8125 -0.015625 1.484375 -0.015625 2.171875 0.015625 L 2.171875 -0.21875 C 1.59375 -0.28125 1.515625 -0.21875 1.515625 -0.859375 L 1.515625 -2.9375 C 1.515625 -3.28125 2.265625 -3.5625 2.546875 -3.5625 C 3.21875 -3.5625 3.484375 -3.09375 3.484375 -2.46875 L 3.484375 -0.9375 C 3.484375 -0.71875 3.46875 -0.203125 3.171875 -0.171875 L 3.171875 0.015625 C 3.734375 -0.015625 4.296875 -0.015625 4.84375 0.015625 Z M 4.84375 0.015625 "/>
</symbol>
<symbol overflow="visible" id="glyph0-19">
<path style="stroke:none;" d="M 4.78125 2.28125 L 4.78125 2.046875 C 4.1875 1.984375 4.09375 2.0625 4.09375 1.40625 L 4.09375 -2.890625 C 4.09375 -2.890625 4.109375 -3.625 4.21875 -3.984375 L 4.109375 -4.046875 C 4.109375 -4.046875 3.78125 -3.859375 3.75 -3.859375 C 3.609375 -3.859375 3.09375 -4.09375 2.765625 -4.09375 C 1.34375 -4.109375 0.328125 -3.0625 0.328125 -1.796875 C 0.328125 -0.671875 1.078125 0.109375 2.21875 0.109375 C 2.515625 0.109375 3.109375 -0.015625 3.375 -0.40625 L 3.375 1.40625 C 3.375 2.109375 3.1875 2 2.5625 2.046875 L 2.5625 2.28125 C 3.296875 2.25 4.046875 2.25 4.78125 2.28125 Z M 3.375 -0.765625 C 3.234375 -0.515625 2.8125 -0.359375 2.546875 -0.359375 C 1.546875 -0.359375 1.109375 -1.265625 1.109375 -2.140625 C 1.109375 -2.96875 1.515625 -3.6875 2.421875 -3.6875 C 2.765625 -3.6875 3.109375 -3.609375 3.375 -3.359375 Z M 3.375 -0.765625 "/>
</symbol>
<symbol overflow="visible" id="glyph0-20">
<path style="stroke:none;" d="M 4.9375 -0.09375 L 4.9375 -0.328125 C 4.375 -0.359375 4.265625 -0.265625 4.265625 -0.875 L 4.265625 -4.015625 L 4.234375 -4.0625 C 3.4375 -3.90625 3.6875 -3.953125 2.828125 -3.8125 L 2.828125 -3.59375 C 3.390625 -3.546875 3.53125 -3.65625 3.53125 -3.03125 L 3.53125 -1.546875 C 3.53125 -1.109375 2.96875 -0.4375 2.421875 -0.421875 C 1.75 -0.421875 1.59375 -0.890625 1.59375 -1.484375 L 1.59375 -4.015625 L 1.546875 -4.0625 C 0.75 -3.890625 0.984375 -3.9375 0.21875 -3.8125 L 0.21875 -3.59375 C 0.765625 -3.546875 0.859375 -3.609375 0.859375 -3.03125 L 0.859375 -1.28125 C 0.859375 -0.421875 1.109375 0.09375 2.046875 0.09375 C 2.703125 0.09375 3.203125 -0.171875 3.53125 -0.703125 L 3.53125 0.03125 L 3.578125 0.046875 C 4.40625 -0.0625 4.140625 -0.03125 4.9375 -0.09375 Z M 4.9375 -0.09375 "/>
</symbol>
<symbol overflow="visible" id="glyph0-21">
<path style="stroke:none;" d="M 7.46875 0.015625 L 7.46875 -0.21875 C 6.875 -0.28125 6.8125 -0.21875 6.8125 -0.859375 L 6.8125 -2.78125 C 6.8125 -3.546875 6.375 -4.09375 5.578125 -4.09375 C 4.953125 -4.09375 4.515625 -3.734375 4.15625 -3.3125 C 3.9375 -3.84375 3.546875 -4.09375 3 -4.09375 C 2.359375 -4.09375 2.03125 -3.765625 1.625 -3.359375 L 1.625 -4.046875 L 1.59375 -4.09375 C 0.78125 -3.859375 1.046875 -3.921875 0.234375 -3.734375 L 0.234375 -3.53125 C 0.84375 -3.46875 0.90625 -3.5625 0.90625 -2.890625 L 0.90625 -0.859375 C 0.90625 -0.203125 0.796875 -0.28125 0.203125 -0.21875 L 0.203125 0.015625 C 0.890625 -0.015625 1.578125 -0.015625 2.265625 0.015625 L 2.265625 -0.21875 C 1.6875 -0.28125 1.625 -0.21875 1.625 -0.859375 L 1.625 -2.9375 C 1.78125 -3.296875 2.296875 -3.5625 2.6875 -3.5625 C 3.28125 -3.5625 3.5 -3.0625 3.5 -2.53125 L 3.5 -0.859375 C 3.5 -0.203125 3.40625 -0.28125 2.8125 -0.21875 L 2.8125 0.015625 C 3.5 -0.015625 4.1875 -0.015625 4.875 0.015625 L 4.875 -0.21875 C 4.28125 -0.28125 4.21875 -0.21875 4.21875 -0.859375 L 4.21875 -2.921875 C 4.390625 -3.296875 4.859375 -3.5625 5.265625 -3.5625 C 5.875 -3.5625 6.078125 -3.046875 6.078125 -2.515625 L 6.078125 -0.921875 C 6.078125 -0.703125 6.078125 -0.203125 5.765625 -0.171875 L 5.765625 0.015625 C 6.328125 -0.015625 6.90625 -0.015625 7.46875 0.015625 Z M 7.46875 0.015625 "/>
</symbol>
<symbol overflow="visible" id="glyph0-22">
<path style="stroke:none;" d="M 2.3125 -2.25 C 2.3125 -3.9375 1.71875 -5.578125 0.390625 -6.625 C 1.296875 -5.40625 1.65625 -3.6875 1.65625 -2.265625 C 1.65625 -0.828125 1.296875 0.859375 0.390625 2.1875 C 1.71875 1.109375 2.3125 -0.546875 2.3125 -2.25 Z M 2.3125 -2.25 "/>
</symbol>
<symbol overflow="visible" id="glyph0-23">
<path style="stroke:none;" d="M 3.65625 0.015625 L 3.65625 -0.21875 C 3.09375 -0.265625 2.71875 -0.15625 2.71875 -0.828125 L 2.71875 -5.859375 L 2.65625 -5.9375 C 1.578125 -5.453125 1.921875 -5.609375 0.859375 -5.1875 L 0.96875 -4.984375 C 1.171875 -4.984375 1.625 -5.25 1.875 -5.25 C 2 -5.25 1.984375 -5 1.984375 -4.921875 L 1.984375 -0.828125 C 1.984375 -0.140625 1.578125 -0.265625 1.03125 -0.21875 L 1.03125 0.015625 C 1.90625 -0.015625 2.78125 -0.015625 3.65625 0.015625 Z M 3.65625 0.015625 "/>
</symbol>
<symbol overflow="visible" id="glyph0-24">
<path style="stroke:none;" d="M 1.625 -0.453125 C 1.625 -0.734375 1.375 -0.984375 1.09375 -0.984375 C 0.796875 -0.984375 0.578125 -0.734375 0.578125 -0.453125 C 0.578125 -0.171875 0.796875 0.078125 1.09375 0.078125 C 1.390625 0.078125 1.625 -0.15625 1.625 -0.453125 Z M 1.625 -0.453125 "/>
</symbol>
<symbol overflow="visible" id="glyph0-25">
<path style="stroke:none;" d="M 4.421875 -3.859375 L 3.1875 -3.796875 C 2.90625 -4 2.578125 -4.09375 2.234375 -4.09375 C 1.359375 -4.09375 0.46875 -3.5 0.46875 -2.546875 C 0.46875 -1.9375 0.875 -1.5 1.46875 -1.390625 C 1.46875 -1.390625 0.78125 -0.96875 0.609375 -0.671875 C 0.609375 -0.09375 1.296875 0 1.296875 0 C 1.296875 0 0.296875 0.484375 0.296875 1.109375 C 0.296875 2 1.296875 2.34375 2.046875 2.34375 C 3.4375 2.34375 4.3125 1.640625 4.3125 0.484375 C 4.3125 -0.171875 3.8125 -0.546875 3.171875 -0.546875 L 1.96875 -0.546875 C 1.75 -0.546875 1.34375 -0.578125 1.34375 -0.875 C 1.34375 -1.046875 1.78125 -1.328125 1.78125 -1.328125 C 3 -1.328125 3.6875 -1.78125 3.6875 -2.796875 C 3.6875 -3.015625 3.5 -3.40625 3.5 -3.40625 L 4.15625 -3.390625 Z M 2.96875 -2.59375 C 2.96875 -2.078125 2.6875 -1.59375 2.125 -1.59375 C 1.484375 -1.59375 1.21875 -2.1875 1.21875 -2.75 C 1.21875 -3.265625 1.453125 -3.8125 2.03125 -3.8125 C 2.6875 -3.8125 2.96875 -3.15625 2.96875 -2.59375 Z M 3.671875 0.859375 C 3.671875 1.625 2.90625 1.984375 2.234375 1.984375 C 1.609375 1.984375 0.984375 1.65625 0.984375 0.96875 C 0.984375 0.1875 1.6875 0.046875 2.3125 0.046875 C 2.90625 0.046875 3.671875 0.0625 3.671875 0.859375 Z M 3.671875 0.859375 "/>
</symbol>
<symbol overflow="visible" id="glyph0-26">
<path style="stroke:none;" d="M 4.515625 -3.75 L 4.515625 -3.984375 C 3.984375 -3.96875 3.453125 -3.96875 2.921875 -3.984375 L 2.921875 -3.75 C 3.09375 -3.734375 3.4375 -3.796875 3.4375 -3.546875 C 3.4375 -3.171875 2.46875 -0.859375 2.46875 -0.859375 C 2.46875 -0.859375 1.421875 -3.296875 1.421875 -3.578125 C 1.421875 -3.796875 1.8125 -3.75 1.96875 -3.75 L 1.96875 -3.984375 C 1.328125 -3.96875 0.671875 -3.96875 0.03125 -3.984375 L 0.03125 -3.75 C 0.46875 -3.703125 0.5 -3.75 0.671875 -3.3125 L 2.078125 0.0625 L 2.40625 0.0625 L 3.765625 -3.15625 C 3.984375 -3.65625 4 -3.703125 4.515625 -3.75 Z M 4.515625 -3.75 "/>
</symbol>
<symbol overflow="visible" id="glyph0-27">
<path style="stroke:none;" d="M 4.4375 -0.53125 L 4.3125 -0.953125 C 3.78125 -0.671875 3.234375 -0.640625 2.734375 -0.640625 C 2.328125 -0.640625 1.609375 -0.671875 1.609375 -0.671875 L 2.9375 -2.1875 C 3.484375 -2.8125 4.109375 -3.46875 4.109375 -4.359375 C 4.109375 -5.328125 3.40625 -5.921875 2.46875 -5.921875 C 1.921875 -5.921875 1.46875 -5.734375 1.09375 -5.34375 L 0.78125 -4.375 L 0.984375 -4.3125 L 1.15625 -4.640625 C 1.375 -5.078125 1.65625 -5.296875 2.15625 -5.296875 C 2.921875 -5.296875 3.359375 -4.796875 3.359375 -4.0625 C 3.359375 -3.1875 2.625 -2.359375 2.09375 -1.75 L 0.609375 -0.15625 L 0.609375 0.015625 C 0.921875 0 2.90625 0.03125 3.015625 0 C 3.9375 -0.359375 3.671875 -0.265625 4.4375 -0.53125 Z M 4.4375 -0.53125 "/>
</symbol>
<symbol overflow="visible" id="glyph0-28">
<path style="stroke:none;" d="M 5.265625 -2.984375 L 5.265625 -3.421875 L 0.578125 -3.421875 L 0.578125 -2.984375 Z M 5.265625 -1.03125 L 5.265625 -1.484375 L 0.578125 -1.484375 L 0.578125 -1.03125 Z M 5.265625 -1.03125 "/>
</symbol>
<symbol overflow="visible" id="glyph0-29">
<path style="stroke:none;" d="M 8.59375 -5.75 L 8.59375 -5.984375 C 7.96875 -5.984375 7.34375 -5.96875 6.71875 -5.984375 L 6.71875 -5.75 C 6.921875 -5.734375 7.46875 -5.6875 7.421875 -5.453125 L 6.28125 -1.234375 L 4.59375 -5.984375 L 4.34375 -5.984375 L 2.671875 -1.265625 L 1.65625 -5.03125 C 1.5 -5.640625 1.625 -5.703125 2.25 -5.75 L 2.25 -5.984375 C 1.515625 -5.984375 0.78125 -5.96875 0.03125 -5.984375 L 0.03125 -5.75 C 0.5625 -5.703125 0.6875 -5.609375 0.828125 -5.078125 L 2.234375 0.0625 L 2.578125 0.0625 L 4.25 -4.546875 L 5.9375 0.0625 L 6.265625 0.0625 L 7.8125 -5.140625 C 7.953125 -5.640625 8.109375 -5.703125 8.59375 -5.75 Z M 8.59375 -5.75 "/>
</symbol>
<symbol overflow="visible" id="glyph0-30">
<path style="stroke:none;" d="M 4.765625 -0.078125 L 4.765625 -0.28125 L 4.5625 -0.328125 C 4.234375 -0.390625 2.46875 -2.40625 2.46875 -2.40625 L 3.421875 -3.296875 C 3.84375 -3.6875 3.875 -3.6875 4.4375 -3.78125 L 4.4375 -4.015625 C 3.53125 -3.984375 3.796875 -3.984375 2.96875 -4 L 2.984375 -3.734375 L 3.1875 -3.703125 C 3.1875 -3.6875 1.671875 -2.234375 1.671875 -2.234375 L 1.671875 -6.3125 L 1.625 -6.40625 C 0.796875 -6.1875 1.0625 -6.25 0.265625 -6.078125 L 0.265625 -5.875 C 0.734375 -5.828125 0.953125 -5.953125 0.953125 -5.390625 L 0.953125 -0.859375 C 0.953125 -0.203125 0.84375 -0.28125 0.234375 -0.21875 L 0.234375 0.015625 C 0.953125 -0.015625 1.65625 -0.015625 2.359375 0.015625 L 2.359375 -0.21875 C 1.765625 -0.28125 1.671875 -0.203125 1.671875 -0.859375 L 1.671875 -2.03125 L 1.8125 -1.96875 L 3.796875 0.046875 C 4.4375 -0.046875 4.25 -0.03125 4.765625 -0.078125 Z M 4.765625 -0.078125 "/>
</symbol>
<symbol overflow="visible" id="glyph0-31">
<path style="stroke:none;" d="M 4.25 -1.71875 C 4.25 -2.546875 3.65625 -2.921875 2.984375 -3.265625 C 3.484375 -3.609375 4.03125 -3.9375 4.03125 -4.625 C 4.03125 -5.46875 3.296875 -5.921875 2.53125 -5.921875 C 1.625 -5.921875 0.828125 -5.3125 0.828125 -4.375 C 0.828125 -3.671875 1.296875 -3.296875 1.859375 -2.96875 C 1.1875 -2.59375 0.625 -2.234375 0.625 -1.40625 C 0.625 -0.421875 1.40625 0.140625 2.34375 0.140625 C 3.359375 0.140625 4.25 -0.671875 4.25 -1.71875 Z M 3.40625 -4.59375 C 3.40625 -4.046875 3.109375 -3.734375 2.671875 -3.421875 C 2.125 -3.703125 1.484375 -3.96875 1.484375 -4.671875 C 1.484375 -5.234375 1.859375 -5.625 2.421875 -5.625 C 3.03125 -5.625 3.40625 -5.1875 3.40625 -4.59375 Z M 3.578125 -1.375 C 3.578125 -0.703125 3.15625 -0.140625 2.453125 -0.140625 C 1.6875 -0.140625 1.296875 -0.75 1.296875 -1.453125 C 1.296875 -2.09375 1.625 -2.421875 2.1875 -2.828125 C 2.8125 -2.515625 3.578125 -2.21875 3.578125 -1.375 Z M 3.578125 -1.375 "/>
</symbol>
<symbol overflow="visible" id="glyph0-32">
<path style="stroke:none;" d="M 4.25 -2.09375 C 4.265625 -2.84375 3.5625 -3.3125 2.890625 -3.4375 C 3.34375 -3.734375 3.875 -4.09375 3.875 -4.6875 C 3.875 -5.515625 3.140625 -5.921875 2.390625 -5.921875 C 1.875 -5.921875 1.46875 -5.75 1.109375 -5.375 L 0.796875 -4.546875 L 1.015625 -4.5 C 1.3125 -4.953125 1.578125 -5.390625 2.1875 -5.390625 C 2.71875 -5.390625 3.140625 -5 3.140625 -4.46875 C 3.140625 -3.875 2.65625 -3.46875 2.109375 -3.34375 L 1.453125 -3.15625 L 1.59375 -2.859375 L 2.296875 -3.015625 C 2.875 -3.171875 3.421875 -2.5 3.46875 -1.75 C 3.5 -1.171875 3.046875 -0.265625 2.21875 -0.265625 C 1.90625 -0.265625 1.21875 -0.34375 0.8125 -1.109375 L 0.59375 -0.9375 C 0.65625 -0.171875 1.390625 0.140625 1.796875 0.140625 C 2.96875 0.140625 4.234375 -0.546875 4.25 -2.09375 Z M 4.25 -2.09375 "/>
</symbol>
<symbol overflow="visible" id="glyph0-33">
<path style="stroke:none;" d="M 2.71875 -2 L 2.71875 -2.453125 L 0.453125 -2.453125 L 0.453125 -2 Z M 2.71875 -2 "/>
</symbol>
<symbol overflow="visible" id="glyph0-34">
<path style="stroke:none;" d="M 8.921875 -1.78125 L 8.921875 -2.28125 L 0 -2.28125 L 0 -1.78125 Z M 8.921875 -1.78125 "/>
</symbol>
<symbol overflow="visible" id="glyph0-35">
<path style="stroke:none;" d="M 4.546875 -3.78125 L 4.546875 -4 C 3.984375 -3.984375 3.46875 -3.984375 2.90625 -4 L 2.90625 -3.78125 C 3.0625 -3.75 3.453125 -3.78125 3.453125 -3.546875 C 3.453125 -3.296875 2.4375 -0.90625 2.4375 -0.90625 L 1.5 -3.4375 C 1.375 -3.765625 1.765625 -3.75 2 -3.78125 L 2 -4 C 1.359375 -3.984375 0.71875 -3.984375 0.0625 -4 L 0.0625 -3.78125 C 0.546875 -3.71875 0.59375 -3.671875 0.765625 -3.21875 L 1.75 -0.6875 C 1.84375 -0.421875 1.9375 -0.171875 2 0.09375 C 1.53125 1.328125 1.53125 0.984375 0.671875 1.5625 C 0.296875 1.8125 0.453125 2.3125 0.90625 2.3125 C 1.375 2.3125 2.046875 0.78125 2.1875 0.453125 L 3.65625 -2.90625 C 3.90625 -3.40625 3.953125 -3.6875 4.546875 -3.78125 Z M 4.546875 -3.78125 "/>
</symbol>
<symbol overflow="visible" id="glyph0-36">
<path style="stroke:none;" d="M 3.234375 -6.203125 C 3.109375 -6.3125 2.84375 -6.421875 2.6875 -6.421875 C 1.96875 -6.421875 1.46875 -5.921875 1.140625 -5.359375 C 0.90625 -4.953125 0.9375 -4.328125 0.9375 -3.875 L 0.328125 -3.859375 L 0.34375 -3.484375 L 0.9375 -3.484375 L 0.9375 -0.859375 C 0.9375 -0.203125 0.84375 -0.28125 0.265625 -0.21875 L 0.265625 0.015625 C 0.984375 -0.015625 1.71875 -0.015625 2.421875 0.015625 L 2.421875 -0.21875 C 1.8125 -0.28125 1.65625 -0.171875 1.65625 -0.859375 L 1.65625 -3.484375 L 2.75 -3.484375 L 2.8125 -3.859375 L 1.65625 -3.875 C 1.65625 -4.328125 1.5 -5.890625 2.296875 -5.890625 C 2.71875 -5.890625 2.921875 -5.546875 3.109375 -5.59375 C 3.21875 -5.703125 3.375 -6.0625 3.234375 -6.203125 Z M 3.234375 -6.203125 "/>
</symbol>
<symbol overflow="visible" id="glyph0-37">
<path style="stroke:none;" d="M 6.625 1.203125 L 6.5625 1.078125 C 5.59375 1.03125 4.703125 0.484375 3.859375 0.09375 C 5.5 -0.15625 6.546875 -1.515625 6.546875 -3.15625 C 6.546875 -4.9375 5.265625 -6.125 3.484375 -6.125 C 1.625 -6.125 0.296875 -4.8125 0.296875 -2.953125 C 0.296875 -1.4375 1.109375 -0.359375 2.59375 -0.046875 C 2.625 0.15625 2.921875 0.40625 3.09375 0.453125 C 4.375 0.921875 6.25 1.5 6.25 1.5 Z M 5.625 -2.8125 C 5.625 -1.25 4.96875 -0.203125 3.359375 -0.203125 C 1.859375 -0.203125 1.203125 -1.984375 1.203125 -3.21875 C 1.203125 -4.578125 1.8125 -5.796875 3.3125 -5.796875 C 5.015625 -5.796875 5.625 -4.3125 5.625 -2.8125 Z M 5.625 -2.8125 "/>
</symbol>
<symbol overflow="visible" id="glyph0-38">
<path style="stroke:none;" d="M 6.125 0.015625 L 6.125 -0.21875 C 6.046875 -0.234375 5.953125 -0.234375 5.875 -0.265625 C 5.625 -0.328125 5.390625 -0.578125 5.21875 -0.75 L 2.734375 -3.296875 L 4.703125 -5.25 C 5.15625 -5.703125 5.34375 -5.703125 5.921875 -5.75 L 5.921875 -5.984375 C 5.3125 -5.953125 4.703125 -5.96875 4.09375 -5.984375 L 4.09375 -5.765625 C 4.375 -5.65625 4.3125 -5.53125 4.15625 -5.375 L 1.90625 -3.09375 L 1.90625 -4.796875 C 1.90625 -5.640625 1.90625 -5.6875 2.734375 -5.75 L 2.734375 -5.984375 C 1.921875 -5.953125 1.078125 -5.953125 0.25 -5.984375 L 0.25 -5.75 C 1.078125 -5.6875 1.109375 -5.65625 1.109375 -4.796875 L 1.109375 -1.1875 C 1.109375 -0.328125 1.09375 -0.28125 0.28125 -0.21875 L 0.28125 0.015625 C 1.09375 -0.015625 1.9375 -0.015625 2.765625 0.015625 L 2.765625 -0.21875 C 1.921875 -0.28125 1.90625 -0.3125 1.90625 -1.1875 L 1.90625 -2.9375 L 1.984375 -2.9375 C 2.921875 -1.9375 3.890625 -1 4.8125 0.015625 C 5.234375 -0.015625 5.6875 -0.015625 6.125 0.015625 Z M 6.125 0.015625 "/>
</symbol>
<symbol overflow="visible" id="glyph0-39">
<path style="stroke:none;" d="M 6.421875 -3.296875 C 6.421875 -5.234375 4.90625 -5.984375 3.171875 -5.984375 C 2.203125 -5.984375 1.234375 -5.96875 0.28125 -5.984375 L 0.28125 -5.75 C 1.078125 -5.6875 1.078125 -5.609375 1.078125 -4.796875 L 1.078125 -1.078125 C 1.078125 -0.53125 1 -0.25 0.40625 -0.203125 L 0.40625 0.015625 C 1.1875 -0.015625 1.984375 0.015625 2.765625 0.015625 C 4.796875 0.015625 6.421875 -1.140625 6.421875 -3.296875 Z M 5.5 -3.0625 C 5.5 -1.28125 4.484375 -0.328125 2.71875 -0.328125 C 2.421875 -0.328125 1.859375 -0.390625 1.859375 -0.796875 L 1.859375 -5.5 C 1.859375 -5.703125 2.59375 -5.6875 2.71875 -5.6875 C 4.5625 -5.6875 5.5 -5 5.5 -3.0625 Z M 5.5 -3.0625 "/>
</symbol>
<symbol overflow="visible" id="glyph1-0">
<path style="stroke:none;" d=""/>
</symbol>
<symbol overflow="visible" id="glyph1-1">
<path style="stroke:none;" d="M 5.578125 0.046875 C 5.78125 0.046875 5.921875 -0.0625 5.578125 -0.171875 C 5.28125 -0.265625 5.21875 -0.328125 5 -0.59375 C 4.8125 -0.84375 3.640625 -2.625 3.53125 -2.921875 C 4.0625 -3.046875 5.296875 -3.3125 5.296875 -4.71875 C 5.296875 -5.734375 4.453125 -6 3.609375 -5.984375 C 2.8125 -5.984375 2.015625 -5.96875 1.21875 -5.984375 L 1.171875 -5.765625 C 2.015625 -5.703125 2.03125 -5.6875 1.859375 -4.75 L 1.21875 -1.203125 C 1.0625 -0.359375 1.09375 -0.265625 0.28125 -0.21875 L 0.234375 0.015625 C 0.984375 0.015625 1.75 0 2.515625 0.015625 L 2.546875 -0.21875 C 1.84375 -0.265625 1.734375 -0.265625 1.875 -1.0625 L 2.640625 -5.21875 C 2.75 -5.796875 2.828125 -5.703125 3.34375 -5.703125 C 4.09375 -5.703125 4.515625 -5.34375 4.515625 -4.640625 C 4.515625 -3.9375 4 -3.421875 3.3125 -3.21875 C 3.078125 -3.140625 2.734375 -3.09375 2.5 -3.09375 C 2.3125 -3.0625 2.328125 -3.015625 2.46875 -2.90625 C 2.546875 -2.8125 2.9375 -2.671875 3.234375 -2.171875 L 4.3125 -0.390625 C 4.5625 0.015625 5.15625 0.078125 5.578125 0.046875 Z M 5.578125 0.046875 "/>
</symbol>
<symbol overflow="visible" id="glyph2-0">
<path style="stroke:none;" d=""/>
</symbol>
<symbol overflow="visible" id="glyph2-1">
<path style="stroke:none;" d="M 3.09375 0 L 3.09375 -0.1875 C 2.609375 -0.21875 2.296875 -0.125 2.296875 -0.703125 L 2.296875 -4.9375 L 2.234375 -5.015625 C 1.328125 -4.609375 1.625 -4.734375 0.734375 -4.375 L 0.8125 -4.203125 C 1 -4.203125 1.375 -4.4375 1.578125 -4.4375 C 1.6875 -4.4375 1.671875 -4.21875 1.671875 -4.15625 L 1.671875 -0.703125 C 1.671875 -0.125 1.328125 -0.21875 0.859375 -0.1875 L 0.859375 0 C 1.609375 0 2.34375 0 3.09375 0 Z M 3.09375 0 "/>
</symbol>
<symbol overflow="visible" id="glyph2-2">
<path style="stroke:none;" d="M 3.75 -0.4375 L 3.640625 -0.8125 C 3.1875 -0.5625 2.734375 -0.546875 2.296875 -0.546875 C 1.96875 -0.546875 1.359375 -0.5625 1.359375 -0.5625 L 2.484375 -1.859375 C 2.9375 -2.375 3.46875 -2.921875 3.46875 -3.671875 C 3.46875 -4.5 2.875 -5 2.078125 -5 C 1.625 -5 1.25 -4.84375 0.921875 -4.515625 L 0.65625 -3.703125 L 0.84375 -3.640625 L 0.96875 -3.921875 C 1.15625 -4.28125 1.390625 -4.46875 1.828125 -4.46875 C 2.46875 -4.46875 2.828125 -4.046875 2.828125 -3.421875 C 2.828125 -2.703125 2.21875 -2 1.765625 -1.46875 L 0.515625 -0.140625 L 0.515625 0 C 0.78125 0 2.453125 0.015625 2.546875 0 C 3.328125 -0.3125 3.109375 -0.21875 3.75 -0.4375 Z M 3.75 -0.4375 "/>
</symbol>
</g>
</defs>
<g id="surface1">
<path style=" stroke:none;fill-rule:nonzero;fill:rgb(41.96167%,41.96167%,41.96167%);fill-opacity:1;" d="M 21.292969 8.894531 C 21.292969 6.011719 18.953125 3.675781 16.070312 3.675781 C 13.191406 3.675781 10.851562 6.011719 10.851562 8.894531 C 10.851562 11.777344 13.191406 14.113281 16.070312 14.113281 C 18.953125 14.113281 21.292969 11.777344 21.292969 8.894531 Z M 21.292969 8.894531 "/>
<path style=" stroke:none;fill-rule:nonzero;fill:rgb(41.96167%,41.96167%,41.96167%);fill-opacity:1;" d="M 22.984375 4.378906 C 22.984375 3.054688 21.910156 1.980469 20.585938 1.980469 C 19.261719 1.980469 18.1875 3.054688 18.1875 4.378906 C 18.1875 5.703125 19.261719 6.777344 20.585938 6.777344 C 21.910156 6.777344 22.984375 5.703125 22.984375 4.378906 Z M 22.984375 4.378906 "/>
<path style=" stroke:none;fill-rule:nonzero;fill:rgb(41.96167%,41.96167%,41.96167%);fill-opacity:1;" d="M 8.738281 42.867188 L 8.738281 20.621094 C 8.738281 17.882812 10.957031 15.664062 13.695312 15.664062 L 18.449219 15.664062 C 21.1875 15.664062 23.40625 17.882812 23.40625 20.621094 L 23.40625 42.867188 C 23.40625 45.605469 21.1875 47.824219 18.449219 47.824219 L 13.695312 47.824219 C 10.957031 47.824219 8.738281 45.605469 8.738281 42.867188 Z M 8.738281 42.867188 "/>
<g style="fill:rgb(27.450562%,27.450562%,27.450562%);fill-opacity:1;">
  <use xlink:href="#glyph0-1" x="5.881281" y="60.234655"/>
  <use xlink:href="#glyph0-2" x="12.448771" y="60.234655"/>
  <use xlink:href="#glyph0-3" x="15.268509" y="60.234655"/>
  <use xlink:href="#glyph0-4" x="17.972244" y="60.234655"/>
  <use xlink:href="#glyph0-5" x="22.032309" y="60.234655"/>
</g>
<path style=" stroke:none;fill-rule:nonzero;fill:rgb(41.96167%,41.96167%,41.96167%);fill-opacity:1;" d="M 309.035156 8.894531 C 309.035156 6.011719 306.699219 3.675781 303.816406 3.675781 C 300.933594 3.675781 298.597656 6.011719 298.597656 8.894531 C 298.597656 11.777344 300.933594 14.113281 303.816406 14.113281 C 306.699219 14.113281 309.035156 11.777344 309.035156 8.894531 Z M 309.035156 8.894531 "/>
<path style=" stroke:none;fill-rule:nonzero;fill:rgb(41.96167%,41.96167%,41.96167%);fill-opacity:1;" d="M 296.484375 42.867188 L 296.484375 20.621094 C 296.484375 17.882812 298.703125 15.664062 301.441406 15.664062 L 306.195312 15.664062 C 308.933594 15.664062 311.152344 17.882812 311.152344 20.621094 L 311.152344 42.867188 C 311.152344 45.605469 308.933594 47.824219 306.195312 47.824219 L 301.441406 47.824219 C 298.703125 47.824219 296.484375 45.605469 296.484375 42.867188 Z M 296.484375 42.867188 "/>
<g style="fill:rgb(27.450562%,27.450562%,27.450562%);fill-opacity:1;">
  <use xlink:href="#glyph0-6" x="296.193089" y="60.234655"/>
  <use xlink:href="#glyph0-7" x="301.752255" y="60.234655"/>
  <use xlink:href="#glyph0-8" x="306.445869" y="60.234655"/>
</g>
<path style="fill-rule:nonzero;fill:rgb(86.274719%,89.019775%,90.586853%);fill-opacity:1;stroke-width:0.3985;stroke-linecap:round;stroke-linejoin:round;stroke:rgb(74.607849%,74.607849%,74.607849%);stroke-opacity:1;stroke-miterlimit:10;" d="M 118.204374 85.042258 C 118.204374 87.703505 116.04947 89.858409 113.388223 89.858409 C 110.726975 89.858409 108.568146 87.703505 108.568146 85.042258 C 108.568146 82.377085 110.726975 80.222181 113.388223 80.222181 C 116.04947 80.222181 118.204374 82.377085 118.204374 85.042258 Z M 118.204374 85.042258 " transform="matrix(0.995186,0,0,-0.995186,-0.85414,114.964933)"/>
<path style="fill-rule:nonzero;fill:rgb(86.274719%,89.019775%,90.586853%);fill-opacity:1;stroke-width:0.3985;stroke-linecap:round;stroke-linejoin:round;stroke:rgb(74.607849%,74.607849%,74.607849%);stroke-opacity:1;stroke-miterlimit:10;" d="M 214.586283 85.042258 C 214.586283 87.703505 212.427454 89.858409 209.766206 89.858409 C 207.104959 89.858409 204.946129 87.703505 204.946129 85.042258 C 204.946129 82.377085 207.104959 80.222181 209.766206 80.222181 C 212.427454 80.222181 214.586283 82.377085 214.586283 85.042258 Z M 214.586283 85.042258 " transform="matrix(0.995186,0,0,-0.995186,-0.85414,114.964933)"/>
<g style="fill:rgb(27.450562%,27.450562%,27.450562%);fill-opacity:1;">
  <use xlink:href="#glyph1-1" x="106.70362" y="44.232057"/>
</g>
<g style="fill:rgb(27.450562%,27.450562%,27.450562%);fill-opacity:1;">
  <use xlink:href="#glyph2-1" x="112.664787" y="46.061209"/>
</g>
<g style="fill:rgb(27.450562%,27.450562%,27.450562%);fill-opacity:1;">
  <use xlink:href="#glyph1-1" x="202.617699" y="44.232057"/>
</g>
<g style="fill:rgb(27.450562%,27.450562%,27.450562%);fill-opacity:1;">
  <use xlink:href="#glyph2-2" x="208.578865" y="46.061209"/>
</g>
<g style="fill:rgb(27.450562%,27.450562%,27.450562%);fill-opacity:1;">
  <use xlink:href="#glyph0-9" x="77.910886" y="17.862601"/>
  <use xlink:href="#glyph0-5" x="81.533713" y="17.862601"/>
  <use xlink:href="#glyph0-10" x="85.763319" y="17.862601"/>
  <use xlink:href="#glyph0-5" x="91.108328" y="17.862601"/>
  <use xlink:href="#glyph0-11" x="95.337934" y="17.862601"/>
</g>
<g style="fill:rgb(27.450562%,27.450562%,27.450562%);fill-opacity:1;">
  <use xlink:href="#glyph0-12" x="99.674619" y="17.862601"/>
  <use xlink:href="#glyph0-5" x="102.815592" y="17.862601"/>
  <use xlink:href="#glyph0-9" x="107.045198" y="17.862601"/>
</g>
<g style="fill:rgb(27.450562%,27.450562%,27.450562%);fill-opacity:1;">
  <use xlink:href="#glyph0-13" x="112.943447" y="17.862601"/>
  <use xlink:href="#glyph0-7" x="118.199223" y="17.862601"/>
  <use xlink:href="#glyph0-14" x="122.892837" y="17.862601"/>
  <use xlink:href="#glyph0-5" x="128.193229" y="17.862601"/>
  <use xlink:href="#glyph0-15" x="132.422835" y="17.862601"/>
</g>
<g style="fill:rgb(27.450562%,27.450562%,27.450562%);fill-opacity:1;">
  <use xlink:href="#glyph0-16" x="138.392469" y="17.862601"/>
  <use xlink:href="#glyph0-17" x="141.435287" y="17.862601"/>
  <use xlink:href="#glyph0-3" x="148.404322" y="17.862601"/>
  <use xlink:href="#glyph0-12" x="151.108058" y="17.862601"/>
  <use xlink:href="#glyph0-18" x="154.249031" y="17.862601"/>
</g>
<g style="fill:rgb(27.450562%,27.450562%,27.450562%);fill-opacity:1;">
  <use xlink:href="#glyph0-19" x="161.717766" y="17.862601"/>
  <use xlink:href="#glyph0-20" x="166.723692" y="17.862601"/>
  <use xlink:href="#glyph0-11" x="172.041931" y="17.862601"/>
  <use xlink:href="#glyph0-13" x="176.441079" y="17.862601"/>
</g>
<g style="fill:rgb(27.450562%,27.450562%,27.450562%);fill-opacity:1;">
  <use xlink:href="#glyph0-12" x="181.652239" y="17.862601"/>
  <use xlink:href="#glyph0-20" x="184.793212" y="17.862601"/>
  <use xlink:href="#glyph0-21" x="190.111451" y="17.862601"/>
</g>
<g style="fill:rgb(27.450562%,27.450562%,27.450562%);fill-opacity:1;">
  <use xlink:href="#glyph0-21" x="200.221459" y="17.862601"/>
  <use xlink:href="#glyph0-5" x="208.056046" y="17.862601"/>
  <use xlink:href="#glyph0-21" x="212.285653" y="17.862601"/>
  <use xlink:href="#glyph0-7" x="220.12024" y="17.862601"/>
  <use xlink:href="#glyph0-9" x="224.813853" y="17.862601"/>
  <use xlink:href="#glyph0-3" x="228.43668" y="17.862601"/>
  <use xlink:href="#glyph0-5" x="231.140416" y="17.862601"/>
  <use xlink:href="#glyph0-15" x="235.370022" y="17.862601"/>
  <use xlink:href="#glyph0-22" x="239.064235" y="17.862601"/>
</g>
<path style="fill:none;stroke-width:0.3985;stroke-linecap:round;stroke-linejoin:round;stroke:rgb(27.450562%,27.450562%,27.450562%);stroke-opacity:1;stroke-miterlimit:10;" d="M 128.978894 95.243707 L 119.401543 90.105693 " transform="matrix(0.995186,0,0,-0.995186,-0.85414,114.964933)"/>
<path style="fill-rule:nonzero;fill:rgb(27.450562%,27.450562%,27.450562%);fill-opacity:1;stroke-width:0.3985;stroke-linecap:round;stroke-linejoin:miter;stroke:rgb(27.450562%,27.450562%,27.450562%);stroke-opacity:1;stroke-miterlimit:10;" d="M 3.11812 -0.000581531 L 0.644276 0.934776 L 1.462097 0.00149619 L 0.643046 -0.935526 Z M 3.11812 -0.000581531 " transform="matrix(-0.876889,0.470504,0.470504,0.876889,119.168111,24.650609)"/>
<path style="fill:none;stroke-width:0.3985;stroke-linecap:round;stroke-linejoin:round;stroke:rgb(27.450562%,27.450562%,27.450562%);stroke-opacity:1;stroke-miterlimit:10;" d="M 194.175535 95.243707 L 203.748961 90.105693 " transform="matrix(0.995186,0,0,-0.995186,-0.85414,114.964933)"/>
<path style="fill-rule:nonzero;fill:rgb(27.450562%,27.450562%,27.450562%);fill-opacity:1;stroke-width:0.3985;stroke-linecap:round;stroke-linejoin:miter;stroke:rgb(27.450562%,27.450562%,27.450562%);stroke-opacity:1;stroke-miterlimit:10;" d="M 3.119017 0.00104454 L 0.643928 0.935907 L 1.463004 -0.00108478 L 0.645216 -0.934385 Z M 3.119017 0.00104454 " transform="matrix(0.876879,0.470534,0.470534,-0.876879,200.72154,24.650499)"/>
<path style="fill:none;stroke-width:0.3985;stroke-linecap:round;stroke-linejoin:round;stroke:rgb(84.039307%,84.039307%,84.039307%);stroke-opacity:1;stroke-dasharray:2.98883,2.98883;stroke-miterlimit:10;" d="M 17.006314 53.856989 L 17.006314 -43.937971 " transform="matrix(0.995186,0,0,-0.995186,-0.85414,114.964933)"/>
<path style="fill:none;stroke-width:0.3985;stroke-linecap:round;stroke-linejoin:round;stroke:rgb(84.039307%,84.039307%,84.039307%);stroke-opacity:1;stroke-dasharray:2.98883,2.98883;stroke-miterlimit:10;" d="M 113.388223 53.856989 L 113.388223 -43.937971 " transform="matrix(0.995186,0,0,-0.995186,-0.85414,114.964933)"/>
<path style="fill:none;stroke-width:0.3985;stroke-linecap:round;stroke-linejoin:round;stroke:rgb(84.039307%,84.039307%,84.039307%);stroke-opacity:1;stroke-dasharray:2.98883,2.98883;stroke-miterlimit:10;" d="M 209.766206 53.856989 L 209.766206 -43.937971 " transform="matrix(0.995186,0,0,-0.995186,-0.85414,114.964933)"/>
<path style="fill:none;stroke-width:0.3985;stroke-linecap:round;stroke-linejoin:round;stroke:rgb(84.039307%,84.039307%,84.039307%);stroke-opacity:1;stroke-dasharray:2.98883,2.98883;stroke-miterlimit:10;" d="M 306.14419 53.856989 L 306.14419 -43.937971 " transform="matrix(0.995186,0,0,-0.995186,-0.85414,114.964933)"/>
<path style="fill-rule:nonzero;fill:rgb(100%,100%,100%);fill-opacity:1;stroke-width:0.69739;stroke-linecap:round;stroke-linejoin:round;stroke:rgb(56.469727%,56.469727%,56.469727%);stroke-opacity:1;stroke-miterlimit:10;" d="M 19.596909 36.849341 C 19.596909 38.282018 18.438991 39.439936 17.006314 39.439936 C 15.577561 39.439936 14.419644 38.282018 14.419644 36.849341 C 14.419644 35.420588 15.577561 34.258746 17.006314 34.258746 C 18.438991 34.258746 19.596909 35.420588 19.596909 36.849341 Z M 19.596909 36.849341 " transform="matrix(0.995186,0,0,-0.995186,-0.85414,114.964933)"/>
<path style="fill-rule:nonzero;fill:rgb(100%,100%,100%);fill-opacity:1;stroke-width:0.69739;stroke-linecap:round;stroke-linejoin:round;stroke:rgb(56.469727%,56.469727%,56.469727%);stroke-opacity:1;stroke-miterlimit:10;" d="M 115.978818 36.849341 C 115.978818 38.282018 114.816975 39.439936 113.388223 39.439936 C 111.955545 39.439936 110.797628 38.282018 110.797628 36.849341 C 110.797628 35.420588 111.955545 34.258746 113.388223 34.258746 C 114.816975 34.258746 115.978818 35.420588 115.978818 36.849341 Z M 115.978818 36.849341 " transform="matrix(0.995186,0,0,-0.995186,-0.85414,114.964933)"/>
<path style="fill-rule:nonzero;fill:rgb(100%,100%,100%);fill-opacity:1;stroke-width:0.69739;stroke-linecap:round;stroke-linejoin:round;stroke:rgb(56.469727%,56.469727%,56.469727%);stroke-opacity:1;stroke-miterlimit:10;" d="M 212.356801 36.849341 C 212.356801 38.282018 211.194959 39.439936 209.766206 39.439936 C 208.337454 39.439936 207.175611 38.282018 207.175611 36.849341 C 207.175611 35.420588 208.337454 34.258746 209.766206 34.258746 C 211.194959 34.258746 212.356801 35.420588 212.356801 36.849341 Z M 212.356801 36.849341 " transform="matrix(0.995186,0,0,-0.995186,-0.85414,114.964933)"/>
<path style="fill-rule:nonzero;fill:rgb(100%,100%,100%);fill-opacity:1;stroke-width:0.69739;stroke-linecap:round;stroke-linejoin:round;stroke:rgb(56.469727%,56.469727%,56.469727%);stroke-opacity:1;stroke-miterlimit:10;" d="M 308.734785 36.849341 C 308.734785 38.282018 307.576867 39.439936 306.14419 39.439936 C 304.715437 39.439936 303.553595 38.282018 303.553595 36.849341 C 303.553595 35.420588 304.715437 34.258746 306.14419 34.258746 C 307.576867 34.258746 308.734785 35.420588 308.734785 36.849341 Z M 308.734785 36.849341 " transform="matrix(0.995186,0,0,-0.995186,-0.85414,114.964933)"/>
<path style="fill:none;stroke-width:1.59404;stroke-linecap:round;stroke-linejoin:round;stroke:rgb(69.018555%,20.783997%,41.96167%);stroke-opacity:1;stroke-miterlimit:10;" d="M 22.109001 36.849341 C 23.243367 36.849341 23.812513 38.125012 24.94688 38.125012 C 25.767235 38.125012 26.473761 37.50484 27.211688 36.849341 C 27.95354 36.197767 28.660066 35.573669 29.480421 35.573669 C 30.300776 35.573669 31.007302 36.197767 31.749154 36.849341 C 32.487081 37.50484 33.193607 38.125012 34.017887 38.125012 C 34.838243 38.125012 35.544768 37.50484 36.282695 36.849341 C 37.024548 36.197767 37.731074 35.573669 38.551429 35.573669 C 39.371784 35.573669 40.07831 36.197767 40.820162 36.849341 C 41.558089 37.50484 42.264615 38.125012 43.088895 38.125012 C 43.90925 38.125012 44.615776 37.50484 45.353703 36.849341 C 46.095555 36.197767 46.802081 35.573669 47.622436 35.573669 C 48.442791 35.573669 49.149317 36.197767 49.891169 36.849341 C 50.629096 37.50484 51.335622 38.125012 52.159903 38.125012 C 52.980258 38.125012 53.686784 37.50484 54.424711 36.849341 C 55.166563 36.197767 55.873089 35.573669 56.693444 35.573669 C 57.513799 35.573669 58.220325 36.197767 58.962177 36.849341 C 59.700104 37.50484 60.40663 38.125012 61.23091 38.125012 C 62.051265 38.125012 62.757791 37.50484 63.495718 36.849341 C 64.23757 36.197767 64.944096 35.573669 65.764451 35.573669 C 66.584807 35.573669 67.291332 36.197767 68.033185 36.849341 C 68.771112 37.50484 69.477638 38.125012 70.297993 38.125012 C 71.122273 38.125012 71.828799 37.50484 72.566726 36.849341 C 73.308578 36.197767 74.015104 35.573669 74.835459 35.573669 C 75.655814 35.573669 76.36234 36.197767 77.104192 36.849341 C 77.842119 37.50484 78.548645 38.125012 79.369 38.125012 C 80.19328 38.125012 80.899806 37.50484 81.637733 36.849341 C 82.379586 36.197767 83.086112 35.573669 83.906467 35.573669 C 84.726822 35.573669 85.433348 36.197767 86.1752 36.849341 C 86.913127 37.50484 87.619653 38.125012 88.440008 38.125012 C 89.264288 38.125012 89.970814 37.50484 90.708741 36.849341 C 91.450593 36.197767 92.157119 35.573669 92.977474 35.573669 C 93.797829 35.573669 94.504355 36.197767 95.246207 36.849341 C 95.984134 37.50484 96.69066 38.125012 97.511015 38.125012 C 98.335296 38.125012 99.041822 37.50484 99.779749 36.849341 C 100.521601 36.197767 101.228127 35.573669 102.048482 35.573669 C 103.182848 35.573669 103.748069 36.849341 104.882436 36.849341 L 108.285535 36.849341 " transform="matrix(0.995186,0,0,-0.995186,-0.85414,114.964933)"/>
<path style="fill:none;stroke-width:1.59404;stroke-linecap:round;stroke-linejoin:round;stroke:rgb(69.018555%,20.783997%,41.96167%);stroke-opacity:1;stroke-miterlimit:10;" d="M 118.49091 36.849341 C 119.621351 36.849341 120.190497 38.125012 121.324864 38.125012 C 122.145219 38.125012 122.851744 37.50484 123.593597 36.849341 C 124.331524 36.197767 125.03805 35.573669 125.858405 35.573669 C 126.67876 35.573669 127.389211 36.197767 128.127138 36.849341 C 128.865065 37.50484 129.575516 38.125012 130.395871 38.125012 C 131.216226 38.125012 131.922752 37.50484 132.664604 36.849341 C 133.402531 36.197767 134.109057 35.573669 134.929412 35.573669 C 135.749767 35.573669 136.460218 36.197767 137.198146 36.849341 C 137.936073 37.50484 138.646524 38.125012 139.466879 38.125012 C 140.287234 38.125012 140.99376 37.50484 141.735612 36.849341 C 142.473539 36.197767 143.180065 35.573669 144.00042 35.573669 C 144.820775 35.573669 145.531226 36.197767 146.269153 36.849341 C 147.00708 37.50484 147.717531 38.125012 148.537886 38.125012 C 149.358241 38.125012 150.064767 37.50484 150.806619 36.849341 C 151.544547 36.197767 152.251072 35.573669 153.071427 35.573669 C 153.891783 35.573669 154.602234 36.197767 155.340161 36.849341 C 156.078088 37.50484 156.788539 38.125012 157.608894 38.125012 C 158.429249 38.125012 159.135775 37.50484 159.877627 36.849341 C 160.615554 36.197767 161.32208 35.573669 162.142435 35.573669 C 162.96279 35.573669 163.673241 36.197767 164.411168 36.849341 C 165.149095 37.50484 165.859546 38.125012 166.679901 38.125012 C 167.500257 38.125012 168.206782 37.50484 168.944709 36.849341 C 169.686562 36.197767 170.393088 35.573669 171.213443 35.573669 C 172.033798 35.573669 172.744249 36.197767 173.482176 36.849341 C 174.220103 37.50484 174.930554 38.125012 175.750909 38.125012 C 176.571264 38.125012 177.27779 37.50484 178.015717 36.849341 C 178.757569 36.197767 179.464095 35.573669 180.28445 35.573669 C 181.104805 35.573669 181.815256 36.197767 182.553183 36.849341 C 183.29111 37.50484 184.001562 38.125012 184.821917 38.125012 C 185.642272 38.125012 186.348798 37.50484 187.086725 36.849341 C 187.828577 36.197767 188.535103 35.573669 189.355458 35.573669 C 190.175813 35.573669 190.886264 36.197767 191.624191 36.849341 C 192.362118 37.50484 193.072569 38.125012 193.892924 38.125012 C 194.713279 38.125012 195.419805 37.50484 196.157732 36.849341 C 196.899584 36.197767 197.60611 35.573669 198.426465 35.573669 C 199.560832 35.573669 200.129978 36.849341 201.260419 36.849341 L 204.663519 36.849341 " transform="matrix(0.995186,0,0,-0.995186,-0.85414,114.964933)"/>
<path style="fill:none;stroke-width:1.59404;stroke-linecap:round;stroke-linejoin:round;stroke:rgb(69.018555%,20.783997%,41.96167%);stroke-opacity:1;stroke-miterlimit:10;" d="M 214.868893 36.849341 C 216.00326 36.849341 216.568481 38.125012 217.702847 38.125012 C 218.523202 38.125012 219.233653 37.50484 219.97158 36.849341 C 220.709507 36.197767 221.419958 35.573669 222.240314 35.573669 C 223.060669 35.573669 223.767195 36.197767 224.505122 36.849341 C 225.246974 37.50484 225.9535 38.125012 226.773855 38.125012 C 227.59421 38.125012 228.304661 37.50484 229.042588 36.849341 C 229.780515 36.197767 230.490966 35.573669 231.311321 35.573669 C 232.131676 35.573669 232.838202 36.197767 233.576129 36.849341 C 234.317981 37.50484 235.024507 38.125012 235.844862 38.125012 C 236.665217 38.125012 237.375668 37.50484 238.113596 36.849341 C 238.851523 36.197767 239.558048 35.573669 240.382329 35.573669 C 241.202684 35.573669 241.90921 36.197767 242.647137 36.849341 C 243.388989 37.50484 244.095515 38.125012 244.91587 38.125012 C 245.736225 38.125012 246.446676 37.50484 247.184603 36.849341 C 247.92253 36.197767 248.629056 35.573669 249.453336 35.573669 C 250.273691 35.573669 250.980217 36.197767 251.718144 36.849341 C 252.459997 37.50484 253.166522 38.125012 253.986877 38.125012 C 254.807233 38.125012 255.517684 37.50484 256.255611 36.849341 C 256.993538 36.197767 257.700064 35.573669 258.524344 35.573669 C 259.344699 35.573669 260.051225 36.197767 260.789152 36.849341 C 261.531004 37.50484 262.23753 38.125012 263.057885 38.125012 C 263.87824 38.125012 264.588691 37.50484 265.326618 36.849341 C 266.064545 36.197767 266.771071 35.573669 267.595351 35.573669 C 268.415707 35.573669 269.122232 36.197767 269.860159 36.849341 C 270.602012 37.50484 271.308538 38.125012 272.128893 38.125012 C 272.949248 38.125012 273.655774 37.50484 274.397626 36.849341 C 275.135553 36.197767 275.842079 35.573669 276.666359 35.573669 C 277.486714 35.573669 278.19324 36.197767 278.931167 36.849341 C 279.673019 37.50484 280.379545 38.125012 281.1999 38.125012 C 282.020255 38.125012 282.726781 37.50484 283.468633 36.849341 C 284.20656 36.197767 284.913086 35.573669 285.737367 35.573669 C 286.557722 35.573669 287.264248 36.197767 288.002175 36.849341 C 288.744027 37.50484 289.450553 38.125012 290.270908 38.125012 C 291.091263 38.125012 291.797789 37.50484 292.539641 36.849341 C 293.277568 36.197767 293.984094 35.573669 294.808374 35.573669 C 295.938816 35.573669 296.507962 36.849341 297.642328 36.849341 L 301.041503 36.849341 " transform="matrix(0.995186,0,0,-0.995186,-0.85414,114.964933)"/>
<g style="fill:rgb(27.450562%,27.450562%,27.450562%);fill-opacity:1;">
  <use xlink:href="#glyph0-23" x="66.257252" y="93.888874"/>
  <use xlink:href="#glyph0-24" x="71.120407" y="93.888874"/>
</g>
<g style="fill:rgb(27.450562%,27.450562%,27.450562%);fill-opacity:1;">
  <use xlink:href="#glyph0-4" x="75.715865" y="93.888874"/>
  <use xlink:href="#glyph0-9" x="79.77593" y="93.888874"/>
  <use xlink:href="#glyph0-5" x="83.398758" y="93.888874"/>
  <use xlink:href="#glyph0-11" x="87.628364" y="93.888874"/>
</g>
<g style="fill:rgb(27.450562%,27.450562%,27.450562%);fill-opacity:1;">
  <use xlink:href="#glyph0-12" x="91.965049" y="93.888874"/>
  <use xlink:href="#glyph0-5" x="95.106022" y="93.888874"/>
</g>
<g style="fill:rgb(27.450562%,27.450562%,27.450562%);fill-opacity:1;">
  <use xlink:href="#glyph0-5" x="101.611049" y="93.888874"/>
  <use xlink:href="#glyph0-13" x="105.840655" y="93.888874"/>
</g>
<g style="fill:rgb(27.450562%,27.450562%,27.450562%);fill-opacity:1;">
  <use xlink:href="#glyph0-12" x="111.051816" y="93.888874"/>
  <use xlink:href="#glyph0-11" x="114.192789" y="93.888874"/>
  <use xlink:href="#glyph0-13" x="118.591937" y="93.888874"/>
  <use xlink:href="#glyph0-25" x="123.847713" y="93.888874"/>
  <use xlink:href="#glyph0-2" x="128.585943" y="93.888874"/>
  <use xlink:href="#glyph0-5" x="131.40568" y="93.888874"/>
  <use xlink:href="#glyph0-21" x="135.635286" y="93.888874"/>
  <use xlink:href="#glyph0-5" x="143.469873" y="93.888874"/>
  <use xlink:href="#glyph0-13" x="147.69948" y="93.888874"/>
</g>
<g style="fill:rgb(27.450562%,27.450562%,27.450562%);fill-opacity:1;">
  <use xlink:href="#glyph0-12" x="152.91064" y="93.888874"/>
</g>
<g style="fill:rgb(27.450562%,27.450562%,27.450562%);fill-opacity:1;">
  <use xlink:href="#glyph0-7" x="158.327034" y="93.888874"/>
  <use xlink:href="#glyph0-26" x="163.020648" y="93.888874"/>
</g>
<g style="fill:rgb(27.450562%,27.450562%,27.450562%);fill-opacity:1;">
  <use xlink:href="#glyph0-5" x="167.642876" y="93.888874"/>
  <use xlink:href="#glyph0-9" x="171.872482" y="93.888874"/>
</g>
<g style="fill:rgb(27.450562%,27.450562%,27.450562%);fill-opacity:1;">
  <use xlink:href="#glyph0-5" x="177.77073" y="93.888874"/>
  <use xlink:href="#glyph0-11" x="182.000336" y="93.888874"/>
  <use xlink:href="#glyph0-4" x="186.399484" y="93.888874"/>
  <use xlink:href="#glyph0-18" x="190.459549" y="93.888874"/>
</g>
<g style="fill:rgb(27.450562%,27.450562%,27.450562%);fill-opacity:1;">
  <use xlink:href="#glyph0-15" x="197.928284" y="93.888874"/>
  <use xlink:href="#glyph0-18" x="201.622497" y="93.888874"/>
  <use xlink:href="#glyph0-7" x="206.815811" y="93.888874"/>
  <use xlink:href="#glyph0-9" x="211.509424" y="93.888874"/>
  <use xlink:href="#glyph0-12" x="215.132252" y="93.888874"/>
</g>
<g style="fill:rgb(27.450562%,27.450562%,27.450562%);fill-opacity:1;">
  <use xlink:href="#glyph0-15" x="220.548646" y="93.888874"/>
  <use xlink:href="#glyph0-5" x="224.242859" y="93.888874"/>
  <use xlink:href="#glyph0-25" x="228.472465" y="93.888874"/>
  <use xlink:href="#glyph0-21" x="233.210695" y="93.888874"/>
  <use xlink:href="#glyph0-5" x="241.045282" y="93.888874"/>
  <use xlink:href="#glyph0-13" x="245.274888" y="93.888874"/>
</g>
<g style="fill:rgb(27.450562%,27.450562%,27.450562%);fill-opacity:1;">
  <use xlink:href="#glyph0-12" x="250.486048" y="93.888874"/>
</g>
<path style="fill-rule:nonzero;fill:rgb(100%,100%,100%);fill-opacity:1;stroke-width:0.69739;stroke-linecap:round;stroke-linejoin:round;stroke:rgb(56.469727%,56.469727%,56.469727%);stroke-opacity:1;stroke-miterlimit:10;" d="M 19.596909 0.0000894943 C 19.596909 1.428842 18.438991 2.590684 17.006314 2.590684 C 15.577561 2.590684 14.419644 1.428842 14.419644 0.0000894943 C 14.419644 -1.428663 15.577561 -2.590505 17.006314 -2.590505 C 18.438991 -2.590505 19.596909 -1.428663 19.596909 0.0000894943 Z M 19.596909 0.0000894943 " transform="matrix(0.995186,0,0,-0.995186,-0.85414,114.964933)"/>
<path style="fill-rule:nonzero;fill:rgb(100%,100%,100%);fill-opacity:1;stroke-width:0.69739;stroke-linecap:round;stroke-linejoin:round;stroke:rgb(56.469727%,56.469727%,56.469727%);stroke-opacity:1;stroke-miterlimit:10;" d="M 308.734785 0.0000894943 C 308.734785 1.428842 307.576867 2.590684 306.14419 2.590684 C 304.715437 2.590684 303.553595 1.428842 303.553595 0.0000894943 C 303.553595 -1.428663 304.715437 -2.590505 306.14419 -2.590505 C 307.576867 -2.590505 308.734785 -1.428663 308.734785 0.0000894943 Z M 308.734785 0.0000894943 " transform="matrix(0.995186,0,0,-0.995186,-0.85414,114.964933)"/>
<path style="fill:none;stroke-width:1.59404;stroke-linecap:round;stroke-linejoin:round;stroke:rgb(90.705872%,76.235962%,82.58667%);stroke-opacity:1;stroke-miterlimit:10;" d="M 22.109001 0.0000894943 C 23.243367 0.0000894943 23.812513 1.275761 24.94688 1.275761 C 25.767235 1.275761 26.473761 0.651663 27.211688 0.0000894943 C 27.95354 -0.651484 28.660066 -1.275582 29.480421 -1.275582 C 30.300776 -1.275582 31.007302 -0.651484 31.749154 0.0000894943 C 32.487081 0.651663 33.193607 1.275761 34.017887 1.275761 C 34.838243 1.275761 35.544768 0.651663 36.282695 0.0000894943 C 37.024548 -0.651484 37.731074 -1.275582 38.551429 -1.275582 C 39.371784 -1.275582 40.07831 -0.651484 40.820162 0.0000894943 C 41.558089 0.651663 42.264615 1.275761 43.088895 1.275761 C 43.90925 1.275761 44.615776 0.651663 45.353703 0.0000894943 C 46.095555 -0.651484 46.802081 -1.275582 47.622436 -1.275582 C 48.442791 -1.275582 49.149317 -0.651484 49.891169 0.0000894943 C 50.629096 0.651663 51.335622 1.275761 52.159903 1.275761 C 52.980258 1.275761 53.686784 0.651663 54.424711 0.0000894943 C 55.166563 -0.651484 55.873089 -1.275582 56.693444 -1.275582 C 57.513799 -1.275582 58.220325 -0.651484 58.962177 0.0000894943 C 59.700104 0.651663 60.40663 1.275761 61.23091 1.275761 C 62.051265 1.275761 62.757791 0.651663 63.495718 0.0000894943 C 64.23757 -0.651484 64.944096 -1.275582 65.764451 -1.275582 C 66.584807 -1.275582 67.291332 -0.651484 68.033185 0.0000894943 C 68.771112 0.651663 69.477638 1.275761 70.297993 1.275761 C 71.122273 1.275761 71.828799 0.651663 72.566726 0.0000894943 C 73.308578 -0.651484 74.015104 -1.275582 74.835459 -1.275582 C 75.655814 -1.275582 76.36234 -0.651484 77.104192 0.0000894943 C 77.842119 0.651663 78.548645 1.275761 79.369 1.275761 C 80.19328 1.275761 80.899806 0.651663 81.637733 0.0000894943 C 82.379586 -0.651484 83.086112 -1.275582 83.906467 -1.275582 C 84.726822 -1.275582 85.433348 -0.651484 86.1752 0.0000894943 C 86.913127 0.651663 87.619653 1.275761 88.440008 1.275761 C 89.264288 1.275761 89.970814 0.651663 90.708741 0.0000894943 C 91.450593 -0.651484 92.157119 -1.275582 92.977474 -1.275582 C 93.797829 -1.275582 94.504355 -0.651484 95.246207 0.0000894943 C 95.984134 0.651663 96.69066 1.275761 97.511015 1.275761 C 98.335296 1.275761 99.041822 0.651663 99.779749 0.0000894943 C 100.521601 -0.651484 101.228127 -1.275582 102.048482 -1.275582 C 103.182848 -1.275582 103.748069 0.0000894943 104.882436 0.0000894943 L 108.285535 0.0000894943 " transform="matrix(0.995186,0,0,-0.995186,-0.85414,114.964933)"/>
<path style="fill:none;stroke-width:1.59404;stroke-linecap:round;stroke-linejoin:round;stroke:rgb(90.705872%,76.235962%,82.58667%);stroke-opacity:1;stroke-miterlimit:10;" d="M 118.49091 0.0000894943 C 119.621351 0.0000894943 120.190497 1.275761 121.324864 1.275761 C 122.145219 1.275761 122.851744 0.651663 123.593597 0.0000894943 C 124.331524 -0.651484 125.03805 -1.275582 125.858405 -1.275582 C 126.67876 -1.275582 127.389211 -0.651484 128.127138 0.0000894943 C 128.865065 0.651663 129.575516 1.275761 130.395871 1.275761 C 131.216226 1.275761 131.922752 0.651663 132.664604 0.0000894943 C 133.402531 -0.651484 134.109057 -1.275582 134.929412 -1.275582 C 135.749767 -1.275582 136.460218 -0.651484 137.198146 0.0000894943 C 137.936073 0.651663 138.646524 1.275761 139.466879 1.275761 C 140.287234 1.275761 140.99376 0.651663 141.735612 0.0000894943 C 142.473539 -0.651484 143.180065 -1.275582 144.00042 -1.275582 C 144.820775 -1.275582 145.531226 -0.651484 146.269153 0.0000894943 C 147.00708 0.651663 147.717531 1.275761 148.537886 1.275761 C 149.358241 1.275761 150.064767 0.651663 150.806619 0.0000894943 C 151.544547 -0.651484 152.251072 -1.275582 153.071427 -1.275582 C 153.891783 -1.275582 154.602234 -0.651484 155.340161 0.0000894943 C 156.078088 0.651663 156.788539 1.275761 157.608894 1.275761 C 158.429249 1.275761 159.135775 0.651663 159.877627 0.0000894943 C 160.615554 -0.651484 161.32208 -1.275582 162.142435 -1.275582 C 162.96279 -1.275582 163.673241 -0.651484 164.411168 0.0000894943 C 165.149095 0.651663 165.859546 1.275761 166.679901 1.275761 C 167.500257 1.275761 168.206782 0.651663 168.944709 0.0000894943 C 169.686562 -0.651484 170.393088 -1.275582 171.213443 -1.275582 C 172.033798 -1.275582 172.744249 -0.651484 173.482176 0.0000894943 C 174.220103 0.651663 174.930554 1.275761 175.750909 1.275761 C 176.571264 1.275761 177.27779 0.651663 178.015717 0.0000894943 C 178.757569 -0.651484 179.464095 -1.275582 180.28445 -1.275582 C 181.104805 -1.275582 181.815256 -0.651484 182.553183 0.0000894943 C 183.29111 0.651663 184.001562 1.275761 184.821917 1.275761 C 185.642272 1.275761 186.348798 0.651663 187.086725 0.0000894943 C 187.828577 -0.651484 188.535103 -1.275582 189.355458 -1.275582 C 190.175813 -1.275582 190.886264 -0.651484 191.624191 0.0000894943 C 192.362118 0.651663 193.072569 1.275761 193.892924 1.275761 C 194.713279 1.275761 195.419805 0.651663 196.157732 0.0000894943 C 196.899584 -0.651484 197.60611 -1.275582 198.426465 -1.275582 C 199.560832 -1.275582 200.129978 0.0000894943 201.260419 0.0000894943 L 204.663519 0.0000894943 " transform="matrix(0.995186,0,0,-0.995186,-0.85414,114.964933)"/>
<path style="fill:none;stroke-width:1.59404;stroke-linecap:round;stroke-linejoin:round;stroke:rgb(90.705872%,76.235962%,82.58667%);stroke-opacity:1;stroke-miterlimit:10;" d="M 214.868893 0.0000894943 C 216.00326 0.0000894943 216.568481 1.275761 217.702847 1.275761 C 218.523202 1.275761 219.233653 0.651663 219.97158 0.0000894943 C 220.709507 -0.651484 221.419958 -1.275582 222.240314 -1.275582 C 223.060669 -1.275582 223.767195 -0.651484 224.505122 0.0000894943 C 225.246974 0.651663 225.9535 1.275761 226.773855 1.275761 C 227.59421 1.275761 228.304661 0.651663 229.042588 0.0000894943 C 229.780515 -0.651484 230.490966 -1.275582 231.311321 -1.275582 C 232.131676 -1.275582 232.838202 -0.651484 233.576129 0.0000894943 C 234.317981 0.651663 235.024507 1.275761 235.844862 1.275761 C 236.665217 1.275761 237.375668 0.651663 238.113596 0.0000894943 C 238.851523 -0.651484 239.558048 -1.275582 240.382329 -1.275582 C 241.202684 -1.275582 241.90921 -0.651484 242.647137 0.0000894943 C 243.388989 0.651663 244.095515 1.275761 244.91587 1.275761 C 245.736225 1.275761 246.446676 0.651663 247.184603 0.0000894943 C 247.92253 -0.651484 248.629056 -1.275582 249.453336 -1.275582 C 250.273691 -1.275582 250.980217 -0.651484 251.718144 0.0000894943 C 252.459997 0.651663 253.166522 1.275761 253.986877 1.275761 C 254.807233 1.275761 255.517684 0.651663 256.255611 0.0000894943 C 256.993538 -0.651484 257.700064 -1.275582 258.524344 -1.275582 C 259.344699 -1.275582 260.051225 -0.651484 260.789152 0.0000894943 C 261.531004 0.651663 262.23753 1.275761 263.057885 1.275761 C 263.87824 1.275761 264.588691 0.651663 265.326618 0.0000894943 C 266.064545 -0.651484 266.771071 -1.275582 267.595351 -1.275582 C 268.415707 -1.275582 269.122232 -0.651484 269.860159 0.0000894943 C 270.602012 0.651663 271.308538 1.275761 272.128893 1.275761 C 272.949248 1.275761 273.655774 0.651663 274.397626 0.0000894943 C 275.135553 -0.651484 275.842079 -1.275582 276.666359 -1.275582 C 277.486714 -1.275582 278.19324 -0.651484 278.931167 0.0000894943 C 279.673019 0.651663 280.379545 1.275761 281.1999 1.275761 C 282.020255 1.275761 282.726781 0.651663 283.468633 0.0000894943 C 284.20656 -0.651484 284.913086 -1.275582 285.737367 -1.275582 C 286.557722 -1.275582 287.264248 -0.651484 288.002175 0.0000894943 C 288.744027 0.651663 289.450553 1.275761 290.270908 1.275761 C 291.091263 1.275761 291.797789 0.651663 292.539641 0.0000894943 C 293.277568 -0.651484 293.984094 -1.275582 294.808374 -1.275582 C 295.938816 -1.275582 296.507962 0.0000894943 297.642328 0.0000894943 L 301.041503 0.0000894943 " transform="matrix(0.995186,0,0,-0.995186,-0.85414,114.964933)"/>
<path style="fill-rule:nonzero;fill:rgb(100%,100%,100%);fill-opacity:1;stroke-width:0.99628;stroke-linecap:round;stroke-linejoin:round;stroke:rgb(5.880737%,35.293579%,43.136597%);stroke-opacity:1;stroke-miterlimit:10;" d="M 118.204374 0.0000894943 C 118.204374 2.661337 116.04947 4.820166 113.388223 4.820166 C 110.726975 4.820166 108.568146 2.661337 108.568146 0.0000894943 C 108.568146 -2.661158 110.726975 -4.819987 113.388223 -4.819987 C 116.04947 -4.819987 118.204374 -2.661158 118.204374 0.0000894943 Z M 118.204374 0.0000894943 " transform="matrix(0.995186,0,0,-0.995186,-0.85414,114.964933)"/>
<path style="fill:none;stroke-width:0.99628;stroke-linecap:round;stroke-linejoin:round;stroke:rgb(5.880737%,35.293579%,43.136597%);stroke-opacity:1;stroke-miterlimit:10;" d="M 111.182292 -2.205841 L 115.590228 2.20602 " transform="matrix(0.995186,0,0,-0.995186,-0.85414,114.964933)"/>
<path style="fill:none;stroke-width:0.99628;stroke-linecap:round;stroke-linejoin:round;stroke:rgb(5.880737%,35.293579%,43.136597%);stroke-opacity:1;stroke-miterlimit:10;" d="M 111.182292 2.20602 L 115.590228 -2.205841 " transform="matrix(0.995186,0,0,-0.995186,-0.85414,114.964933)"/>
<path style="fill-rule:nonzero;fill:rgb(100%,100%,100%);fill-opacity:1;stroke-width:0.99628;stroke-linecap:round;stroke-linejoin:round;stroke:rgb(5.880737%,35.293579%,43.136597%);stroke-opacity:1;stroke-miterlimit:10;" d="M 214.586283 0.0000894943 C 214.586283 2.661337 212.427454 4.820166 209.766206 4.820166 C 207.104959 4.820166 204.946129 2.661337 204.946129 0.0000894943 C 204.946129 -2.661158 207.104959 -4.819987 209.766206 -4.819987 C 212.427454 -4.819987 214.586283 -2.661158 214.586283 0.0000894943 Z M 214.586283 0.0000894943 " transform="matrix(0.995186,0,0,-0.995186,-0.85414,114.964933)"/>
<path style="fill:none;stroke-width:0.99628;stroke-linecap:round;stroke-linejoin:round;stroke:rgb(5.880737%,35.293579%,43.136597%);stroke-opacity:1;stroke-miterlimit:10;" d="M 207.560275 -2.205841 L 211.972137 2.20602 " transform="matrix(0.995186,0,0,-0.995186,-0.85414,114.964933)"/>
<path style="fill:none;stroke-width:0.99628;stroke-linecap:round;stroke-linejoin:round;stroke:rgb(5.880737%,35.293579%,43.136597%);stroke-opacity:1;stroke-miterlimit:10;" d="M 207.560275 2.20602 L 211.972137 -2.205841 " transform="matrix(0.995186,0,0,-0.995186,-0.85414,114.964933)"/>
<g style="fill:rgb(27.450562%,27.450562%,27.450562%);fill-opacity:1;">
  <use xlink:href="#glyph0-27" x="22.413319" y="130.702811"/>
  <use xlink:href="#glyph0-24" x="27.276473" y="130.702811"/>
</g>
<g style="fill:rgb(27.450562%,27.450562%,27.450562%);fill-opacity:1;">
  <use xlink:href="#glyph0-6" x="31.871932" y="130.702811"/>
  <use xlink:href="#glyph0-5" x="37.431098" y="130.702811"/>
  <use xlink:href="#glyph0-2" x="41.660704" y="130.702811"/>
  <use xlink:href="#glyph0-2" x="44.480441" y="130.702811"/>
</g>
<g style="fill:rgb(27.450562%,27.450562%,27.450562%);fill-opacity:1;">
  <use xlink:href="#glyph0-21" x="49.5756" y="130.702811"/>
  <use xlink:href="#glyph0-5" x="57.410187" y="130.702811"/>
  <use xlink:href="#glyph0-11" x="61.639793" y="130.702811"/>
  <use xlink:href="#glyph0-15" x="66.03894" y="130.702811"/>
  <use xlink:href="#glyph0-20" x="69.733153" y="130.702811"/>
  <use xlink:href="#glyph0-9" x="75.051392" y="130.702811"/>
  <use xlink:href="#glyph0-5" x="78.674219" y="130.702811"/>
  <use xlink:href="#glyph0-21" x="82.903826" y="130.702811"/>
  <use xlink:href="#glyph0-5" x="90.738413" y="130.702811"/>
  <use xlink:href="#glyph0-13" x="94.968019" y="130.702811"/>
</g>
<g style="fill:rgb(27.450562%,27.450562%,27.450562%);fill-opacity:1;">
  <use xlink:href="#glyph0-12" x="100.179179" y="130.702811"/>
</g>
<g style="fill:rgb(27.450562%,27.450562%,27.450562%);fill-opacity:1;">
  <use xlink:href="#glyph0-11" x="105.595574" y="130.702811"/>
</g>
<g style="fill:rgb(27.450562%,27.450562%,27.450562%);fill-opacity:1;">
  <use xlink:href="#glyph0-12" x="109.932258" y="130.702811"/>
</g>
<g style="fill:rgb(27.450562%,27.450562%,27.450562%);fill-opacity:1;">
  <use xlink:href="#glyph0-5" x="115.348653" y="130.702811"/>
  <use xlink:href="#glyph0-11" x="119.578259" y="130.702811"/>
  <use xlink:href="#glyph0-4" x="123.977406" y="130.702811"/>
  <use xlink:href="#glyph0-18" x="128.037471" y="130.702811"/>
</g>
<g style="fill:rgb(27.450562%,27.450562%,27.450562%);fill-opacity:1;">
  <use xlink:href="#glyph0-13" x="135.506206" y="130.702811"/>
  <use xlink:href="#glyph0-7" x="140.761983" y="130.702811"/>
  <use xlink:href="#glyph0-14" x="145.455596" y="130.702811"/>
  <use xlink:href="#glyph0-5" x="150.755989" y="130.702811"/>
</g>
<g style="fill:rgb(27.450562%,27.450562%,27.450562%);fill-opacity:1;">
  <use xlink:href="#glyph0-28" x="157.261016" y="130.702811"/>
</g>
<g style="fill:rgb(27.450562%,27.450562%,27.450562%);fill-opacity:1;">
  <use xlink:href="#glyph0-5" x="165.381146" y="130.702811"/>
  <use xlink:href="#glyph0-13" x="169.610752" y="130.702811"/>
</g>
<g style="fill:rgb(27.450562%,27.450562%,27.450562%);fill-opacity:1;">
  <use xlink:href="#glyph0-12" x="174.821913" y="130.702811"/>
  <use xlink:href="#glyph0-11" x="177.962886" y="130.702811"/>
  <use xlink:href="#glyph0-13" x="182.362034" y="130.702811"/>
  <use xlink:href="#glyph0-25" x="187.61781" y="130.702811"/>
  <use xlink:href="#glyph0-2" x="192.35604" y="130.702811"/>
  <use xlink:href="#glyph0-5" x="195.175777" y="130.702811"/>
  <use xlink:href="#glyph0-21" x="199.405383" y="130.702811"/>
  <use xlink:href="#glyph0-5" x="207.23997" y="130.702811"/>
  <use xlink:href="#glyph0-13" x="211.469577" y="130.702811"/>
</g>
<g style="fill:rgb(27.450562%,27.450562%,27.450562%);fill-opacity:1;">
  <use xlink:href="#glyph0-12" x="216.680737" y="130.702811"/>
</g>
<g style="fill:rgb(27.450562%,27.450562%,27.450562%);fill-opacity:1;">
  <use xlink:href="#glyph0-15" x="222.097131" y="130.702811"/>
  <use xlink:href="#glyph0-17" x="225.791344" y="130.702811"/>
</g>
<g style="fill:rgb(27.450562%,27.450562%,27.450562%);fill-opacity:1;">
  <use xlink:href="#glyph0-11" x="232.697916" y="130.702811"/>
  <use xlink:href="#glyph0-10" x="237.097064" y="130.702811"/>
  <use xlink:href="#glyph0-10" x="242.442072" y="130.702811"/>
  <use xlink:href="#glyph0-3" x="247.787081" y="130.702811"/>
  <use xlink:href="#glyph0-13" x="250.490817" y="130.702811"/>
  <use xlink:href="#glyph0-25" x="255.746593" y="130.702811"/>
</g>
<g style="fill:rgb(27.450562%,27.450562%,27.450562%);fill-opacity:1;">
  <use xlink:href="#glyph0-16" x="262.760244" y="130.702811"/>
  <use xlink:href="#glyph0-29" x="265.803062" y="130.702811"/>
</g>
<g style="fill:rgb(27.450562%,27.450562%,27.450562%);fill-opacity:1;">
  <use xlink:href="#glyph0-5" x="273.896422" y="130.702811"/>
  <use xlink:href="#glyph0-5" x="278.126028" y="130.702811"/>
  <use xlink:href="#glyph0-30" x="282.355635" y="130.702811"/>
</g>
<g style="fill:rgb(27.450562%,27.450562%,27.450562%);fill-opacity:1;">
  <use xlink:href="#glyph0-31" x="289.699444" y="130.702811"/>
  <use xlink:href="#glyph0-22" x="294.562599" y="130.702811"/>
</g>
<path style="fill-rule:nonzero;fill:rgb(100%,100%,100%);fill-opacity:1;stroke-width:0.69739;stroke-linecap:round;stroke-linejoin:round;stroke:rgb(56.469727%,56.469727%,56.469727%);stroke-opacity:1;stroke-miterlimit:10;" d="M 19.596909 -36.849162 C 19.596909 -35.420409 18.438991 -34.262492 17.006314 -34.262492 C 15.577561 -34.262492 14.419644 -35.420409 14.419644 -36.849162 C 14.419644 -38.281839 15.577561 -39.439757 17.006314 -39.439757 C 18.438991 -39.439757 19.596909 -38.281839 19.596909 -36.849162 Z M 19.596909 -36.849162 " transform="matrix(0.995186,0,0,-0.995186,-0.85414,114.964933)"/>
<path style="fill-rule:nonzero;fill:rgb(100%,100%,100%);fill-opacity:1;stroke-width:0.69739;stroke-linecap:round;stroke-linejoin:round;stroke:rgb(56.469727%,56.469727%,56.469727%);stroke-opacity:1;stroke-miterlimit:10;" d="M 308.734785 -36.849162 C 308.734785 -35.420409 307.576867 -34.262492 306.14419 -34.262492 C 304.715437 -34.262492 303.553595 -35.420409 303.553595 -36.849162 C 303.553595 -38.281839 304.715437 -39.439757 306.14419 -39.439757 C 307.576867 -39.439757 308.734785 -38.281839 308.734785 -36.849162 Z M 308.734785 -36.849162 " transform="matrix(0.995186,0,0,-0.995186,-0.85414,114.964933)"/>
<path style="fill:none;stroke-width:1.59404;stroke-linecap:round;stroke-linejoin:round;stroke:rgb(69.018555%,20.783997%,41.96167%);stroke-opacity:1;stroke-miterlimit:10;" d="M 22.109001 -36.849162 C 23.243367 -36.849162 23.812513 -35.57349 24.94688 -35.57349 C 25.767235 -35.57349 26.473761 -36.197588 27.211688 -36.849162 C 27.95354 -37.504661 28.660066 -38.124833 29.480421 -38.124833 C 30.300776 -38.124833 31.007302 -37.504661 31.749154 -36.849162 C 32.487081 -36.197588 33.193607 -35.57349 34.017887 -35.57349 C 34.838243 -35.57349 35.544768 -36.197588 36.282695 -36.849162 C 37.024548 -37.504661 37.731074 -38.124833 38.551429 -38.124833 C 39.371784 -38.124833 40.07831 -37.504661 40.820162 -36.849162 C 41.558089 -36.197588 42.264615 -35.57349 43.088895 -35.57349 C 43.90925 -35.57349 44.615776 -36.197588 45.353703 -36.849162 C 46.095555 -37.504661 46.802081 -38.124833 47.622436 -38.124833 C 48.442791 -38.124833 49.149317 -37.504661 49.891169 -36.849162 C 50.629096 -36.197588 51.335622 -35.57349 52.159903 -35.57349 C 52.980258 -35.57349 53.686784 -36.197588 54.424711 -36.849162 C 55.166563 -37.504661 55.873089 -38.124833 56.693444 -38.124833 C 57.513799 -38.124833 58.220325 -37.504661 58.962177 -36.849162 C 59.700104 -36.197588 60.40663 -35.57349 61.23091 -35.57349 C 62.051265 -35.57349 62.757791 -36.197588 63.495718 -36.849162 C 64.23757 -37.504661 64.944096 -38.124833 65.764451 -38.124833 C 66.584807 -38.124833 67.291332 -37.504661 68.033185 -36.849162 C 68.771112 -36.197588 69.477638 -35.57349 70.297993 -35.57349 C 71.122273 -35.57349 71.828799 -36.197588 72.566726 -36.849162 C 73.308578 -37.504661 74.015104 -38.124833 74.835459 -38.124833 C 75.655814 -38.124833 76.36234 -37.504661 77.104192 -36.849162 C 77.842119 -36.197588 78.548645 -35.57349 79.369 -35.57349 C 80.19328 -35.57349 80.899806 -36.197588 81.637733 -36.849162 C 82.379586 -37.504661 83.086112 -38.124833 83.906467 -38.124833 C 84.726822 -38.124833 85.433348 -37.504661 86.1752 -36.849162 C 86.913127 -36.197588 87.619653 -35.57349 88.440008 -35.57349 C 89.264288 -35.57349 89.970814 -36.197588 90.708741 -36.849162 C 91.450593 -37.504661 92.157119 -38.124833 92.977474 -38.124833 C 93.797829 -38.124833 94.504355 -37.504661 95.246207 -36.849162 C 95.984134 -36.197588 96.69066 -35.57349 97.511015 -35.57349 C 98.335296 -35.57349 99.041822 -36.197588 99.779749 -36.849162 C 100.521601 -37.504661 101.228127 -38.124833 102.048482 -38.124833 C 102.868837 -38.124833 103.575363 -37.504661 104.317215 -36.849162 C 105.055142 -36.197588 105.761668 -35.57349 106.582023 -35.57349 C 107.406303 -35.57349 108.112829 -36.197588 108.850756 -36.849162 C 109.592608 -37.504661 110.299134 -38.124833 111.119489 -38.124833 C 111.939844 -38.124833 112.64637 -37.504661 113.388223 -36.849162 C 114.12615 -36.197588 114.832675 -35.57349 115.653031 -35.57349 C 116.477311 -35.57349 117.183837 -36.197588 117.921764 -36.849162 C 118.663616 -37.504661 119.370142 -38.124833 120.190497 -38.124833 C 121.010852 -38.124833 121.717378 -37.504661 122.45923 -36.849162 C 123.197157 -36.197588 123.903683 -35.57349 124.724038 -35.57349 C 125.548318 -35.57349 126.254844 -36.197588 126.992771 -36.849162 C 127.734624 -37.504661 128.441149 -38.124833 129.261505 -38.124833 C 130.08186 -38.124833 130.788385 -37.504661 131.530238 -36.849162 C 132.268165 -36.197588 132.974691 -35.57349 133.795046 -35.57349 C 134.619326 -35.57349 135.325852 -36.197588 136.063779 -36.849162 C 136.805631 -37.504661 137.512157 -38.124833 138.332512 -38.124833 C 139.152867 -38.124833 139.859393 -37.504661 140.601245 -36.849162 C 141.339172 -36.197588 142.045698 -35.57349 142.866053 -35.57349 C 143.690334 -35.57349 144.396859 -36.197588 145.134786 -36.849162 C 145.872714 -37.504661 146.583165 -38.124833 147.40352 -38.124833 C 148.223875 -38.124833 148.930401 -37.504661 149.672253 -36.849162 C 150.41018 -36.197588 151.116706 -35.57349 151.937061 -35.57349 C 152.761341 -35.57349 153.467867 -36.197588 154.205794 -36.849162 C 154.943721 -37.504661 155.654172 -38.124833 156.474527 -38.124833 C 157.294882 -38.124833 158.001408 -37.504661 158.74326 -36.849162 C 159.481187 -36.197588 160.187713 -35.57349 161.008068 -35.57349 C 161.832349 -35.57349 162.538875 -36.197588 163.276802 -36.849162 C 164.014729 -37.504661 164.72518 -38.124833 165.545535 -38.124833 C 166.36589 -38.124833 167.072416 -37.504661 167.814268 -36.849162 C 168.552195 -36.197588 169.258721 -35.57349 170.079076 -35.57349 C 170.903356 -35.57349 171.609882 -36.197588 172.347809 -36.849162 C 173.085736 -37.504661 173.796187 -38.124833 174.616542 -38.124833 C 175.436898 -38.124833 176.143423 -37.504661 176.885276 -36.849162 C 177.623203 -36.197588 178.329729 -35.57349 179.150084 -35.57349 C 179.970439 -35.57349 180.68089 -36.197588 181.418817 -36.849162 C 182.156744 -37.504661 182.867195 -38.124833 183.68755 -38.124833 C 184.507905 -38.124833 185.214431 -37.504661 185.956283 -36.849162 C 186.69421 -36.197588 187.400736 -35.57349 188.221091 -35.57349 C 189.041446 -35.57349 189.751897 -36.197588 190.489824 -36.849162 C 191.227751 -37.504661 191.938203 -38.124833 192.758558 -38.124833 C 193.578913 -38.124833 194.285439 -37.504661 195.027291 -36.849162 C 195.765218 -36.197588 196.471744 -35.57349 197.292099 -35.57349 C 198.112454 -35.57349 198.822905 -36.197588 199.560832 -36.849162 C 200.298759 -37.504661 201.00921 -38.124833 201.829565 -38.124833 C 202.64992 -38.124833 203.356446 -37.504661 204.098298 -36.849162 C 204.836225 -36.197588 205.542751 -35.57349 206.363106 -35.57349 C 207.183461 -35.57349 207.893913 -36.197588 208.63184 -36.849162 C 209.369767 -37.504661 210.080218 -38.124833 210.900573 -38.124833 C 211.720928 -38.124833 212.427454 -37.504661 213.169306 -36.849162 C 213.907233 -36.197588 214.613759 -35.57349 215.434114 -35.57349 C 216.254469 -35.57349 216.96492 -36.197588 217.702847 -36.849162 C 218.440774 -37.504661 219.151225 -38.124833 219.97158 -38.124833 C 220.791935 -38.124833 221.498461 -37.504661 222.240314 -36.849162 C 222.978241 -36.197588 223.684766 -35.57349 224.505122 -35.57349 C 225.325477 -35.57349 226.035928 -36.197588 226.773855 -36.849162 C 227.511782 -37.504661 228.222233 -38.124833 229.042588 -38.124833 C 229.862943 -38.124833 230.569469 -37.504661 231.311321 -36.849162 C 232.049248 -36.197588 232.755774 -35.57349 233.576129 -35.57349 C 234.396484 -35.57349 235.106935 -36.197588 235.844862 -36.849162 C 236.582789 -37.504661 237.29324 -38.124833 238.113596 -38.124833 C 238.933951 -38.124833 239.640476 -37.504661 240.382329 -36.849162 C 241.120256 -36.197588 241.826782 -35.57349 242.647137 -35.57349 C 243.467492 -35.57349 244.177943 -36.197588 244.91587 -36.849162 C 245.653797 -37.504661 246.364248 -38.124833 247.184603 -38.124833 C 248.004958 -38.124833 248.711484 -37.504661 249.453336 -36.849162 C 250.191263 -36.197588 250.897789 -35.57349 251.718144 -35.57349 C 252.538499 -35.57349 253.24895 -36.197588 253.986877 -36.849162 C 254.724805 -37.504661 255.435256 -38.124833 256.255611 -38.124833 C 257.075966 -38.124833 257.782492 -37.504661 258.520419 -36.849162 C 259.262271 -36.197588 259.968797 -35.57349 260.789152 -35.57349 C 261.609507 -35.57349 262.319958 -36.197588 263.057885 -36.849162 C 263.795812 -37.504661 264.506263 -38.124833 265.326618 -38.124833 C 266.146973 -38.124833 266.853499 -37.504661 267.591426 -36.849162 C 268.333278 -36.197588 269.039804 -35.57349 269.860159 -35.57349 C 270.680515 -35.57349 271.390966 -36.197588 272.128893 -36.849162 C 272.86682 -37.504661 273.577271 -38.124833 274.397626 -38.124833 C 275.217981 -38.124833 275.924507 -37.504661 276.662434 -36.849162 C 277.404286 -36.197588 278.110812 -35.57349 278.931167 -35.57349 C 279.751522 -35.57349 280.461973 -36.197588 281.1999 -36.849162 C 281.937827 -37.504661 282.648278 -38.124833 283.468633 -38.124833 C 284.288988 -38.124833 284.995514 -37.504661 285.733441 -36.849162 C 286.475294 -36.197588 287.18182 -35.57349 288.002175 -35.57349 C 288.82253 -35.57349 289.532981 -36.197588 290.270908 -36.849162 C 291.008835 -37.504661 291.719286 -38.124833 292.539641 -38.124833 C 293.359996 -38.124833 294.066522 -37.504661 294.804449 -36.849162 C 295.546301 -36.197588 296.252827 -35.57349 297.073182 -35.57349 C 298.207549 -35.57349 298.77277 -36.849162 299.907136 -36.849162 L 301.041503 -36.849162 " transform="matrix(0.995186,0,0,-0.995186,-0.85414,114.964933)"/>
<g style="fill:rgb(27.450562%,27.450562%,27.450562%);fill-opacity:1;">
  <use xlink:href="#glyph0-32" x="36.740023" y="167.799381"/>
  <use xlink:href="#glyph0-24" x="41.603177" y="167.799381"/>
</g>
<g style="fill:rgb(27.450562%,27.450562%,27.450562%);fill-opacity:1;">
  <use xlink:href="#glyph0-5" x="46.198636" y="167.799381"/>
  <use xlink:href="#glyph0-13" x="50.428242" y="167.799381"/>
  <use xlink:href="#glyph0-14" x="55.684018" y="167.799381"/>
  <use xlink:href="#glyph0-33" x="60.984411" y="167.799381"/>
</g>
<g style="fill:rgb(27.450562%,27.450562%,27.450562%);fill-opacity:1;">
  <use xlink:href="#glyph0-12" x="64.178924" y="167.799381"/>
  <use xlink:href="#glyph0-7" x="67.319897" y="167.799381"/>
  <use xlink:href="#glyph0-33" x="72.013511" y="167.799381"/>
  <use xlink:href="#glyph0-5" x="75.261563" y="167.799381"/>
  <use xlink:href="#glyph0-13" x="79.491169" y="167.799381"/>
  <use xlink:href="#glyph0-14" x="84.746945" y="167.799381"/>
</g>
<g style="fill:rgb(27.450562%,27.450562%,27.450562%);fill-opacity:1;">
  <use xlink:href="#glyph0-5" x="92.322759" y="167.799381"/>
  <use xlink:href="#glyph0-13" x="96.552365" y="167.799381"/>
</g>
<g style="fill:rgb(27.450562%,27.450562%,27.450562%);fill-opacity:1;">
  <use xlink:href="#glyph0-12" x="101.763525" y="167.799381"/>
  <use xlink:href="#glyph0-11" x="104.904499" y="167.799381"/>
  <use xlink:href="#glyph0-13" x="109.303646" y="167.799381"/>
  <use xlink:href="#glyph0-25" x="114.559423" y="167.799381"/>
  <use xlink:href="#glyph0-2" x="119.297652" y="167.799381"/>
  <use xlink:href="#glyph0-5" x="122.11739" y="167.799381"/>
  <use xlink:href="#glyph0-21" x="126.346996" y="167.799381"/>
  <use xlink:href="#glyph0-5" x="134.181583" y="167.799381"/>
  <use xlink:href="#glyph0-13" x="138.411189" y="167.799381"/>
</g>
<g style="fill:rgb(27.450562%,27.450562%,27.450562%);fill-opacity:1;">
  <use xlink:href="#glyph0-12" x="143.622349" y="167.799381"/>
</g>
<g style="fill:rgb(27.450562%,27.450562%,27.450562%);fill-opacity:1;">
  <use xlink:href="#glyph0-34" x="149.029821" y="167.799381"/>
</g>
<g style="fill:rgb(27.450562%,27.450562%,27.450562%);fill-opacity:1;">
  <use xlink:href="#glyph0-9" x="160.228461" y="167.799381"/>
  <use xlink:href="#glyph0-5" x="163.851289" y="167.799381"/>
  <use xlink:href="#glyph0-11" x="168.080895" y="167.799381"/>
  <use xlink:href="#glyph0-14" x="172.480042" y="167.799381"/>
  <use xlink:href="#glyph0-35" x="177.780435" y="167.799381"/>
</g>
<g style="fill:rgb(27.450562%,27.450562%,27.450562%);fill-opacity:1;">
  <use xlink:href="#glyph0-36" x="184.749469" y="167.799381"/>
</g>
<g style="fill:rgb(27.450562%,27.450562%,27.450562%);fill-opacity:1;">
  <use xlink:href="#glyph0-7" x="187.88152" y="167.799381"/>
  <use xlink:href="#glyph0-9" x="192.575133" y="167.799381"/>
</g>
<g style="fill:rgb(27.450562%,27.450562%,27.450562%);fill-opacity:1;">
  <use xlink:href="#glyph0-37" x="198.464458" y="167.799381"/>
  <use xlink:href="#glyph0-38" x="205.603034" y="167.799381"/>
  <use xlink:href="#glyph0-39" x="211.992059" y="167.799381"/>
</g>
<g style="fill:rgb(27.450562%,27.450562%,27.450562%);fill-opacity:1;">
  <use xlink:href="#glyph0-7" x="221.191899" y="167.799381"/>
  <use xlink:href="#glyph0-9" x="225.885513" y="167.799381"/>
</g>
<g style="fill:rgb(27.450562%,27.450562%,27.450562%);fill-opacity:1;">
  <use xlink:href="#glyph0-12" x="231.783761" y="167.799381"/>
  <use xlink:href="#glyph0-5" x="234.924734" y="167.799381"/>
  <use xlink:href="#glyph0-2" x="239.154341" y="167.799381"/>
  <use xlink:href="#glyph0-5" x="241.974078" y="167.799381"/>
  <use xlink:href="#glyph0-10" x="246.203684" y="167.799381"/>
  <use xlink:href="#glyph0-7" x="251.548693" y="167.799381"/>
  <use xlink:href="#glyph0-9" x="256.242306" y="167.799381"/>
  <use xlink:href="#glyph0-12" x="259.865134" y="167.799381"/>
  <use xlink:href="#glyph0-11" x="263.006107" y="167.799381"/>
</g>
<g style="fill:rgb(27.450562%,27.450562%,27.450562%);fill-opacity:1;">
  <use xlink:href="#glyph0-12" x="267.351715" y="167.799381"/>
  <use xlink:href="#glyph0-3" x="270.492688" y="167.799381"/>
  <use xlink:href="#glyph0-7" x="273.196424" y="167.799381"/>
  <use xlink:href="#glyph0-13" x="277.890038" y="167.799381"/>
</g>
</g>
</svg>
