<?xml version="1.0" encoding="UTF-8"?>
<svg xmlns="http://www.w3.org/2000/svg" xmlns:xlink="http://www.w3.org/1999/xlink" width="377.966pt" height="127.126pt" viewBox="0 0 377.966 127.126" version="1.2">
<defs>
<g>
<symbol overflow="visible" id="glyph0-0">
<path style="stroke:none;" d=""/>
</symbol>
<symbol overflow="visible" id="glyph0-1">
<path style="stroke:none;" d="M 2.5625 2.1875 C 1.734375 0.96875 1.3125 -0.78125 1.3125 -2.265625 C 1.3125 -3.75 1.71875 -5.390625 2.5625 -6.625 C 1.25 -5.578125 0.65625 -3.921875 0.65625 -2.265625 C 0.65625 -0.5625 1.25 1.125 2.5625 2.1875 Z M 2.5625 2.1875 "/>
</symbol>
<symbol overflow="visible" id="glyph0-2">
<path style="stroke:none;" d="M 4.015625 -0.15625 L 3.984375 -0.390625 C 3.609375 -0.296875 3.359375 -0.390625 3.359375 -0.84375 L 3.359375 -2.65625 C 3.359375 -3.515625 3.09375 -4.0625 2.140625 -4.078125 C 1.34375 -4.078125 0.78125 -3.65625 0.53125 -3 L 0.84375 -2.8125 C 1.140625 -3.21875 1.3125 -3.640625 1.703125 -3.65625 C 2.46875 -3.671875 2.6875 -3.203125 2.671875 -2.5 L 1.515625 -2.109375 C 0.859375 -1.890625 0.3125 -1.6875 0.3125 -0.953125 C 0.3125 -0.3125 0.78125 0.109375 1.40625 0.109375 C 1.890625 0.109375 2.671875 -0.609375 2.671875 -0.609375 C 2.671875 -0.609375 2.640625 0.0625 2.890625 0.0625 C 3.546875 -0.09375 3.328125 -0.03125 4.015625 -0.15625 Z M 2.671875 -0.921875 C 2.46875 -0.6875 2.015625 -0.390625 1.703125 -0.390625 C 1.328125 -0.390625 1.078125 -0.734375 1.0625 -1.09375 C 1.046875 -1.734375 2.671875 -2.21875 2.671875 -2.21875 Z M 2.671875 -0.921875 "/>
</symbol>
<symbol overflow="visible" id="glyph0-3">
<path style="stroke:none;" d="M 2.3125 -2.25 C 2.3125 -3.921875 1.703125 -5.578125 0.390625 -6.625 C 1.296875 -5.390625 1.640625 -3.671875 1.640625 -2.265625 C 1.640625 -0.8125 1.296875 0.859375 0.390625 2.1875 C 1.703125 1.109375 2.3125 -0.546875 2.3125 -2.25 Z M 2.3125 -2.25 "/>
</symbol>
<symbol overflow="visible" id="glyph0-4">
<path style="stroke:none;" d="M 4.34375 -2.0625 C 4.34375 -3.21875 3.484375 -4.078125 2.3125 -4.078125 C 1.0625 -4.078125 0.234375 -3.09375 0.234375 -1.875 C 0.234375 -0.734375 1.03125 0.140625 2.1875 0.140625 C 3.453125 0.140625 4.34375 -0.8125 4.34375 -2.0625 Z M 3.515625 -1.796875 C 3.515625 -1.09375 3.296875 -0.140625 2.40625 -0.140625 C 1.375 -0.140625 1.046875 -1.375 1.046875 -2.203125 C 1.046875 -2.921875 1.3125 -3.796875 2.1875 -3.796875 C 3.171875 -3.796875 3.515625 -2.578125 3.515625 -1.796875 Z M 3.515625 -1.796875 "/>
</symbol>
<symbol overflow="visible" id="glyph0-5">
<path style="stroke:none;" d="M 4.875 0.015625 L 4.875 -0.21875 C 4.296875 -0.28125 4.25 -0.234375 4.25 -0.859375 L 4.25 -2.703125 C 4.25 -3.5625 3.828125 -4.078125 2.953125 -4.078125 C 2.375 -4.078125 1.9375 -3.765625 1.578125 -3.34375 L 1.578125 -4.03125 L 1.53125 -4.09375 C 0.640625 -3.828125 0.90625 -3.890625 0.1875 -3.71875 L 0.1875 -3.515625 C 0.78125 -3.46875 0.859375 -3.5625 0.859375 -2.890625 L 0.859375 -0.859375 C 0.859375 -0.203125 0.75 -0.28125 0.15625 -0.21875 L 0.15625 0.015625 C 0.84375 -0.015625 1.546875 -0.015625 2.234375 0.015625 L 2.234375 -0.21875 C 1.640625 -0.28125 1.578125 -0.21875 1.578125 -0.859375 L 1.578125 -2.9375 C 1.734375 -3.296875 2.25 -3.546875 2.625 -3.546875 C 3.265625 -3.546875 3.53125 -3.09375 3.53125 -2.515625 L 3.53125 -0.921875 C 3.53125 -0.703125 3.515625 -0.203125 3.21875 -0.171875 L 3.21875 0.015625 C 3.765625 -0.015625 4.328125 -0.015625 4.875 0.015625 Z M 4.875 0.015625 "/>
</symbol>
<symbol overflow="visible" id="glyph0-6">
<path style="stroke:none;" d="M 3.765625 -2.609375 C 3.765625 -3.4375 3.125 -4.078125 2.296875 -4.078125 C 1.921875 -4.078125 1.5625 -3.9375 1.25 -3.734375 C 0.578125 -3.296875 0.296875 -2.65625 0.296875 -1.859375 C 0.296875 -0.6875 0.984375 0.140625 2.1875 0.140625 C 2.578125 0.140625 3.171875 0 3.515625 -0.421875 L 3.703125 -0.6875 L 3.578125 -0.796875 C 3.25 -0.5625 2.953125 -0.390625 2.53125 -0.390625 C 1.484375 -0.390625 1.046875 -1.21875 1.03125 -2.15625 C 1.03125 -2.15625 2.1875 -2.09375 3 -2.1875 L 3.75 -2.421875 Z M 3.03125 -2.875 C 3.03125 -2.640625 2.9375 -2.46875 2.6875 -2.453125 C 2.140625 -2.40625 1.0625 -2.5 1.0625 -2.5 C 1.09375 -3.109375 1.421875 -3.78125 2.125 -3.78125 C 2.546875 -3.78125 3.03125 -3.28125 3.03125 -2.875 Z M 3.03125 -2.875 "/>
</symbol>
<symbol overflow="visible" id="glyph0-7">
<path style="stroke:none;" d="M 4.78125 -2.390625 C 4.78125 -3.328125 4.03125 -4.078125 3.09375 -4.078125 C 2.515625 -4.078125 2.078125 -3.78125 1.671875 -3.359375 L 1.671875 -4.0625 L 1.625 -4.125 C 0.78125 -3.875 1.046875 -3.9375 0.265625 -3.75 L 0.265625 -3.546875 C 0.875 -3.515625 0.953125 -3.59375 0.953125 -2.921875 L 0.953125 1.40625 C 0.953125 2.0625 0.859375 1.984375 0.265625 2.046875 L 0.265625 2.265625 C 0.984375 2.25 1.703125 2.25 2.4375 2.265625 L 2.4375 2.046875 C 1.828125 2 1.671875 2.09375 1.671875 1.40625 L 1.671875 -0.09375 C 1.890625 0.03125 2.1875 0.109375 2.4375 0.109375 C 4.28125 0.09375 4.78125 -0.796875 4.78125 -2.390625 Z M 4.03125 -1.984375 C 4.03125 -1.21875 3.578125 -0.328125 2.71875 -0.328125 C 2.3125 -0.328125 1.953125 -0.46875 1.671875 -0.78125 L 1.671875 -2.9375 C 1.8125 -3.3125 2.328125 -3.546875 2.703125 -3.546875 C 3.625 -3.546875 4.03125 -2.8125 4.03125 -1.984375 Z M 4.03125 -1.984375 "/>
</symbol>
<symbol overflow="visible" id="glyph0-8">
<path style="stroke:none;" d="M 4.9375 -0.09375 L 4.9375 -0.328125 C 4.375 -0.359375 4.25 -0.265625 4.25 -0.875 L 4.25 -4.015625 L 4.21875 -4.0625 C 3.421875 -3.890625 3.6875 -3.953125 2.828125 -3.796875 L 2.828125 -3.578125 C 3.390625 -3.546875 3.515625 -3.640625 3.515625 -3.015625 L 3.515625 -1.546875 C 3.515625 -1.109375 2.953125 -0.4375 2.421875 -0.421875 C 1.75 -0.421875 1.578125 -0.890625 1.578125 -1.484375 L 1.578125 -4.015625 L 1.546875 -4.0625 C 0.75 -3.890625 0.984375 -3.9375 0.21875 -3.796875 L 0.21875 -3.578125 C 0.75 -3.546875 0.859375 -3.609375 0.859375 -3.015625 L 0.859375 -1.28125 C 0.859375 -0.421875 1.109375 0.09375 2.046875 0.09375 C 2.703125 0.09375 3.203125 -0.171875 3.515625 -0.6875 L 3.515625 0.03125 L 3.578125 0.046875 C 4.390625 -0.0625 4.125 -0.03125 4.9375 -0.09375 Z M 4.9375 -0.09375 "/>
</symbol>
<symbol overflow="visible" id="glyph0-9">
<path style="stroke:none;" d="M 7.453125 0.015625 L 7.453125 -0.21875 C 6.859375 -0.28125 6.796875 -0.21875 6.796875 -0.859375 L 6.796875 -2.765625 C 6.796875 -3.53125 6.359375 -4.078125 5.5625 -4.078125 C 4.953125 -4.078125 4.515625 -3.734375 4.140625 -3.3125 C 3.9375 -3.84375 3.546875 -4.078125 3 -4.078125 C 2.34375 -4.078125 2.03125 -3.765625 1.625 -3.359375 L 1.625 -4.03125 L 1.578125 -4.09375 C 0.78125 -3.859375 1.046875 -3.921875 0.234375 -3.71875 L 0.234375 -3.515625 C 0.84375 -3.46875 0.90625 -3.5625 0.90625 -2.890625 L 0.90625 -0.859375 C 0.90625 -0.203125 0.796875 -0.28125 0.203125 -0.21875 L 0.203125 0.015625 C 0.890625 -0.015625 1.578125 -0.015625 2.265625 0.015625 L 2.265625 -0.21875 C 1.6875 -0.28125 1.625 -0.21875 1.625 -0.859375 L 1.625 -2.9375 C 1.78125 -3.296875 2.28125 -3.546875 2.6875 -3.546875 C 3.28125 -3.546875 3.484375 -3.0625 3.484375 -2.53125 L 3.484375 -0.859375 C 3.484375 -0.203125 3.390625 -0.28125 2.8125 -0.21875 L 2.8125 0.015625 C 3.484375 -0.015625 4.171875 -0.015625 4.859375 0.015625 L 4.859375 -0.21875 C 4.28125 -0.28125 4.203125 -0.21875 4.203125 -0.859375 L 4.203125 -2.921875 C 4.375 -3.28125 4.859375 -3.546875 5.25 -3.546875 C 5.875 -3.546875 6.078125 -3.046875 6.078125 -2.515625 L 6.078125 -0.921875 C 6.078125 -0.6875 6.0625 -0.203125 5.765625 -0.171875 L 5.765625 0.015625 C 6.328125 -0.015625 6.890625 -0.015625 7.453125 0.015625 Z M 7.453125 0.015625 "/>
</symbol>
<symbol overflow="visible" id="glyph0-10">
<path style="stroke:none;" d="M 4.84375 0.015625 L 4.84375 -0.234375 C 4.25 -0.28125 4.1875 -0.234375 4.1875 -0.859375 L 4.1875 -2.65625 C 4.1875 -3.5625 3.765625 -4.078125 2.84375 -4.078125 C 1.734375 -4.078125 1.515625 -3.359375 1.515625 -3.359375 L 1.515625 -6.3125 L 1.484375 -6.390625 C 1.03125 -6.25 0.578125 -6.15625 0.109375 -6.078125 L 0.109375 -5.859375 C 0.5625 -5.828125 0.796875 -5.953125 0.796875 -5.390625 L 0.796875 -0.859375 C 0.796875 -0.21875 0.71875 -0.28125 0.125 -0.21875 L 0.125 0.015625 C 0.8125 -0.015625 1.484375 -0.015625 2.171875 0.015625 L 2.171875 -0.21875 C 1.578125 -0.28125 1.515625 -0.21875 1.515625 -0.859375 L 1.515625 -2.9375 C 1.515625 -3.28125 2.265625 -3.5625 2.53125 -3.5625 C 3.203125 -3.5625 3.46875 -3.078125 3.46875 -2.46875 L 3.46875 -0.9375 C 3.46875 -0.71875 3.46875 -0.203125 3.171875 -0.171875 L 3.171875 0.015625 C 3.71875 -0.015625 4.28125 -0.015625 4.84375 0.015625 Z M 4.84375 0.015625 "/>
</symbol>
<symbol overflow="visible" id="glyph0-11">
<path style="stroke:none;" d="M 2.734375 -0.40625 L 2.625 -0.578125 C 2.46875 -0.484375 2.28125 -0.40625 2.109375 -0.40625 C 1.671875 -0.40625 1.578125 -0.75 1.578125 -1.125 L 1.578125 -3.453125 L 2.625 -3.453125 L 2.703125 -3.796875 L 1.578125 -3.796875 L 1.578125 -5.171875 L 1.5625 -5.265625 L 1.125 -5.109375 C 1.125 -5.109375 0.859375 -4.9375 0.859375 -4.46875 L 0.859375 -3.796875 L 0.203125 -3.796875 L 0.1875 -3.453125 L 0.859375 -3.453125 L 0.859375 -0.90625 C 0.859375 -0.265625 1.109375 0.109375 1.78125 0.109375 C 2.171875 0.109375 2.53125 -0.140625 2.734375 -0.40625 Z M 2.734375 -0.40625 "/>
</symbol>
<symbol overflow="visible" id="glyph0-12">
<path style="stroke:none;" d="M 6.6875 -3.71875 L 6.6875 -3.953125 C 6.125 -3.921875 5.5625 -3.921875 5.015625 -3.953125 L 5.015625 -3.71875 C 5.21875 -3.703125 5.625 -3.734375 5.625 -3.453125 C 5.625 -3.03125 4.8125 -0.921875 4.8125 -0.921875 L 3.625 -3.96875 L 3.421875 -3.96875 C 3.421875 -3.96875 2.1875 -0.9375 2.1875 -0.953125 L 2.171875 -0.9375 C 2.171875 -0.9375 1.40625 -3.171875 1.40625 -3.484375 C 1.40625 -3.71875 1.859375 -3.703125 2.015625 -3.71875 L 2.015625 -3.953125 C 1.359375 -3.921875 0.703125 -3.921875 0.046875 -3.953125 L 0.046875 -3.71875 C 0.609375 -3.65625 0.609375 -3.546875 0.78125 -3 L 1.765625 0.09375 L 2.109375 0.09375 L 3.296875 -2.8125 L 4.46875 0.09375 L 4.796875 0.09375 L 5.9375 -3 C 6.140625 -3.46875 6.15625 -3.65625 6.6875 -3.71875 Z M 6.6875 -3.71875 "/>
</symbol>
<symbol overflow="visible" id="glyph0-13">
<path style="stroke:none;" d="M 4.890625 -0.09375 L 4.890625 -0.328125 C 4.890625 -0.328125 4.1875 -0.125 4.1875 -0.890625 L 4.1875 -6.3125 L 4.140625 -6.390625 C 3.359375 -6.1875 3.609375 -6.25 2.765625 -6.078125 L 2.765625 -5.859375 C 2.765625 -5.859375 3.46875 -6.078125 3.46875 -5.390625 L 3.46875 -3.890625 C 3.46875 -3.890625 2.953125 -4.078125 2.6875 -4.078125 C 1.46875 -4.078125 0.328125 -3.125 0.328125 -1.859375 C 0.328125 -0.75 1.03125 0.109375 2.1875 0.109375 C 3.21875 0.09375 3.484375 -0.609375 3.484375 -0.609375 L 3.453125 0.078125 C 4.3125 -0.046875 4.0625 -0.015625 4.890625 -0.09375 Z M 3.46875 -1.34375 C 3.46875 -0.84375 2.875 -0.40625 2.390625 -0.40625 C 1.5 -0.40625 1.109375 -1.359375 1.109375 -2.125 C 1.109375 -2.90625 1.46875 -3.703125 2.375 -3.703125 C 2.5625 -3.703125 3.46875 -3.484375 3.46875 -3.203125 Z M 3.46875 -1.34375 "/>
</symbol>
<symbol overflow="visible" id="glyph0-14">
<path style="stroke:none;" d="M 4.40625 -3.859375 L 3.171875 -3.78125 C 2.890625 -3.984375 2.578125 -4.078125 2.234375 -4.078125 C 1.359375 -4.078125 0.46875 -3.484375 0.46875 -2.546875 C 0.46875 -1.9375 0.875 -1.5 1.453125 -1.375 C 1.453125 -1.375 0.78125 -0.96875 0.609375 -0.671875 C 0.609375 -0.09375 1.296875 0 1.296875 0 C 1.296875 0 0.296875 0.484375 0.296875 1.109375 C 0.296875 2 1.296875 2.328125 2.046875 2.328125 C 3.421875 2.328125 4.296875 1.640625 4.296875 0.484375 C 4.296875 -0.171875 3.796875 -0.546875 3.171875 -0.546875 L 1.96875 -0.546875 C 1.75 -0.546875 1.34375 -0.5625 1.34375 -0.875 C 1.34375 -1.046875 1.765625 -1.3125 1.765625 -1.3125 C 3 -1.3125 3.671875 -1.765625 3.671875 -2.78125 C 3.671875 -3.015625 3.484375 -3.40625 3.484375 -3.40625 L 4.15625 -3.390625 Z M 2.953125 -2.578125 C 2.953125 -2.078125 2.6875 -1.578125 2.125 -1.578125 C 1.484375 -1.578125 1.21875 -2.1875 1.21875 -2.75 C 1.21875 -3.265625 1.4375 -3.796875 2.03125 -3.796875 C 2.6875 -3.796875 2.953125 -3.15625 2.953125 -2.578125 Z M 3.671875 0.859375 C 3.671875 1.625 2.90625 1.984375 2.234375 1.984375 C 1.609375 1.984375 0.984375 1.65625 0.984375 0.96875 C 0.984375 0.1875 1.6875 0.046875 2.3125 0.046875 C 2.90625 0.046875 3.671875 0.0625 3.671875 0.859375 Z M 3.671875 0.859375 "/>
</symbol>
<symbol overflow="visible" id="glyph0-15">
<path style="stroke:none;" d="M 3.3125 -3.734375 C 3.3125 -3.90625 2.953125 -4.0625 2.8125 -4.0625 C 2.3125 -4.0625 1.84375 -3.5625 1.640625 -3.140625 L 1.640625 -4.03125 L 1.609375 -4.078125 C 0.859375 -3.859375 1.109375 -3.921875 0.265625 -3.71875 L 0.265625 -3.515625 C 0.859375 -3.453125 0.921875 -3.578125 0.921875 -2.890625 L 0.921875 -0.859375 C 0.921875 -0.203125 0.828125 -0.28125 0.234375 -0.21875 L 0.234375 0.015625 C 0.984375 0 1.703125 0 2.453125 0.015625 L 2.453125 -0.21875 C 1.828125 -0.265625 1.640625 -0.15625 1.640625 -0.859375 L 1.640625 -2.5625 C 1.640625 -2.875 2.015625 -3.359375 2.375 -3.359375 C 2.578125 -3.359375 2.828125 -3.1875 2.828125 -3.09375 L 2.953125 -3.0625 Z M 3.3125 -3.734375 "/>
</symbol>
<symbol overflow="visible" id="glyph0-16">
<path style="stroke:none;" d="M 3.203125 -1.21875 C 3.203125 -2.640625 1 -2.09375 1 -3.140625 C 1 -3.578125 1.328125 -3.796875 1.734375 -3.796875 C 2.296875 -3.796875 2.59375 -3.46875 2.703125 -2.9375 L 2.9375 -2.953125 L 2.859375 -3.890625 C 2.546875 -4.015625 2.234375 -4.078125 1.90625 -4.078125 C 1.15625 -4.078125 0.40625 -3.6875 0.40625 -2.84375 C 0.40625 -1.484375 2.53125 -2.015625 2.53125 -0.90625 C 2.53125 -0.421875 2.125 -0.15625 1.6875 -0.15625 C 0.65625 -0.15625 0.796875 -0.875 0.625 -1.171875 L 0.453125 -1.265625 L 0.296875 -0.609375 C 0.59375 -0.015625 0.75 0.140625 1.484375 0.140625 C 2.296875 0.140625 3.203125 -0.296875 3.203125 -1.21875 Z M 3.203125 -1.21875 "/>
</symbol>
<symbol overflow="visible" id="glyph0-17">
<path style="stroke:none;" d="M 1.75 -5.609375 C 1.75 -5.859375 1.515625 -6.09375 1.265625 -6.09375 C 1 -6.09375 0.78125 -5.859375 0.78125 -5.609375 C 0.78125 -5.34375 1 -5.125 1.265625 -5.125 C 1.515625 -5.125 1.75 -5.34375 1.75 -5.609375 Z M 2.328125 0.015625 L 2.328125 -0.21875 C 1.734375 -0.28125 1.640625 -0.203125 1.640625 -0.859375 L 1.640625 -4.03125 L 1.609375 -4.09375 L 0.265625 -3.71875 L 0.265625 -3.515625 C 0.859375 -3.453125 0.921875 -3.578125 0.921875 -2.890625 L 0.921875 -0.859375 C 0.921875 -0.203125 0.84375 -0.28125 0.234375 -0.21875 L 0.234375 0.015625 C 0.9375 -0.015625 1.640625 -0.015625 2.328125 0.015625 Z M 2.328125 0.015625 "/>
</symbol>
<symbol overflow="visible" id="glyph0-18">
<path style="stroke:none;" d="M 2.375 0.015625 L 2.375 -0.21875 C 1.765625 -0.28125 1.671875 -0.203125 1.671875 -0.859375 L 1.671875 -6.3125 L 1.625 -6.390625 C 0.859375 -6.1875 1.109375 -6.25 0.28125 -6.078125 L 0.28125 -5.859375 C 0.734375 -5.828125 0.953125 -5.9375 0.953125 -5.390625 L 0.953125 -0.859375 C 0.953125 -0.203125 0.859375 -0.28125 0.265625 -0.21875 L 0.265625 0.015625 C 0.96875 -0.015625 1.671875 -0.015625 2.375 0.015625 Z M 2.375 0.015625 "/>
</symbol>
<symbol overflow="visible" id="glyph0-19">
<path style="stroke:none;" d="M 5 -2 L 5 -2.453125 L 2.953125 -2.453125 L 2.953125 -4.46875 L 2.515625 -4.46875 L 2.515625 -2.453125 L 0.46875 -2.453125 L 0.46875 -2 L 2.515625 -2 L 2.515625 0.140625 L 2.953125 0.140625 L 2.953125 -2 Z M 5 -2 "/>
</symbol>
<symbol overflow="visible" id="glyph0-20">
<path style="stroke:none;" d="M 5.25 -2.96875 L 5.25 -3.421875 L 0.578125 -3.421875 L 0.578125 -2.96875 Z M 5.25 -1.03125 L 5.25 -1.484375 L 0.578125 -1.484375 L 0.578125 -1.03125 Z M 5.25 -1.03125 "/>
</symbol>
<symbol overflow="visible" id="glyph0-21">
<path style="stroke:none;" d="M 1.84375 -0.640625 C 1.84375 -0.875 1.59375 -1.171875 1.359375 -1.171875 C 1.203125 -1.171875 0.890625 -0.984375 0.984375 -0.796875 C 1.3125 -0.140625 0.5 0.875 0.28125 1.109375 L 0.390625 1.25 C 1.03125 1.03125 1.84375 0.015625 1.84375 -0.640625 Z M 1.84375 -0.640625 "/>
</symbol>
<symbol overflow="visible" id="glyph0-22">
<path style="stroke:none;" d="M 4.53125 -2.28125 C 4.53125 -3.234375 3.84375 -4.078125 2.84375 -4.078125 C 2.34375 -4.078125 1.875 -3.703125 1.484375 -3.453125 L 1.484375 -6.3125 L 1.4375 -6.390625 C 0.59375 -6.171875 0.84375 -6.234375 0.09375 -6.078125 L 0.09375 -5.859375 C 0.09375 -5.859375 0.75 -6.015625 0.75 -5.390625 L 0.75 -1.5625 L 0.71875 -0.34375 L 0.796875 -0.25 C 0.796875 -0.25 1.25 0.109375 2.234375 0.109375 C 4.0625 0.109375 4.53125 -1.078125 4.53125 -2.28125 Z M 3.734375 -1.96875 C 3.734375 -1.15625 3.390625 -0.265625 2.453125 -0.265625 C 2.15625 -0.265625 1.484375 -0.5 1.484375 -0.859375 L 1.484375 -3.0625 C 1.484375 -3.265625 2.1875 -3.578125 2.390625 -3.578125 C 3.328125 -3.578125 3.734375 -2.8125 3.734375 -1.96875 Z M 3.734375 -1.96875 "/>
</symbol>
<symbol overflow="visible" id="glyph0-23">
<path style="stroke:none;" d="M 4.53125 -3.765625 L 4.53125 -4 C 3.984375 -3.984375 3.453125 -3.984375 2.90625 -4 L 2.90625 -3.765625 C 3.0625 -3.75 3.453125 -3.765625 3.453125 -3.53125 C 3.453125 -3.28125 2.4375 -0.90625 2.4375 -0.90625 L 1.5 -3.421875 C 1.375 -3.765625 1.765625 -3.75 2 -3.765625 L 2 -4 C 1.359375 -3.984375 0.71875 -3.984375 0.0625 -4 L 0.0625 -3.765625 C 0.546875 -3.71875 0.59375 -3.671875 0.765625 -3.21875 L 1.75 -0.6875 C 1.828125 -0.421875 1.9375 -0.171875 2 0.09375 C 1.53125 1.3125 1.515625 0.984375 0.671875 1.5625 C 0.296875 1.8125 0.453125 2.3125 0.90625 2.3125 C 1.375 2.3125 2.046875 0.78125 2.1875 0.453125 L 3.65625 -2.890625 C 3.890625 -3.390625 3.953125 -3.6875 4.53125 -3.765625 Z M 4.53125 -3.765625 "/>
</symbol>
<symbol overflow="visible" id="glyph0-24">
<path style="stroke:none;" d="M 2.703125 -2 L 2.703125 -2.453125 L 0.453125 -2.453125 L 0.453125 -2 Z M 2.703125 -2 "/>
</symbol>
<symbol overflow="visible" id="glyph0-25">
<path style="stroke:none;" d="M 2.75 0.015625 L 2.75 -0.21875 C 1.921875 -0.28125 1.890625 -0.328125 1.890625 -1.1875 L 1.890625 -4.78125 C 1.890625 -5.640625 1.921875 -5.6875 2.75 -5.75 L 2.75 -5.96875 C 1.921875 -5.9375 1.078125 -5.953125 0.265625 -5.96875 L 0.265625 -5.75 C 1.09375 -5.6875 1.109375 -5.640625 1.109375 -4.78125 L 1.109375 -1.1875 C 1.109375 -0.328125 1.09375 -0.28125 0.265625 -0.21875 L 0.265625 0.015625 C 1.078125 -0.015625 1.921875 -0.015625 2.75 0.015625 Z M 2.75 0.015625 "/>
</symbol>
<symbol overflow="visible" id="glyph0-26">
<path style="stroke:none;" d="M 4.328125 0.03125 L 4.328125 -0.21875 C 3.890625 -0.28125 3.828125 -0.28125 3.5625 -0.65625 L 2.453125 -2.234375 L 3.453125 -3.5 C 3.65625 -3.765625 3.875 -3.734375 4.171875 -3.75 L 4.171875 -3.921875 C 3.46875 -3.90625 3.703125 -3.90625 2.9375 -3.921875 L 2.9375 -3.75 C 3.171875 -3.71875 3.1875 -3.75 3.078125 -3.53125 L 2.3125 -2.484375 C 2.3125 -2.484375 1.890625 -3.03125 1.6875 -3.390625 C 1.515625 -3.71875 1.609375 -3.671875 1.9375 -3.6875 L 1.9375 -3.921875 C 0.859375 -3.90625 1.15625 -3.90625 0.09375 -3.921875 L 0.09375 -3.703125 C 0.5 -3.640625 0.6875 -3.640625 0.9375 -3.28125 L 1.859375 -1.890625 L 0.875 -0.5625 C 0.625 -0.234375 0.453125 -0.21875 0.09375 -0.203125 L 0.09375 0.03125 C 0.859375 0.015625 0.625 0.015625 1.375 0.03125 L 1.375 -0.203125 C 1.03125 -0.203125 1.15625 -0.34375 1.1875 -0.4375 L 2.046875 -1.65625 L 2.875 -0.46875 C 3.015625 -0.171875 2.875 -0.265625 2.703125 -0.21875 L 2.703125 0.03125 C 3.609375 0.015625 3.296875 0.015625 4.328125 0.03125 Z M 4.328125 0.03125 "/>
</symbol>
<symbol overflow="visible" id="glyph0-27">
<path style="stroke:none;" d="M 4.5 -3.75 L 4.5 -3.984375 C 3.96875 -3.96875 3.453125 -3.96875 2.90625 -3.984375 L 2.90625 -3.75 C 3.078125 -3.734375 3.421875 -3.78125 3.421875 -3.53125 C 3.421875 -3.15625 2.453125 -0.859375 2.453125 -0.859375 C 2.453125 -0.859375 1.421875 -3.296875 1.421875 -3.578125 C 1.421875 -3.78125 1.8125 -3.734375 1.953125 -3.75 L 1.953125 -3.984375 C 1.3125 -3.96875 0.671875 -3.953125 0.03125 -3.984375 L 0.03125 -3.75 C 0.46875 -3.703125 0.5 -3.734375 0.671875 -3.3125 L 2.078125 0.0625 L 2.40625 0.0625 L 3.765625 -3.15625 C 3.984375 -3.640625 4 -3.703125 4.5 -3.75 Z M 4.5 -3.75 "/>
</symbol>
<symbol overflow="visible" id="glyph0-28">
<path style="stroke:none;" d="M 6.125 -5.75 L 6.125 -5.96875 C 5.484375 -5.96875 4.828125 -5.953125 4.1875 -5.96875 L 4.1875 -5.75 C 4.40625 -5.734375 4.890625 -5.765625 4.890625 -5.453125 C 4.890625 -5.0625 3.296875 -1.0625 3.296875 -1.0625 C 3.296875 -1.0625 1.609375 -5.296875 1.609375 -5.5 C 1.609375 -5.75 2.140625 -5.734375 2.3125 -5.75 L 2.3125 -5.96875 C 1.546875 -5.953125 0.796875 -5.953125 0.03125 -5.96875 L 0.03125 -5.75 C 0.546875 -5.703125 0.65625 -5.640625 0.859375 -5.125 L 2.890625 0.0625 L 3.234375 0.0625 L 5.25 -4.953125 C 5.484375 -5.515625 5.515625 -5.6875 6.125 -5.75 Z M 6.125 -5.75 "/>
</symbol>
<symbol overflow="visible" id="glyph0-29">
<path style="stroke:none;" d="M 3.65625 -0.625 L 3.546875 -0.75 C 3.21875 -0.515625 2.96875 -0.390625 2.5625 -0.390625 C 1.546875 -0.390625 1.046875 -1.296875 1.046875 -2.203125 C 1.046875 -2.9375 1.375 -3.65625 2.203125 -3.65625 C 2.453125 -3.65625 2.90625 -3.609375 3.015625 -3.359375 L 3.171875 -3 L 3.375 -2.953125 L 3.578125 -3.703125 C 3.578125 -3.9375 2.8125 -4.078125 2.625 -4.078125 C 1.40625 -4.078125 0.296875 -3.0625 0.296875 -1.828125 C 0.296875 -0.703125 1.109375 0.140625 2.234375 0.140625 C 2.625 0.140625 3.203125 -0.03125 3.453125 -0.34375 Z M 3.65625 -0.625 "/>
</symbol>
<symbol overflow="visible" id="glyph0-30">
<path style="stroke:none;" d="M 6.875 -5.75 L 6.875 -5.96875 C 6.0625 -5.9375 5.203125 -5.953125 4.390625 -5.96875 L 4.390625 -5.75 C 5.21875 -5.6875 5.234375 -5.625 5.234375 -4.78125 L 5.234375 -3.359375 C 5.015625 -3.34375 4.796875 -3.34375 4.59375 -3.34375 L 2.53125 -3.34375 C 2.3125 -3.34375 2.109375 -3.34375 1.890625 -3.359375 L 1.890625 -4.78125 C 1.890625 -5.625 1.90625 -5.6875 2.71875 -5.75 L 2.71875 -5.96875 C 1.90625 -5.9375 1.0625 -5.953125 0.234375 -5.96875 L 0.234375 -5.75 C 1.078125 -5.6875 1.109375 -5.65625 1.109375 -4.78125 L 1.109375 -1.1875 C 1.109375 -0.328125 1.09375 -0.28125 0.265625 -0.21875 L 0.265625 0.015625 C 1.078125 -0.015625 1.921875 -0.015625 2.75 0.015625 L 2.75 -0.21875 C 1.921875 -0.28125 1.890625 -0.328125 1.890625 -1.1875 L 1.890625 -2.96875 C 2.0625 -2.96875 2.234375 -2.96875 2.40625 -2.96875 L 4.71875 -2.96875 C 4.890625 -2.96875 5.0625 -2.96875 5.234375 -2.96875 L 5.234375 -1.1875 C 5.234375 -0.296875 5.1875 -0.28125 4.359375 -0.21875 L 4.359375 0.015625 C 5.1875 -0.015625 6.03125 -0.015625 6.859375 0.015625 L 6.859375 -0.21875 C 6.03125 -0.28125 6.015625 -0.328125 6.015625 -1.1875 L 6.015625 -4.78125 C 6.015625 -5.640625 6.046875 -5.6875 6.875 -5.75 Z M 6.875 -5.75 "/>
</symbol>
<symbol overflow="visible" id="glyph1-0">
<path style="stroke:none;" d=""/>
</symbol>
<symbol overflow="visible" id="glyph1-1">
<path style="stroke:none;" d="M 8.609375 -2.25 L 6.46875 -4.125 L 6.390625 -3.890625 L 7.5625 -2.453125 L 0.578125 -2.453125 L 0.578125 -2 L 7.5625 -2 L 6.390625 -0.5625 L 6.46875 -0.34375 Z M 8.609375 -2.25 "/>
</symbol>
<symbol overflow="visible" id="glyph2-0">
<path style="stroke:none;" d=""/>
</symbol>
<symbol overflow="visible" id="glyph2-1">
<path style="stroke:none;" d="M 6.296875 -2.828125 C 6.296875 -3.171875 5.984375 -3.78125 5.609375 -4 L 5.078125 -3.703125 C 5.5 -3.421875 5.625 -2.9375 5.625 -2.46875 C 5.625 -1.640625 5.109375 -0.15625 4.09375 -0.15625 C 3.578125 -0.15625 3.53125 -0.65625 3.53125 -1.046875 C 3.53125 -1.640625 3.734375 -2.265625 3.9375 -2.828125 L 3.1875 -2.65625 C 3.171875 -2.375 3.15625 -1.984375 3.078125 -1.578125 C 2.953125 -0.859375 2.5625 -0.140625 1.890625 -0.140625 C 1.359375 -0.140625 1.234375 -0.6875 1.234375 -1.125 C 1.234375 -2.40625 1.515625 -3.296875 2.734375 -3.78125 L 2.71875 -3.953125 C 1.359375 -3.65625 0.484375 -2.625 0.484375 -1.1875 C 0.484375 -0.421875 0.859375 0.109375 1.703125 0.109375 C 2.1875 0.109375 2.59375 -0.09375 2.9375 -0.40625 C 3.125 -0.03125 3.390625 0.109375 3.8125 0.109375 C 5.203125 0.109375 6.296875 -1.578125 6.296875 -2.828125 Z M 6.296875 -2.828125 "/>
</symbol>
<symbol overflow="visible" id="glyph3-0">
<path style="stroke:none;" d=""/>
</symbol>
<symbol overflow="visible" id="glyph3-1">
<path style="stroke:none;" d="M 3.703125 -2.578125 C 3.703125 -3.078125 3.46875 -3.484375 2.90625 -3.484375 C 2.453125 -3.484375 1.921875 -3.046875 1.65625 -2.71875 C 1.71875 -2.984375 1.796875 -3.265625 1.828125 -3.546875 C 1.359375 -3.28125 0.90625 -3.109375 0.4375 -2.875 L 0.484375 -2.71875 C 0.6875 -2.796875 0.890625 -2.90625 1.09375 -2.984375 C 0.984375 -1.8125 0.765625 -0.640625 0.53125 0.515625 C 0.46875 0.796875 0.390625 1.671875 0.03125 1.734375 L 0.015625 1.9375 C 0.359375 1.84375 0.828125 1.875 1.1875 1.828125 L 1.21875 1.640625 C 1.015625 1.640625 0.921875 1.546875 0.921875 1.34375 C 0.921875 0.984375 1.078125 0.265625 1.15625 -0.09375 C 1.296875 0.046875 1.4375 0.078125 1.59375 0.078125 C 2.46875 0.078125 2.640625 -0.078125 3.15625 -0.734375 C 3.5 -1.1875 3.703125 -2 3.703125 -2.578125 Z M 3.125 -2.421875 C 3.125 -1.75 2.65625 -0.25 1.78125 -0.25 C 1.546875 -0.25 1.375 -0.328125 1.234375 -0.4375 L 1.5625 -2.109375 C 1.71875 -2.625 2.1875 -3.109375 2.578125 -3.109375 C 2.890625 -3.109375 3.125 -2.953125 3.125 -2.421875 Z M 3.125 -2.421875 "/>
</symbol>
<symbol overflow="visible" id="glyph3-2">
<path style="stroke:none;" d="M 2.625 -3.21875 C 2.578125 -3.421875 2.234375 -3.484375 1.984375 -3.484375 C 1.40625 -3.484375 0.609375 -2.921875 0.609375 -2.28125 C 0.609375 -1.390625 2 -1.734375 2 -0.90625 C 2 -0.515625 1.703125 -0.25 1.328125 -0.25 C 0.546875 -0.25 0.578125 -0.515625 0.640625 -0.875 L 0.421875 -0.890625 C 0.328125 -0.671875 0.1875 -0.453125 0.234375 -0.234375 C 0.296875 0 0.734375 0.078125 1 0.078125 C 1.65625 0.078125 2.46875 -0.53125 2.46875 -1.21875 C 2.46875 -2.125 1.0625 -1.84375 1.0625 -2.578125 C 1.0625 -2.90625 1.328125 -3.15625 1.65625 -3.15625 C 2.328125 -3.15625 2.21875 -2.984375 2.296875 -2.640625 L 2.5 -2.65625 Z M 2.625 -3.21875 "/>
</symbol>
<symbol overflow="visible" id="glyph3-3">
<path style="stroke:none;" d="M 2.140625 -4.9375 C 2.140625 -5.09375 2.015625 -5.234375 1.84375 -5.234375 C 1.59375 -5.234375 1.40625 -4.984375 1.421875 -4.75 C 1.421875 -4.578125 1.546875 -4.46875 1.734375 -4.46875 C 1.96875 -4.46875 2.140625 -4.671875 2.140625 -4.9375 Z M 1.984375 -0.6875 L 1.90625 -0.828125 C 1.796875 -0.734375 1.375 -0.4375 1.265625 -0.4375 C 1.203125 -0.4375 1.1875 -0.53125 1.21875 -0.65625 L 1.8125 -3.125 C 1.859375 -3.328125 1.859375 -3.484375 1.6875 -3.484375 C 1.4375 -3.484375 0.671875 -2.96875 0.453125 -2.75 L 0.515625 -2.59375 C 0.609375 -2.6875 1.03125 -2.953125 1.125 -2.953125 C 1.28125 -2.953125 1.171875 -2.609375 1.15625 -2.53125 L 0.609375 -0.296875 C 0.546875 -0.03125 0.671875 0.078125 0.796875 0.078125 C 1 0.078125 1.515625 -0.296875 1.984375 -0.6875 Z M 1.984375 -0.6875 "/>
</symbol>
<symbol overflow="visible" id="glyph4-0">
<path style="stroke:none;" d=""/>
</symbol>
<symbol overflow="visible" id="glyph4-1">
<path style="stroke:none;" d="M 3.890625 -1.453125 C 3.890625 -2.125 3.1875 -2.546875 2.578125 -2.609375 C 3.109375 -2.71875 3.625 -3.078125 3.625 -3.671875 C 3.625 -4.453125 2.96875 -4.640625 2.328125 -4.640625 C 1.625 -4.640625 0.921875 -4.625 0.234375 -4.640625 L 0.234375 -4.46875 C 0.84375 -4.421875 0.828125 -4.34375 0.828125 -3.71875 L 0.828125 -0.828125 C 0.828125 -0.390625 0.828125 -0.203125 0.34375 -0.15625 L 0.34375 0 C 0.84375 0 1.328125 0.015625 1.828125 0.015625 C 2.78125 0.015625 3.890625 -0.296875 3.890625 -1.453125 Z M 2.96875 -3.5625 C 2.96875 -2.640625 2.125 -2.609375 1.453125 -2.65625 L 1.453125 -4.265625 C 1.453125 -4.421875 1.859375 -4.40625 1.953125 -4.40625 C 2.546875 -4.40625 2.96875 -4.203125 2.96875 -3.5625 Z M 3.265625 -1.34375 C 3.265625 -0.609375 2.78125 -0.25 2.078125 -0.25 C 1.84375 -0.25 1.515625 -0.265625 1.515625 -0.578125 L 1.515625 -2.421875 C 2.3125 -2.46875 3.265625 -2.40625 3.265625 -1.34375 Z M 3.265625 -1.34375 "/>
</symbol>
<symbol overflow="visible" id="glyph4-2">
<path style="stroke:none;" d="M 5.078125 -2.421875 C 5.078125 -3.828125 4.109375 -4.75 2.71875 -4.75 C 1.265625 -4.75 0.234375 -3.734375 0.234375 -2.28125 C 0.234375 -0.9375 1.171875 0.125 2.546875 0.125 C 4 0.125 5.078125 -0.96875 5.078125 -2.421875 Z M 4.375 -2.1875 C 4.375 -1.171875 3.9375 -0.140625 2.765625 -0.140625 C 1.46875 -0.140625 0.9375 -1.390625 0.9375 -2.515625 C 0.9375 -3.5625 1.40625 -4.5 2.578125 -4.5 C 3.890625 -4.5 4.375 -3.34375 4.375 -2.1875 Z M 4.375 -2.1875 "/>
</symbol>
<symbol overflow="visible" id="glyph5-0">
<path style="stroke:none;" d=""/>
</symbol>
<symbol overflow="visible" id="glyph5-1">
<path style="stroke:none;" d="M 4.109375 -2.859375 L 3.78125 -3.15625 C 3.265625 -2.640625 2.71875 -2.140625 2.21875 -1.609375 C 2.203125 -1.890625 2.140625 -2.984375 1.90625 -3.125 C 1.84375 -3.171875 1.765625 -3.1875 1.6875 -3.1875 C 1.390625 -3.1875 1.046875 -2.75 0.84375 -2.5625 L 0.875 -2.453125 C 0.96875 -2.53125 1.21875 -2.765625 1.34375 -2.765625 C 1.4375 -2.765625 1.515625 -2.71875 1.578125 -2.65625 C 1.734375 -2.5 1.828125 -1.46875 1.859375 -1.203125 C 1.21875 -0.53125 0.6875 0.203125 0.21875 1 L 0.578125 1.265625 C 0.96875 0.46875 1.40625 -0.171875 1.921875 -0.90625 C 1.96875 -0.484375 2.015625 0.703125 2.28125 0.96875 C 2.375 1.078125 2.546875 1.140625 2.6875 1.140625 C 3 1.140625 3.328125 0.828125 3.546875 0.640625 L 3.484375 0.5625 C 3.375 0.640625 3.1875 0.78125 3.0625 0.78125 C 2.953125 0.78125 2.875 0.75 2.796875 0.6875 C 2.484375 0.484375 2.3125 -0.921875 2.265625 -1.3125 C 2.6875 -1.703125 3.59375 -2.734375 4.109375 -2.859375 Z M 4.109375 -2.859375 "/>
</symbol>
<symbol overflow="visible" id="glyph6-0">
<path style="stroke:none;" d=""/>
</symbol>
<symbol overflow="visible" id="glyph6-1">
<path style="stroke:none;" d="M 1.703125 1.453125 C 1.15625 0.640625 0.875 -0.515625 0.875 -1.515625 C 0.875 -2.5 1.140625 -3.59375 1.703125 -4.40625 C 0.84375 -3.71875 0.4375 -2.625 0.4375 -1.515625 C 0.4375 -0.375 0.84375 0.75 1.703125 1.453125 Z M 1.703125 1.453125 "/>
</symbol>
<symbol overflow="visible" id="glyph6-2">
<path style="stroke:none;" d="M 2.953125 -0.34375 L 2.875 -0.640625 C 2.515625 -0.453125 2.15625 -0.421875 1.8125 -0.421875 C 1.546875 -0.421875 1.078125 -0.453125 1.078125 -0.453125 L 1.953125 -1.453125 C 2.328125 -1.875 2.734375 -2.3125 2.734375 -2.890625 C 2.734375 -3.546875 2.265625 -3.9375 1.640625 -3.9375 C 1.28125 -3.9375 0.984375 -3.8125 0.734375 -3.5625 L 0.515625 -2.921875 L 0.65625 -2.875 L 0.765625 -3.09375 C 0.921875 -3.375 1.09375 -3.53125 1.4375 -3.53125 C 1.9375 -3.53125 2.234375 -3.1875 2.234375 -2.703125 C 2.234375 -2.125 1.75 -1.578125 1.390625 -1.15625 L 0.40625 -0.109375 L 0.40625 0 C 0.625 0 1.9375 0.015625 2 0 C 2.625 -0.25 2.453125 -0.171875 2.953125 -0.34375 Z M 2.953125 -0.34375 "/>
</symbol>
<symbol overflow="visible" id="glyph6-3">
<path style="stroke:none;" d="M 1.53125 -1.5 C 1.53125 -2.625 1.140625 -3.71875 0.265625 -4.40625 C 0.859375 -3.59375 1.09375 -2.453125 1.09375 -1.515625 C 1.09375 -0.546875 0.859375 0.5625 0.265625 1.453125 C 1.140625 0.75 1.53125 -0.375 1.53125 -1.5 Z M 1.53125 -1.5 "/>
</symbol>
<symbol overflow="visible" id="glyph7-0">
<path style="stroke:none;" d=""/>
</symbol>
<symbol overflow="visible" id="glyph7-1">
<path style="stroke:none;" d="M 5.109375 0 L 5.109375 -0.296875 C 4.859375 -0.328125 4.71875 -0.421875 4.53125 -0.625 L 3 -2.5 L 3.953125 -3.390625 C 4.25 -3.6875 4.421875 -3.671875 4.828125 -3.71875 L 4.828125 -4.03125 L 3.03125 -4 L 3.03125 -3.640625 L 3.265625 -3.609375 L 1.96875 -2.203125 L 1.96875 -6.296875 L 1.9375 -6.375 C 1.359375 -6.25 0.828125 -6.09375 0.25 -6.015625 L 0.25 -5.734375 C 0.8125 -5.6875 0.90625 -5.796875 0.90625 -5.125 L 0.90625 -0.890625 C 0.90625 -0.265625 0.75 -0.34375 0.234375 -0.296875 L 0.234375 0.015625 C 1.03125 0 1.8125 -0.015625 2.59375 0.015625 L 2.59375 -0.328125 C 2.0625 -0.421875 1.96875 -0.15625 1.96875 -0.890625 L 1.96875 -1.9375 L 2.1875 -1.890625 L 3.71875 0.125 Z M 5.109375 0 "/>
</symbol>
</g>
<clipPath id="clip1">
  <path d="M 86 47 L 121 47 L 121 73 L 86 73 Z M 86 47 "/>
</clipPath>
<clipPath id="clip2">
  <path d="M 89.050781 72.078125 L 86.289062 52.433594 C 86.175781 51.625 86.738281 50.875 87.550781 50.757812 L 116.226562 46.730469 C 117.039062 46.613281 117.789062 47.179688 117.902344 47.992188 L 120.664062 67.636719 C 120.777344 68.445312 120.210938 69.199219 119.402344 69.3125 L 90.726562 73.339844 C 89.914062 73.457031 89.164062 72.890625 89.050781 72.078125 Z M 89.050781 72.078125 "/>
</clipPath>
<linearGradient id="linear0" gradientUnits="userSpaceOnUse" x1="0" y1="25.173679" x2="0" y2="74.826395" gradientTransform="matrix(0.695836,0,0,-0.540564,68.684481,87.063512)">
<stop offset="0" style="stop-color:rgb(71.641541%,73.698425%,74.873352%);stop-opacity:1;"/>
<stop offset="0.015625" style="stop-color:rgb(71.803284%,73.855591%,75.028992%);stop-opacity:1;"/>
<stop offset="0.03125" style="stop-color:rgb(72.12677%,74.169922%,75.338745%);stop-opacity:1;"/>
<stop offset="0.046875" style="stop-color:rgb(72.451782%,74.485779%,75.650024%);stop-opacity:1;"/>
<stop offset="0.0625" style="stop-color:rgb(72.775269%,74.801636%,75.959778%);stop-opacity:1;"/>
<stop offset="0.078125" style="stop-color:rgb(73.098755%,75.117493%,76.271057%);stop-opacity:1;"/>
<stop offset="0.09375" style="stop-color:rgb(73.423767%,75.431824%,76.582336%);stop-opacity:1;"/>
<stop offset="0.109375" style="stop-color:rgb(73.747253%,75.747681%,76.89209%);stop-opacity:1;"/>
<stop offset="0.125" style="stop-color:rgb(74.07074%,76.063538%,77.203369%);stop-opacity:1;"/>
<stop offset="0.140625" style="stop-color:rgb(74.395752%,76.379395%,77.513123%);stop-opacity:1;"/>
<stop offset="0.15625" style="stop-color:rgb(74.719238%,76.693726%,77.824402%);stop-opacity:1;"/>
<stop offset="0.171875" style="stop-color:rgb(75.04425%,77.009583%,78.134155%);stop-opacity:1;"/>
<stop offset="0.1875" style="stop-color:rgb(75.367737%,77.325439%,78.445435%);stop-opacity:1;"/>
<stop offset="0.203125" style="stop-color:rgb(75.691223%,77.641296%,78.755188%);stop-opacity:1;"/>
<stop offset="0.21875" style="stop-color:rgb(76.016235%,77.955627%,79.066467%);stop-opacity:1;"/>
<stop offset="0.234375" style="stop-color:rgb(76.339722%,78.271484%,79.377747%);stop-opacity:1;"/>
<stop offset="0.25" style="stop-color:rgb(76.663208%,78.587341%,79.6875%);stop-opacity:1;"/>
<stop offset="0.265625" style="stop-color:rgb(76.98822%,78.903198%,79.998779%);stop-opacity:1;"/>
<stop offset="0.28125" style="stop-color:rgb(77.311707%,79.217529%,80.308533%);stop-opacity:1;"/>
<stop offset="0.296875" style="stop-color:rgb(77.635193%,79.533386%,80.619812%);stop-opacity:1;"/>
<stop offset="0.3125" style="stop-color:rgb(77.960205%,79.849243%,80.929565%);stop-opacity:1;"/>
<stop offset="0.328125" style="stop-color:rgb(78.283691%,80.1651%,81.240845%);stop-opacity:1;"/>
<stop offset="0.34375" style="stop-color:rgb(78.607178%,80.479431%,81.550598%);stop-opacity:1;"/>
<stop offset="0.359375" style="stop-color:rgb(78.93219%,80.795288%,81.861877%);stop-opacity:1;"/>
<stop offset="0.375" style="stop-color:rgb(79.255676%,81.111145%,82.173157%);stop-opacity:1;"/>
<stop offset="0.390625" style="stop-color:rgb(79.579163%,81.427002%,82.48291%);stop-opacity:1;"/>
<stop offset="0.40625" style="stop-color:rgb(79.904175%,81.741333%,82.794189%);stop-opacity:1;"/>
<stop offset="0.421875" style="stop-color:rgb(80.227661%,82.05719%,83.103943%);stop-opacity:1;"/>
<stop offset="0.4375" style="stop-color:rgb(80.551147%,82.373047%,83.415222%);stop-opacity:1;"/>
<stop offset="0.453125" style="stop-color:rgb(80.87616%,82.688904%,83.724976%);stop-opacity:1;"/>
<stop offset="0.46875" style="stop-color:rgb(81.199646%,83.003235%,84.036255%);stop-opacity:1;"/>
<stop offset="0.484375" style="stop-color:rgb(81.523132%,83.319092%,84.346008%);stop-opacity:1;"/>
<stop offset="0.5" style="stop-color:rgb(81.848145%,83.634949%,84.657288%);stop-opacity:1;"/>
<stop offset="0.515625" style="stop-color:rgb(82.171631%,83.950806%,84.968567%);stop-opacity:1;"/>
<stop offset="0.53125" style="stop-color:rgb(82.495117%,84.265137%,85.27832%);stop-opacity:1;"/>
<stop offset="0.546875" style="stop-color:rgb(82.820129%,84.580994%,85.5896%);stop-opacity:1;"/>
<stop offset="0.5625" style="stop-color:rgb(83.143616%,84.896851%,85.899353%);stop-opacity:1;"/>
<stop offset="0.578125" style="stop-color:rgb(83.467102%,85.212708%,86.210632%);stop-opacity:1;"/>
<stop offset="0.59375" style="stop-color:rgb(83.792114%,85.527039%,86.521912%);stop-opacity:1;"/>
<stop offset="0.609375" style="stop-color:rgb(84.115601%,85.842896%,86.831665%);stop-opacity:1;"/>
<stop offset="0.625" style="stop-color:rgb(84.439087%,86.158752%,87.142944%);stop-opacity:1;"/>
<stop offset="0.640625" style="stop-color:rgb(84.764099%,86.474609%,87.452698%);stop-opacity:1;"/>
<stop offset="0.65625" style="stop-color:rgb(85.087585%,86.78894%,87.763977%);stop-opacity:1;"/>
<stop offset="0.671875" style="stop-color:rgb(85.411072%,87.104797%,88.07373%);stop-opacity:1;"/>
<stop offset="0.6875" style="stop-color:rgb(85.736084%,87.420654%,88.38501%);stop-opacity:1;"/>
<stop offset="0.703125" style="stop-color:rgb(86.05957%,87.736511%,88.696289%);stop-opacity:1;"/>
<stop offset="0.71875" style="stop-color:rgb(86.383057%,88.050842%,89.006042%);stop-opacity:1;"/>
<stop offset="0.734375" style="stop-color:rgb(86.708069%,88.366699%,89.317322%);stop-opacity:1;"/>
<stop offset="0.75" style="stop-color:rgb(87.031555%,88.682556%,89.627075%);stop-opacity:1;"/>
<stop offset="0.765625" style="stop-color:rgb(87.355042%,88.998413%,89.938354%);stop-opacity:1;"/>
<stop offset="0.78125" style="stop-color:rgb(87.680054%,89.312744%,90.248108%);stop-opacity:1;"/>
<stop offset="0.796875" style="stop-color:rgb(88.00354%,89.628601%,90.559387%);stop-opacity:1;"/>
<stop offset="0.8125" style="stop-color:rgb(88.327026%,89.944458%,90.870667%);stop-opacity:1;"/>
<stop offset="0.828125" style="stop-color:rgb(88.652039%,90.260315%,91.18042%);stop-opacity:1;"/>
<stop offset="0.84375" style="stop-color:rgb(88.975525%,90.574646%,91.491699%);stop-opacity:1;"/>
<stop offset="0.859375" style="stop-color:rgb(89.299011%,90.890503%,91.801453%);stop-opacity:1;"/>
<stop offset="0.875" style="stop-color:rgb(89.624023%,91.20636%,92.112732%);stop-opacity:1;"/>
<stop offset="0.890625" style="stop-color:rgb(89.94751%,91.522217%,92.424011%);stop-opacity:1;"/>
<stop offset="0.90625" style="stop-color:rgb(90.270996%,91.836548%,92.733765%);stop-opacity:1;"/>
<stop offset="0.921875" style="stop-color:rgb(90.594482%,92.152405%,93.045044%);stop-opacity:1;"/>
<stop offset="0.9375" style="stop-color:rgb(90.919495%,92.468262%,93.354797%);stop-opacity:1;"/>
<stop offset="0.953125" style="stop-color:rgb(91.242981%,92.784119%,93.666077%);stop-opacity:1;"/>
<stop offset="0.96875" style="stop-color:rgb(91.566467%,93.09845%,93.97583%);stop-opacity:1;"/>
<stop offset="0.984375" style="stop-color:rgb(91.891479%,93.414307%,94.287109%);stop-opacity:1;"/>
<stop offset="1" style="stop-color:rgb(92.214966%,93.730164%,94.598389%);stop-opacity:1;"/>
</linearGradient>
</defs>
<g id="surface1">
<g style="fill:rgb(27.450562%,27.450562%,27.450562%);fill-opacity:1;">
  <use xlink:href="#glyph0-1" x="7.539437" y="13.805089"/>
  <use xlink:href="#glyph0-2" x="10.576095" y="13.805089"/>
  <use xlink:href="#glyph0-3" x="14.966337" y="13.805089"/>
</g>
<g style="fill:rgb(27.450562%,27.450562%,27.450562%);fill-opacity:1;">
  <use xlink:href="#glyph0-4" x="22.606962" y="13.805089"/>
  <use xlink:href="#glyph0-5" x="27.291074" y="13.805089"/>
  <use xlink:href="#glyph0-6" x="32.536211" y="13.805089"/>
</g>
<g style="fill:rgb(27.450562%,27.450562%,27.450562%);fill-opacity:1;">
  <use xlink:href="#glyph0-7" x="39.02807" y="13.805089"/>
  <use xlink:href="#glyph0-8" x="44.362259" y="13.805089"/>
  <use xlink:href="#glyph0-9" x="49.669732" y="13.805089"/>
</g>
<g style="fill:rgb(27.450562%,27.450562%,27.450562%);fill-opacity:1;">
  <use xlink:href="#glyph0-7" x="57.408313" y="13.805089"/>
</g>
<g style="fill:rgb(27.450562%,27.450562%,27.450562%);fill-opacity:1;">
  <use xlink:href="#glyph0-7" x="65.004411" y="13.805089"/>
  <use xlink:href="#glyph0-10" x="70.3386" y="13.805089"/>
  <use xlink:href="#glyph0-4" x="75.521401" y="13.805089"/>
  <use xlink:href="#glyph0-11" x="80.205514" y="13.805089"/>
  <use xlink:href="#glyph0-4" x="83.340129" y="13.805089"/>
  <use xlink:href="#glyph0-5" x="88.024241" y="13.805089"/>
</g>
<g style="fill:rgb(27.450562%,27.450562%,27.450562%);fill-opacity:1;">
  <use xlink:href="#glyph1-1" x="95.546383" y="13.805089"/>
</g>
<g style="fill:rgb(27.450562%,27.450562%,27.450562%);fill-opacity:1;">
  <use xlink:href="#glyph0-11" x="106.846693" y="13.805089"/>
  <use xlink:href="#glyph0-12" x="109.981308" y="13.805089"/>
</g>
<g style="fill:rgb(27.450562%,27.450562%,27.450562%);fill-opacity:1;">
  <use xlink:href="#glyph0-4" x="116.873899" y="13.805089"/>
</g>
<g style="fill:rgb(27.450562%,27.450562%,27.450562%);fill-opacity:1;">
  <use xlink:href="#glyph0-13" x="123.828826" y="13.805089"/>
  <use xlink:href="#glyph0-2" x="129.118489" y="13.805089"/>
</g>
<g style="fill:rgb(27.450562%,27.450562%,27.450562%);fill-opacity:1;">
  <use xlink:href="#glyph0-8" x="133.366249" y="13.805089"/>
  <use xlink:href="#glyph0-14" x="138.673722" y="13.805089"/>
  <use xlink:href="#glyph0-10" x="143.40236" y="13.805089"/>
  <use xlink:href="#glyph0-11" x="148.585161" y="13.805089"/>
  <use xlink:href="#glyph0-6" x="151.719776" y="13.805089"/>
  <use xlink:href="#glyph0-15" x="155.94082" y="13.805089"/>
</g>
<g style="fill:rgb(27.450562%,27.450562%,27.450562%);fill-opacity:1;">
  <use xlink:href="#glyph0-7" x="161.827129" y="13.805089"/>
  <use xlink:href="#glyph0-10" x="167.161317" y="13.805089"/>
  <use xlink:href="#glyph0-4" x="172.344118" y="13.805089"/>
  <use xlink:href="#glyph0-11" x="177.028231" y="13.805089"/>
  <use xlink:href="#glyph0-4" x="180.162846" y="13.805089"/>
  <use xlink:href="#glyph0-5" x="184.846958" y="13.805089"/>
  <use xlink:href="#glyph0-16" x="190.092095" y="13.805089"/>
</g>
<path style="fill:none;stroke-width:1.59404;stroke-linecap:round;stroke-linejoin:round;stroke:rgb(5.880737%,35.293579%,43.136597%);stroke-opacity:1;stroke-miterlimit:10;" d="M -0.000912402 25.512098 L 60.391926 25.512098 " transform="matrix(0.993172,0,0,-0.993172,19.016531,85.373054)"/>
<path style="fill-rule:nonzero;fill:rgb(5.880737%,35.293579%,43.136597%);fill-opacity:1;stroke-width:1.33937;stroke-linecap:round;stroke-linejoin:miter;stroke:rgb(5.880737%,35.293579%,43.136597%);stroke-opacity:1;stroke-miterlimit:10;" d="M 6.029985 0.000167919 L 2.163742 1.471149 L 3.4656 0.000167919 L 2.163742 -1.470814 Z M 6.029985 0.000167919 " transform="matrix(0.993172,0,0,-0.993172,75.886188,60.035323)"/>
<g style="fill:rgb(5.880737%,35.293579%,43.136597%);fill-opacity:1;">
  <use xlink:href="#glyph0-7" x="28.529131" y="50.612039"/>
  <use xlink:href="#glyph0-8" x="33.86332" y="50.612039"/>
  <use xlink:href="#glyph0-9" x="39.170793" y="50.612039"/>
</g>
<g style="fill:rgb(5.880737%,35.293579%,43.136597%);fill-opacity:1;">
  <use xlink:href="#glyph0-7" x="46.900469" y="50.612039"/>
</g>
<g style="fill:rgb(5.880737%,35.293579%,43.136597%);fill-opacity:1;">
  <use xlink:href="#glyph2-1" x="54.504549" y="50.612039"/>
</g>
<g style="fill:rgb(5.880737%,35.293579%,43.136597%);fill-opacity:1;">
  <use xlink:href="#glyph3-1" x="61.103183" y="52.437489"/>
</g>
<g clip-path="url(#clip1)" clip-rule="nonzero">
<g clip-path="url(#clip2)" clip-rule="nonzero">
<path style=" stroke:none;fill-rule:nonzero;fill:url(#linear0);" d="M 86.175781 73.457031 L 86.175781 46.613281 L 120.777344 46.613281 L 120.777344 73.457031 Z M 86.175781 73.457031 "/>
</g>
</g>
<path style="fill:none;stroke-width:0.3985;stroke-linecap:round;stroke-linejoin:round;stroke:rgb(67.353821%,67.353821%,67.353821%);stroke-opacity:1;stroke-miterlimit:10;" d="M 70.51574 13.386333 L 67.735035 33.165922 C 67.620975 33.980075 68.187342 34.735231 69.005428 34.853224 L 97.878357 38.908256 C 98.696443 39.026249 99.451599 38.455949 99.565659 37.637863 L 102.346365 17.858274 C 102.460425 17.044121 101.890125 16.285032 101.075972 16.170972 L 72.203043 12.11594 C 71.384957 11.997947 70.6298 12.568247 70.51574 13.386333 Z M 70.51574 13.386333 " transform="matrix(0.993172,0,0,-0.993172,19.016531,85.373054)"/>
<path style="fill:none;stroke-width:0.69739;stroke-linecap:round;stroke-linejoin:round;stroke:rgb(100%,100%,100%);stroke-opacity:1;stroke-miterlimit:10;" d="M 75.70744 14.924177 L 79.970927 34.074469 " transform="matrix(0.993172,0,0,-0.993172,19.016531,85.373054)"/>
<path style="fill:none;stroke-width:0.69739;stroke-linecap:round;stroke-linejoin:round;stroke:rgb(100%,100%,100%);stroke-opacity:1;stroke-miterlimit:10;" d="M 87.078049 16.524951 L 91.341535 35.67131 " transform="matrix(0.993172,0,0,-0.993172,19.016531,85.373054)"/>
<g style="fill:rgb(27.450562%,27.450562%,27.450562%);fill-opacity:1;">
  <use xlink:href="#glyph4-1" x="89.496973" y="84.791056"/>
  <use xlink:href="#glyph4-1" x="93.812016" y="84.791056"/>
  <use xlink:href="#glyph4-2" x="98.127058" y="84.791056"/>
</g>
<g style="fill:rgb(27.450562%,27.450562%,27.450562%);fill-opacity:1;">
  <use xlink:href="#glyph5-1" x="105.295358" y="84.791056"/>
</g>
<g style="fill:rgb(27.450562%,27.450562%,27.450562%);fill-opacity:1;">
  <use xlink:href="#glyph6-1" x="109.762645" y="82.348846"/>
  <use xlink:href="#glyph6-2" x="111.787082" y="82.348846"/>
  <use xlink:href="#glyph6-3" x="115.022619" y="82.348846"/>
</g>
<path style="fill:none;stroke-width:1.59404;stroke-linecap:round;stroke-linejoin:round;stroke:rgb(69.018555%,20.783997%,41.96167%);stroke-opacity:1;stroke-miterlimit:10;" d="M 102.613816 29.763785 L 162.711672 50.849165 " transform="matrix(0.993172,0,0,-0.993172,19.016531,85.373054)"/>
<path style="fill-rule:nonzero;fill:rgb(69.018555%,20.783997%,41.96167%);fill-opacity:1;stroke-width:1.33937;stroke-linecap:round;stroke-linejoin:miter;stroke:rgb(69.018555%,20.783997%,41.96167%);stroke-opacity:1;stroke-miterlimit:10;" d="M 6.028201 -0.00100008 L 2.163935 1.471582 L 3.465679 0.0019211 L 2.161276 -1.470353 Z M 6.028201 -0.00100008 " transform="matrix(0.937117,-0.328809,-0.328809,-0.937117,177.682571,35.899161)"/>
<g style="fill:rgb(69.018555%,20.783997%,41.96167%);fill-opacity:1;">
  <use xlink:href="#glyph0-16" x="144.613046" y="27.741277"/>
  <use xlink:href="#glyph0-17" x="148.299781" y="27.741277"/>
  <use xlink:href="#glyph0-14" x="150.998044" y="27.741277"/>
  <use xlink:href="#glyph0-5" x="155.726682" y="27.741277"/>
  <use xlink:href="#glyph0-2" x="160.971819" y="27.741277"/>
  <use xlink:href="#glyph0-18" x="165.362061" y="27.741277"/>
</g>
<g style="fill:rgb(69.018555%,20.783997%,41.96167%);fill-opacity:1;">
  <use xlink:href="#glyph2-1" x="170.447433" y="27.741277"/>
</g>
<g style="fill:rgb(69.018555%,20.783997%,41.96167%);fill-opacity:1;">
  <use xlink:href="#glyph3-2" x="177.046067" y="29.566727"/>
</g>
<path style="fill:none;stroke-width:1.59404;stroke-linecap:round;stroke-linejoin:round;stroke:rgb(5.880737%,35.293579%,43.136597%);stroke-opacity:1;stroke-miterlimit:10;" d="M 102.613816 21.260411 L 162.711672 0.175031 " transform="matrix(0.993172,0,0,-0.993172,19.016531,85.373054)"/>
<path style="fill-rule:nonzero;fill:rgb(5.880737%,35.293579%,43.136597%);fill-opacity:1;stroke-width:1.33937;stroke-linecap:round;stroke-linejoin:miter;stroke:rgb(5.880737%,35.293579%,43.136597%);stroke-opacity:1;stroke-miterlimit:10;" d="M 6.028245 0.000873474 L 2.16132 1.470227 L 3.465724 -0.0020477 L 2.16398 -1.471708 Z M 6.028245 0.000873474 " transform="matrix(0.937117,0.328809,0.328809,-0.937117,177.682571,84.171018)"/>
<g style="fill:rgb(5.880737%,35.293579%,43.136597%);fill-opacity:1;">
  <use xlink:href="#glyph0-17" x="147.226082" y="97.441086"/>
  <use xlink:href="#glyph0-13" x="149.924344" y="97.441086"/>
  <use xlink:href="#glyph0-18" x="155.214007" y="97.441086"/>
  <use xlink:href="#glyph0-6" x="158.028036" y="97.441086"/>
  <use xlink:href="#glyph0-15" x="162.249081" y="97.441086"/>
</g>
<g style="fill:rgb(5.880737%,35.293579%,43.136597%);fill-opacity:1;">
  <use xlink:href="#glyph2-1" x="168.135329" y="97.441086"/>
</g>
<g style="fill:rgb(5.880737%,35.293579%,43.136597%);fill-opacity:1;">
  <use xlink:href="#glyph3-3" x="174.733963" y="99.266536"/>
</g>
<g style="fill:rgb(27.450562%,27.450562%,27.450562%);fill-opacity:1;">
  <use xlink:href="#glyph2-1" x="47.145145" y="116.211041"/>
</g>
<g style="fill:rgb(27.450562%,27.450562%,27.450562%);fill-opacity:1;">
  <use xlink:href="#glyph3-2" x="53.743779" y="118.036491"/>
</g>
<g style="fill:rgb(27.450562%,27.450562%,27.450562%);fill-opacity:1;">
  <use xlink:href="#glyph0-19" x="58.761283" y="116.211041"/>
</g>
<g style="fill:rgb(27.450562%,27.450562%,27.450562%);fill-opacity:1;">
  <use xlink:href="#glyph2-1" x="65.819756" y="116.211041"/>
</g>
<g style="fill:rgb(27.450562%,27.450562%,27.450562%);fill-opacity:1;">
  <use xlink:href="#glyph3-3" x="72.41839" y="118.036491"/>
</g>
<g style="fill:rgb(27.450562%,27.450562%,27.450562%);fill-opacity:1;">
  <use xlink:href="#glyph0-20" x="77.629563" y="116.211041"/>
</g>
<g style="fill:rgb(27.450562%,27.450562%,27.450562%);fill-opacity:1;">
  <use xlink:href="#glyph2-1" x="85.440859" y="116.211041"/>
</g>
<g style="fill:rgb(27.450562%,27.450562%,27.450562%);fill-opacity:1;">
  <use xlink:href="#glyph3-1" x="92.039493" y="118.036491"/>
</g>
<g style="fill:rgb(27.450562%,27.450562%,27.450562%);fill-opacity:1;">
  <use xlink:href="#glyph0-21" x="96.745142" y="116.211041"/>
</g>
<g style="fill:rgb(27.450562%,27.450562%,27.450562%);fill-opacity:1;">
  <use xlink:href="#glyph7-1" x="107.965997" y="116.211041"/>
</g>
<g style="fill:rgb(27.450562%,27.450562%,27.450562%);fill-opacity:1;">
  <use xlink:href="#glyph3-2" x="113.433409" y="118.036491"/>
</g>
<g style="fill:rgb(27.450562%,27.450562%,27.450562%);fill-opacity:1;">
  <use xlink:href="#glyph0-19" x="118.450913" y="116.211041"/>
</g>
<g style="fill:rgb(27.450562%,27.450562%,27.450562%);fill-opacity:1;">
  <use xlink:href="#glyph7-1" x="125.509385" y="116.211041"/>
</g>
<g style="fill:rgb(27.450562%,27.450562%,27.450562%);fill-opacity:1;">
  <use xlink:href="#glyph3-3" x="130.97779" y="118.036491"/>
</g>
<g style="fill:rgb(27.450562%,27.450562%,27.450562%);fill-opacity:1;">
  <use xlink:href="#glyph0-20" x="136.187969" y="116.211041"/>
</g>
<g style="fill:rgb(27.450562%,27.450562%,27.450562%);fill-opacity:1;">
  <use xlink:href="#glyph7-1" x="144.000259" y="116.211041"/>
</g>
<g style="fill:rgb(27.450562%,27.450562%,27.450562%);fill-opacity:1;">
  <use xlink:href="#glyph3-1" x="149.467671" y="118.036491"/>
</g>
<g style="fill:rgb(27.450562%,27.450562%,27.450562%);fill-opacity:1;">
  <use xlink:href="#glyph0-1" x="226.829801" y="15.776535"/>
  <use xlink:href="#glyph0-22" x="229.866459" y="15.776535"/>
  <use xlink:href="#glyph0-3" x="234.844441" y="15.776535"/>
</g>
<g style="fill:rgb(27.450562%,27.450562%,27.450562%);fill-opacity:1;">
  <use xlink:href="#glyph0-11" x="242.485066" y="15.776535"/>
  <use xlink:href="#glyph0-23" x="245.619681" y="15.776535"/>
  <use xlink:href="#glyph0-7" x="250.303793" y="15.776535"/>
  <use xlink:href="#glyph0-6" x="255.637982" y="15.776535"/>
  <use xlink:href="#glyph0-24" x="259.859026" y="15.776535"/>
  <use xlink:href="#glyph0-25" x="263.100503" y="15.776535"/>
  <use xlink:href="#glyph0-25" x="266.315264" y="15.776535"/>
  <use xlink:href="#glyph0-21" x="269.530026" y="15.776535"/>
</g>
<g style="fill:rgb(27.450562%,27.450562%,27.450562%);fill-opacity:1;">
  <use xlink:href="#glyph0-22" x="274.116181" y="15.776535"/>
  <use xlink:href="#glyph0-6" x="279.094164" y="15.776535"/>
  <use xlink:href="#glyph0-2" x="283.315208" y="15.776535"/>
  <use xlink:href="#glyph0-9" x="287.70545" y="15.776535"/>
  <use xlink:href="#glyph0-24" x="295.524177" y="15.776535"/>
</g>
<g style="fill:rgb(27.450562%,27.450562%,27.450562%);fill-opacity:1;">
  <use xlink:href="#glyph0-2" x="298.551931" y="15.776535"/>
  <use xlink:href="#glyph0-26" x="302.942173" y="15.776535"/>
  <use xlink:href="#glyph0-17" x="307.546139" y="15.776535"/>
  <use xlink:href="#glyph0-16" x="310.244401" y="15.776535"/>
</g>
<g style="fill:rgb(27.450562%,27.450562%,27.450562%);fill-opacity:1;">
  <use xlink:href="#glyph0-27" x="316.193045" y="15.776535"/>
  <use xlink:href="#glyph0-17" x="320.966209" y="15.776535"/>
  <use xlink:href="#glyph0-6" x="323.664472" y="15.776535"/>
  <use xlink:href="#glyph0-12" x="327.885516" y="15.776535"/>
</g>
<path style="fill:none;stroke-width:1.49442;stroke-linecap:round;stroke-linejoin:round;stroke:rgb(69.018555%,20.783997%,41.96167%);stroke-opacity:1;stroke-miterlimit:10;" d="M 291.973192 30.330152 C 291.973192 45.987846 279.28106 58.676045 263.627299 58.676045 C 247.969605 58.676045 235.277473 45.987846 235.277473 30.330152 C 235.277473 14.676392 247.969605 1.984259 263.627299 1.984259 C 279.28106 1.984259 291.973192 14.676392 291.973192 30.330152 Z M 291.973192 30.330152 " transform="matrix(0.993172,0,0,-0.993172,19.016531,85.373054)"/>
<g style="fill:rgb(69.018555%,20.783997%,41.96167%);fill-opacity:1;">
  <use xlink:href="#glyph0-28" x="223.758913" y="38.431779"/>
</g>
<g style="fill:rgb(69.018555%,20.783997%,41.96167%);fill-opacity:1;">
  <use xlink:href="#glyph0-29" x="232.441441" y="38.431779"/>
  <use xlink:href="#glyph0-4" x="236.493287" y="38.431779"/>
  <use xlink:href="#glyph0-5" x="241.177399" y="38.431779"/>
  <use xlink:href="#glyph0-6" x="246.422536" y="38.431779"/>
</g>
<path style="fill:none;stroke-width:1.49442;stroke-linecap:round;stroke-linejoin:round;stroke:rgb(5.880737%,35.293579%,43.136597%);stroke-opacity:1;stroke-miterlimit:10;" d="M 291.973192 4.820029 C 291.973192 20.473789 279.28106 33.165922 263.627299 33.165922 C 247.969605 33.165922 235.277473 20.473789 235.277473 4.820029 C 235.277473 -10.837665 247.969605 -23.529798 263.627299 -23.529798 C 279.28106 -23.529798 291.973192 -10.837665 291.973192 4.820029 Z M 291.973192 4.820029 " transform="matrix(0.993172,0,0,-0.993172,19.016531,85.373054)"/>
<g style="fill:rgb(5.880737%,35.293579%,43.136597%);fill-opacity:1;">
  <use xlink:href="#glyph0-30" x="223.420242" y="103.183606"/>
</g>
<g style="fill:rgb(5.880737%,35.293579%,43.136597%);fill-opacity:1;">
  <use xlink:href="#glyph0-29" x="232.779561" y="103.183606"/>
  <use xlink:href="#glyph0-4" x="236.831407" y="103.183606"/>
  <use xlink:href="#glyph0-5" x="241.515519" y="103.183606"/>
  <use xlink:href="#glyph0-6" x="246.760657" y="103.183606"/>
</g>
<path style=" stroke:none;fill-rule:nonzero;fill:rgb(22.744751%,22.744751%,22.744751%);fill-opacity:1;" d="M 308.359375 67.917969 C 308.359375 66.605469 307.292969 65.542969 305.984375 65.542969 C 304.671875 65.542969 303.609375 66.605469 303.609375 67.917969 C 303.609375 69.230469 304.671875 70.292969 305.984375 70.292969 C 307.292969 70.292969 308.359375 69.230469 308.359375 67.917969 Z M 308.359375 67.917969 "/>
<path style=" stroke:none;fill-rule:nonzero;fill:rgb(22.744751%,22.744751%,22.744751%);fill-opacity:1;" d="M 258.074219 67.917969 C 258.074219 66.605469 257.011719 65.542969 255.699219 65.542969 C 254.390625 65.542969 253.324219 66.605469 253.324219 67.917969 C 253.324219 69.230469 254.390625 70.292969 255.699219 70.292969 C 257.011719 70.292969 258.074219 69.230469 258.074219 67.917969 Z M 258.074219 67.917969 "/>
<path style="fill:none;stroke-width:0.3985;stroke-linecap:round;stroke-linejoin:round;stroke:rgb(27.450562%,27.450562%,27.450562%);stroke-opacity:1;stroke-miterlimit:10;" d="M 312.382078 34.58184 L 293.829618 20.670445 " transform="matrix(0.993172,0,0,-0.993172,19.016531,85.373054)"/>
<path style="fill-rule:nonzero;fill:rgb(27.450562%,27.450562%,27.450562%);fill-opacity:1;stroke-width:0.3985;stroke-linecap:round;stroke-linejoin:miter;stroke:rgb(27.450562%,27.450562%,27.450562%);stroke-opacity:1;stroke-miterlimit:10;" d="M 3.117967 -0.00065162 L 0.643978 0.93548 L 1.460506 -0.00142169 L 0.64396 -0.932801 Z M 3.117967 -0.00065162 " transform="matrix(-0.794508,0.595893,0.595893,0.794508,311.922949,64.033168)"/>
<path style="fill:none;stroke-width:0.3985;stroke-linecap:round;stroke-linejoin:round;stroke:rgb(27.450562%,27.450562%,27.450562%);stroke-opacity:1;stroke-miterlimit:10;" d="M 312.382078 37.417609 C 289.137423 82.774184 214.019036 70.015189 235.155547 24.218106 " transform="matrix(0.993172,0,0,-0.993172,19.016531,85.373054)"/>
<path style="fill-rule:nonzero;fill:rgb(27.450562%,27.450562%,27.450562%);fill-opacity:1;stroke-width:0.3985;stroke-linecap:round;stroke-linejoin:miter;stroke:rgb(27.450562%,27.450562%,27.450562%);stroke-opacity:1;stroke-miterlimit:10;" d="M 3.117963 -0.000356767 L 0.642552 0.934194 L 1.463663 0.000735138 L 0.642835 -0.933006 Z M 3.117963 -0.000356767 " transform="matrix(0.416179,0.901731,0.901731,-0.416179,251.999567,60.090633)"/>
<g style="fill:rgb(27.450562%,27.450562%,27.450562%);fill-opacity:1;">
  <use xlink:href="#glyph0-6" x="331.107882" y="48.678333"/>
  <use xlink:href="#glyph0-5" x="335.328926" y="48.678333"/>
</g>
<g style="fill:rgb(27.450562%,27.450562%,27.450562%);fill-opacity:1;">
  <use xlink:href="#glyph0-11" x="340.529537" y="48.678333"/>
  <use xlink:href="#glyph0-2" x="343.664152" y="48.678333"/>
  <use xlink:href="#glyph0-5" x="348.054394" y="48.678333"/>
  <use xlink:href="#glyph0-14" x="353.299531" y="48.678333"/>
  <use xlink:href="#glyph0-18" x="358.02817" y="48.678333"/>
  <use xlink:href="#glyph0-6" x="360.842199" y="48.678333"/>
  <use xlink:href="#glyph0-13" x="365.063243" y="48.678333"/>
</g>
<g style="fill:rgb(27.450562%,27.450562%,27.450562%);fill-opacity:1;">
  <use xlink:href="#glyph0-13" x="331.068155" y="59.562504"/>
  <use xlink:href="#glyph0-17" x="336.357818" y="59.562504"/>
  <use xlink:href="#glyph0-15" x="339.05608" y="59.562504"/>
  <use xlink:href="#glyph0-6" x="342.671574" y="59.562504"/>
  <use xlink:href="#glyph0-29" x="346.892618" y="59.562504"/>
  <use xlink:href="#glyph0-11" x="350.944464" y="59.562504"/>
  <use xlink:href="#glyph0-17" x="354.079079" y="59.562504"/>
  <use xlink:href="#glyph0-4" x="356.777341" y="59.562504"/>
  <use xlink:href="#glyph0-5" x="361.461454" y="59.562504"/>
  <use xlink:href="#glyph0-16" x="366.706591" y="59.562504"/>
</g>
</g>
</svg>
